G04 (created by PCBNEW (2013-08-23 BZR 4296)-product) date 12/22/2013 7:01:24 PM*
%MOIN*%
G04 Gerber Fmt 3.4, Leading zero omitted, Abs format*
%FSLAX34Y34*%
G01*
G70*
G90*
G04 APERTURE LIST*
%ADD10C,0.005906*%
%ADD11C,0.006000*%
%ADD12C,0.007874*%
%ADD13C,0.005000*%
%ADD14C,0.002600*%
%ADD15C,0.004000*%
%ADD16C,0.002000*%
%ADD17C,0.008000*%
%ADD18C,0.003900*%
%ADD19C,0.005900*%
%ADD20C,0.015000*%
%ADD21C,0.004500*%
%ADD22C,0.004700*%
%ADD23C,0.004300*%
%ADD24C,0.010000*%
G04 APERTURE END LIST*
G54D10*
G54D11*
X86435Y-74935D02*
X86607Y-74935D01*
X86521Y-75235D02*
X86521Y-74935D01*
X86707Y-75078D02*
X86807Y-75078D01*
X86850Y-75235D02*
X86707Y-75235D01*
X86707Y-74935D01*
X86850Y-74935D01*
X86978Y-75235D02*
X86978Y-74935D01*
X87078Y-75150D01*
X87178Y-74935D01*
X87178Y-75235D01*
X87321Y-75235D02*
X87321Y-74935D01*
X87435Y-74935D01*
X87464Y-74950D01*
X87478Y-74964D01*
X87492Y-74992D01*
X87492Y-75035D01*
X87478Y-75064D01*
X87464Y-75078D01*
X87435Y-75092D01*
X87321Y-75092D01*
X87621Y-75207D02*
X87635Y-75221D01*
X87621Y-75235D01*
X87607Y-75221D01*
X87621Y-75207D01*
X87621Y-75235D01*
X92300Y-46528D02*
X92285Y-46557D01*
X92285Y-46600D01*
X92300Y-46642D01*
X92328Y-46671D01*
X92357Y-46685D01*
X92414Y-46700D01*
X92457Y-46700D01*
X92514Y-46685D01*
X92542Y-46671D01*
X92571Y-46642D01*
X92585Y-46600D01*
X92585Y-46571D01*
X92571Y-46528D01*
X92557Y-46514D01*
X92457Y-46514D01*
X92457Y-46571D01*
X92585Y-46385D02*
X92285Y-46385D01*
X92585Y-46214D01*
X92285Y-46214D01*
X92585Y-46071D02*
X92285Y-46071D01*
X92285Y-46000D01*
X92300Y-45957D01*
X92328Y-45928D01*
X92357Y-45914D01*
X92414Y-45900D01*
X92457Y-45900D01*
X92514Y-45914D01*
X92542Y-45928D01*
X92571Y-45957D01*
X92585Y-46000D01*
X92585Y-46071D01*
X92471Y-44935D02*
X92471Y-44707D01*
X92585Y-44821D02*
X92357Y-44821D01*
X92285Y-44607D02*
X92585Y-44507D01*
X92285Y-44407D01*
X92428Y-44207D02*
X92442Y-44164D01*
X92457Y-44150D01*
X92485Y-44135D01*
X92528Y-44135D01*
X92557Y-44150D01*
X92571Y-44164D01*
X92585Y-44192D01*
X92585Y-44307D01*
X92285Y-44307D01*
X92285Y-44207D01*
X92300Y-44178D01*
X92314Y-44164D01*
X92342Y-44150D01*
X92371Y-44150D01*
X92400Y-44164D01*
X92414Y-44178D01*
X92428Y-44207D01*
X92428Y-44307D01*
X92500Y-44021D02*
X92500Y-43878D01*
X92585Y-44050D02*
X92285Y-43950D01*
X92585Y-43850D01*
X92285Y-43792D02*
X92285Y-43621D01*
X92585Y-43707D02*
X92285Y-43707D01*
X66757Y-42985D02*
X66857Y-43285D01*
X66957Y-42985D01*
X67057Y-43285D02*
X67057Y-43085D01*
X67057Y-42985D02*
X67042Y-43000D01*
X67057Y-43014D01*
X67071Y-43000D01*
X67057Y-42985D01*
X67057Y-43014D01*
X67200Y-43085D02*
X67200Y-43285D01*
X67200Y-43114D02*
X67214Y-43100D01*
X67242Y-43085D01*
X67285Y-43085D01*
X67314Y-43100D01*
X67328Y-43128D01*
X67328Y-43285D01*
X67471Y-43171D02*
X67700Y-43171D01*
X67585Y-43285D02*
X67585Y-43057D01*
X65271Y-43000D02*
X65242Y-42985D01*
X65200Y-42985D01*
X65157Y-43000D01*
X65128Y-43028D01*
X65114Y-43057D01*
X65100Y-43114D01*
X65100Y-43157D01*
X65114Y-43214D01*
X65128Y-43242D01*
X65157Y-43271D01*
X65200Y-43285D01*
X65228Y-43285D01*
X65271Y-43271D01*
X65285Y-43257D01*
X65285Y-43157D01*
X65228Y-43157D01*
X65414Y-43285D02*
X65414Y-42985D01*
X65585Y-43285D01*
X65585Y-42985D01*
X65728Y-43285D02*
X65728Y-42985D01*
X65800Y-42985D01*
X65842Y-43000D01*
X65871Y-43028D01*
X65885Y-43057D01*
X65900Y-43114D01*
X65900Y-43157D01*
X65885Y-43214D01*
X65871Y-43242D01*
X65842Y-43271D01*
X65800Y-43285D01*
X65728Y-43285D01*
X70914Y-74771D02*
X71142Y-74771D01*
X71028Y-74885D02*
X71028Y-74657D01*
X71242Y-74585D02*
X71342Y-74885D01*
X71442Y-74585D01*
X71642Y-74728D02*
X71685Y-74742D01*
X71700Y-74757D01*
X71714Y-74785D01*
X71714Y-74828D01*
X71700Y-74857D01*
X71685Y-74871D01*
X71657Y-74885D01*
X71542Y-74885D01*
X71542Y-74585D01*
X71642Y-74585D01*
X71671Y-74600D01*
X71685Y-74614D01*
X71700Y-74642D01*
X71700Y-74671D01*
X71685Y-74700D01*
X71671Y-74714D01*
X71642Y-74728D01*
X71542Y-74728D01*
X71828Y-74800D02*
X71971Y-74800D01*
X71800Y-74885D02*
X71900Y-74585D01*
X72000Y-74885D01*
X72057Y-74585D02*
X72228Y-74585D01*
X72142Y-74885D02*
X72142Y-74585D01*
X69371Y-74650D02*
X69342Y-74635D01*
X69300Y-74635D01*
X69257Y-74650D01*
X69228Y-74678D01*
X69214Y-74707D01*
X69200Y-74764D01*
X69200Y-74807D01*
X69214Y-74864D01*
X69228Y-74892D01*
X69257Y-74921D01*
X69300Y-74935D01*
X69328Y-74935D01*
X69371Y-74921D01*
X69385Y-74907D01*
X69385Y-74807D01*
X69328Y-74807D01*
X69514Y-74935D02*
X69514Y-74635D01*
X69685Y-74935D01*
X69685Y-74635D01*
X69828Y-74935D02*
X69828Y-74635D01*
X69900Y-74635D01*
X69942Y-74650D01*
X69971Y-74678D01*
X69985Y-74707D01*
X70000Y-74764D01*
X70000Y-74807D01*
X69985Y-74864D01*
X69971Y-74892D01*
X69942Y-74921D01*
X69900Y-74935D01*
X69828Y-74935D01*
X78446Y-76903D02*
X78489Y-76917D01*
X78503Y-76932D01*
X78517Y-76960D01*
X78517Y-77003D01*
X78503Y-77032D01*
X78489Y-77046D01*
X78460Y-77060D01*
X78346Y-77060D01*
X78346Y-76760D01*
X78446Y-76760D01*
X78475Y-76775D01*
X78489Y-76789D01*
X78503Y-76817D01*
X78503Y-76846D01*
X78489Y-76875D01*
X78475Y-76889D01*
X78446Y-76903D01*
X78346Y-76903D01*
X74503Y-76900D02*
X74646Y-76900D01*
X74475Y-76985D02*
X74575Y-76685D01*
X74675Y-76985D01*
X76196Y-76775D02*
X76167Y-76760D01*
X76125Y-76760D01*
X76082Y-76775D01*
X76053Y-76803D01*
X76039Y-76832D01*
X76025Y-76889D01*
X76025Y-76932D01*
X76039Y-76989D01*
X76053Y-77017D01*
X76082Y-77046D01*
X76125Y-77060D01*
X76153Y-77060D01*
X76196Y-77046D01*
X76210Y-77032D01*
X76210Y-76932D01*
X76153Y-76932D01*
X76339Y-77060D02*
X76339Y-76760D01*
X76510Y-77060D01*
X76510Y-76760D01*
X76653Y-77060D02*
X76653Y-76760D01*
X76725Y-76760D01*
X76767Y-76775D01*
X76796Y-76803D01*
X76810Y-76832D01*
X76825Y-76889D01*
X76825Y-76932D01*
X76810Y-76989D01*
X76796Y-77017D01*
X76767Y-77046D01*
X76725Y-77060D01*
X76653Y-77060D01*
X82646Y-75225D02*
X82617Y-75210D01*
X82575Y-75210D01*
X82532Y-75225D01*
X82503Y-75253D01*
X82489Y-75282D01*
X82475Y-75339D01*
X82475Y-75382D01*
X82489Y-75439D01*
X82503Y-75467D01*
X82532Y-75496D01*
X82575Y-75510D01*
X82603Y-75510D01*
X82646Y-75496D01*
X82660Y-75482D01*
X82660Y-75382D01*
X82603Y-75382D01*
X82789Y-75510D02*
X82789Y-75210D01*
X82960Y-75510D01*
X82960Y-75210D01*
X83103Y-75510D02*
X83103Y-75210D01*
X83175Y-75210D01*
X83217Y-75225D01*
X83246Y-75253D01*
X83260Y-75282D01*
X83275Y-75339D01*
X83275Y-75382D01*
X83260Y-75439D01*
X83246Y-75467D01*
X83217Y-75496D01*
X83175Y-75510D01*
X83103Y-75510D01*
X84857Y-75121D02*
X85085Y-75121D01*
X84971Y-75235D02*
X84971Y-75007D01*
X85185Y-74935D02*
X85285Y-75235D01*
X85385Y-74935D01*
X79807Y-75510D02*
X79807Y-75210D01*
X79921Y-75210D01*
X79950Y-75225D01*
X79964Y-75239D01*
X79978Y-75267D01*
X79978Y-75310D01*
X79964Y-75339D01*
X79950Y-75353D01*
X79921Y-75367D01*
X79807Y-75367D01*
X80278Y-75510D02*
X80178Y-75367D01*
X80107Y-75510D02*
X80107Y-75210D01*
X80221Y-75210D01*
X80250Y-75225D01*
X80264Y-75239D01*
X80278Y-75267D01*
X80278Y-75310D01*
X80264Y-75339D01*
X80250Y-75353D01*
X80221Y-75367D01*
X80107Y-75367D01*
X80407Y-75353D02*
X80507Y-75353D01*
X80550Y-75510D02*
X80407Y-75510D01*
X80407Y-75210D01*
X80550Y-75210D01*
X80664Y-75496D02*
X80707Y-75510D01*
X80778Y-75510D01*
X80807Y-75496D01*
X80821Y-75482D01*
X80835Y-75453D01*
X80835Y-75425D01*
X80821Y-75396D01*
X80807Y-75382D01*
X80778Y-75367D01*
X80721Y-75353D01*
X80692Y-75339D01*
X80678Y-75325D01*
X80664Y-75296D01*
X80664Y-75267D01*
X80678Y-75239D01*
X80692Y-75225D01*
X80721Y-75210D01*
X80792Y-75210D01*
X80835Y-75225D01*
X80950Y-75496D02*
X80992Y-75510D01*
X81064Y-75510D01*
X81092Y-75496D01*
X81107Y-75482D01*
X81121Y-75453D01*
X81121Y-75425D01*
X81107Y-75396D01*
X81092Y-75382D01*
X81064Y-75367D01*
X81007Y-75353D01*
X80978Y-75339D01*
X80964Y-75325D01*
X80950Y-75296D01*
X80950Y-75267D01*
X80964Y-75239D01*
X80978Y-75225D01*
X81007Y-75210D01*
X81078Y-75210D01*
X81121Y-75225D01*
X81250Y-75210D02*
X81250Y-75453D01*
X81264Y-75482D01*
X81278Y-75496D01*
X81307Y-75510D01*
X81364Y-75510D01*
X81392Y-75496D01*
X81407Y-75482D01*
X81421Y-75453D01*
X81421Y-75210D01*
X81735Y-75510D02*
X81635Y-75367D01*
X81564Y-75510D02*
X81564Y-75210D01*
X81678Y-75210D01*
X81707Y-75225D01*
X81721Y-75239D01*
X81735Y-75267D01*
X81735Y-75310D01*
X81721Y-75339D01*
X81707Y-75353D01*
X81678Y-75367D01*
X81564Y-75367D01*
X81864Y-75353D02*
X81964Y-75353D01*
X82007Y-75510D02*
X81864Y-75510D01*
X81864Y-75210D01*
X82007Y-75210D01*
X95278Y-63935D02*
X95278Y-63635D01*
X95378Y-63850D01*
X95478Y-63635D01*
X95478Y-63935D01*
X95678Y-63635D02*
X95735Y-63635D01*
X95764Y-63650D01*
X95792Y-63678D01*
X95807Y-63735D01*
X95807Y-63835D01*
X95792Y-63892D01*
X95764Y-63921D01*
X95735Y-63935D01*
X95678Y-63935D01*
X95650Y-63921D01*
X95621Y-63892D01*
X95607Y-63835D01*
X95607Y-63735D01*
X95621Y-63678D01*
X95650Y-63650D01*
X95678Y-63635D01*
X95892Y-63635D02*
X96064Y-63635D01*
X95978Y-63935D02*
X95978Y-63635D01*
X96221Y-63635D02*
X96278Y-63635D01*
X96307Y-63650D01*
X96335Y-63678D01*
X96350Y-63735D01*
X96350Y-63835D01*
X96335Y-63892D01*
X96307Y-63921D01*
X96278Y-63935D01*
X96221Y-63935D01*
X96192Y-63921D01*
X96164Y-63892D01*
X96150Y-63835D01*
X96150Y-63735D01*
X96164Y-63678D01*
X96192Y-63650D01*
X96221Y-63635D01*
X96650Y-63935D02*
X96550Y-63792D01*
X96478Y-63935D02*
X96478Y-63635D01*
X96592Y-63635D01*
X96621Y-63650D01*
X96635Y-63664D01*
X96650Y-63692D01*
X96650Y-63735D01*
X96635Y-63764D01*
X96621Y-63778D01*
X96592Y-63792D01*
X96478Y-63792D01*
X96992Y-63850D02*
X97135Y-63850D01*
X96964Y-63935D02*
X97064Y-63635D01*
X97164Y-63935D01*
X61014Y-62928D02*
X61314Y-62928D01*
X61100Y-63028D01*
X61314Y-63128D01*
X61014Y-63128D01*
X61314Y-63328D02*
X61314Y-63385D01*
X61300Y-63414D01*
X61271Y-63442D01*
X61214Y-63457D01*
X61114Y-63457D01*
X61057Y-63442D01*
X61028Y-63414D01*
X61014Y-63385D01*
X61014Y-63328D01*
X61028Y-63300D01*
X61057Y-63271D01*
X61114Y-63257D01*
X61214Y-63257D01*
X61271Y-63271D01*
X61300Y-63300D01*
X61314Y-63328D01*
X61314Y-63542D02*
X61314Y-63714D01*
X61014Y-63628D02*
X61314Y-63628D01*
X61314Y-63871D02*
X61314Y-63928D01*
X61300Y-63957D01*
X61271Y-63985D01*
X61214Y-64000D01*
X61114Y-64000D01*
X61057Y-63985D01*
X61028Y-63957D01*
X61014Y-63928D01*
X61014Y-63871D01*
X61028Y-63842D01*
X61057Y-63814D01*
X61114Y-63800D01*
X61214Y-63800D01*
X61271Y-63814D01*
X61300Y-63842D01*
X61314Y-63871D01*
X61014Y-64300D02*
X61157Y-64200D01*
X61014Y-64128D02*
X61314Y-64128D01*
X61314Y-64242D01*
X61300Y-64271D01*
X61285Y-64285D01*
X61257Y-64300D01*
X61214Y-64300D01*
X61185Y-64285D01*
X61171Y-64271D01*
X61157Y-64242D01*
X61157Y-64128D01*
X61171Y-64757D02*
X61171Y-64657D01*
X61014Y-64657D02*
X61314Y-64657D01*
X61314Y-64800D01*
X60964Y-55671D02*
X61264Y-55671D01*
X61050Y-55771D01*
X61264Y-55871D01*
X60964Y-55871D01*
X61264Y-56071D02*
X61264Y-56128D01*
X61250Y-56157D01*
X61221Y-56185D01*
X61164Y-56200D01*
X61064Y-56200D01*
X61007Y-56185D01*
X60978Y-56157D01*
X60964Y-56128D01*
X60964Y-56071D01*
X60978Y-56042D01*
X61007Y-56014D01*
X61064Y-56000D01*
X61164Y-56000D01*
X61221Y-56014D01*
X61250Y-56042D01*
X61264Y-56071D01*
X61264Y-56285D02*
X61264Y-56457D01*
X60964Y-56371D02*
X61264Y-56371D01*
X61264Y-56614D02*
X61264Y-56671D01*
X61250Y-56700D01*
X61221Y-56728D01*
X61164Y-56742D01*
X61064Y-56742D01*
X61007Y-56728D01*
X60978Y-56700D01*
X60964Y-56671D01*
X60964Y-56614D01*
X60978Y-56585D01*
X61007Y-56557D01*
X61064Y-56542D01*
X61164Y-56542D01*
X61221Y-56557D01*
X61250Y-56585D01*
X61264Y-56614D01*
X60964Y-57042D02*
X61107Y-56942D01*
X60964Y-56871D02*
X61264Y-56871D01*
X61264Y-56985D01*
X61250Y-57014D01*
X61235Y-57028D01*
X61207Y-57042D01*
X61164Y-57042D01*
X61135Y-57028D01*
X61121Y-57014D01*
X61107Y-56985D01*
X61107Y-56871D01*
X61121Y-57400D02*
X61121Y-57500D01*
X60964Y-57542D02*
X60964Y-57400D01*
X61264Y-57400D01*
X61264Y-57542D01*
X62107Y-47285D02*
X62107Y-46985D01*
X62207Y-47200D01*
X62307Y-46985D01*
X62307Y-47285D01*
X62507Y-46985D02*
X62564Y-46985D01*
X62592Y-47000D01*
X62621Y-47028D01*
X62635Y-47085D01*
X62635Y-47185D01*
X62621Y-47242D01*
X62592Y-47271D01*
X62564Y-47285D01*
X62507Y-47285D01*
X62478Y-47271D01*
X62450Y-47242D01*
X62435Y-47185D01*
X62435Y-47085D01*
X62450Y-47028D01*
X62478Y-47000D01*
X62507Y-46985D01*
X62721Y-46985D02*
X62892Y-46985D01*
X62807Y-47285D02*
X62807Y-46985D01*
X63050Y-46985D02*
X63107Y-46985D01*
X63135Y-47000D01*
X63164Y-47028D01*
X63178Y-47085D01*
X63178Y-47185D01*
X63164Y-47242D01*
X63135Y-47271D01*
X63107Y-47285D01*
X63050Y-47285D01*
X63021Y-47271D01*
X62992Y-47242D01*
X62978Y-47185D01*
X62978Y-47085D01*
X62992Y-47028D01*
X63021Y-47000D01*
X63050Y-46985D01*
X63478Y-47285D02*
X63378Y-47142D01*
X63307Y-47285D02*
X63307Y-46985D01*
X63421Y-46985D01*
X63450Y-47000D01*
X63464Y-47014D01*
X63478Y-47042D01*
X63478Y-47085D01*
X63464Y-47114D01*
X63450Y-47128D01*
X63421Y-47142D01*
X63307Y-47142D01*
X63835Y-47285D02*
X63835Y-46985D01*
X63907Y-46985D01*
X63950Y-47000D01*
X63978Y-47028D01*
X63992Y-47057D01*
X64007Y-47114D01*
X64007Y-47157D01*
X63992Y-47214D01*
X63978Y-47242D01*
X63950Y-47271D01*
X63907Y-47285D01*
X63835Y-47285D01*
X96035Y-52542D02*
X95735Y-52542D01*
X95950Y-52442D01*
X95735Y-52342D01*
X96035Y-52342D01*
X95735Y-52142D02*
X95735Y-52085D01*
X95750Y-52057D01*
X95778Y-52028D01*
X95835Y-52014D01*
X95935Y-52014D01*
X95992Y-52028D01*
X96021Y-52057D01*
X96035Y-52085D01*
X96035Y-52142D01*
X96021Y-52171D01*
X95992Y-52199D01*
X95935Y-52214D01*
X95835Y-52214D01*
X95778Y-52199D01*
X95750Y-52171D01*
X95735Y-52142D01*
X95735Y-51928D02*
X95735Y-51757D01*
X96035Y-51842D02*
X95735Y-51842D01*
X95735Y-51600D02*
X95735Y-51542D01*
X95750Y-51514D01*
X95778Y-51485D01*
X95835Y-51471D01*
X95935Y-51471D01*
X95992Y-51485D01*
X96021Y-51514D01*
X96035Y-51542D01*
X96035Y-51600D01*
X96021Y-51628D01*
X95992Y-51657D01*
X95935Y-51671D01*
X95835Y-51671D01*
X95778Y-51657D01*
X95750Y-51628D01*
X95735Y-51600D01*
X96035Y-51171D02*
X95892Y-51271D01*
X96035Y-51342D02*
X95735Y-51342D01*
X95735Y-51228D01*
X95750Y-51199D01*
X95764Y-51185D01*
X95792Y-51171D01*
X95835Y-51171D01*
X95864Y-51185D01*
X95878Y-51199D01*
X95892Y-51228D01*
X95892Y-51342D01*
X96007Y-50642D02*
X96021Y-50657D01*
X96035Y-50700D01*
X96035Y-50728D01*
X96021Y-50771D01*
X95992Y-50800D01*
X95964Y-50814D01*
X95907Y-50828D01*
X95864Y-50828D01*
X95807Y-50814D01*
X95778Y-50800D01*
X95750Y-50771D01*
X95735Y-50728D01*
X95735Y-50700D01*
X95750Y-50657D01*
X95764Y-50642D01*
X96035Y-59592D02*
X95735Y-59592D01*
X95950Y-59492D01*
X95735Y-59392D01*
X96035Y-59392D01*
X95735Y-59192D02*
X95735Y-59135D01*
X95750Y-59107D01*
X95778Y-59078D01*
X95835Y-59064D01*
X95935Y-59064D01*
X95992Y-59078D01*
X96021Y-59107D01*
X96035Y-59135D01*
X96035Y-59192D01*
X96021Y-59221D01*
X95992Y-59249D01*
X95935Y-59264D01*
X95835Y-59264D01*
X95778Y-59249D01*
X95750Y-59221D01*
X95735Y-59192D01*
X95735Y-58978D02*
X95735Y-58807D01*
X96035Y-58892D02*
X95735Y-58892D01*
X95735Y-58650D02*
X95735Y-58592D01*
X95750Y-58564D01*
X95778Y-58535D01*
X95835Y-58521D01*
X95935Y-58521D01*
X95992Y-58535D01*
X96021Y-58564D01*
X96035Y-58592D01*
X96035Y-58650D01*
X96021Y-58678D01*
X95992Y-58707D01*
X95935Y-58721D01*
X95835Y-58721D01*
X95778Y-58707D01*
X95750Y-58678D01*
X95735Y-58650D01*
X96035Y-58221D02*
X95892Y-58321D01*
X96035Y-58392D02*
X95735Y-58392D01*
X95735Y-58278D01*
X95750Y-58249D01*
X95764Y-58235D01*
X95792Y-58221D01*
X95835Y-58221D01*
X95864Y-58235D01*
X95878Y-58249D01*
X95892Y-58278D01*
X95892Y-58392D01*
X95878Y-57764D02*
X95892Y-57721D01*
X95907Y-57707D01*
X95935Y-57692D01*
X95978Y-57692D01*
X96007Y-57707D01*
X96021Y-57721D01*
X96035Y-57750D01*
X96035Y-57864D01*
X95735Y-57864D01*
X95735Y-57764D01*
X95750Y-57735D01*
X95764Y-57721D01*
X95792Y-57707D01*
X95821Y-57707D01*
X95850Y-57721D01*
X95864Y-57735D01*
X95878Y-57764D01*
X95878Y-57864D01*
X78971Y-53435D02*
X79000Y-53435D01*
X79028Y-53450D01*
X79042Y-53464D01*
X79057Y-53492D01*
X79071Y-53550D01*
X79071Y-53621D01*
X79057Y-53678D01*
X79042Y-53707D01*
X79028Y-53721D01*
X79000Y-53735D01*
X78971Y-53735D01*
X78942Y-53721D01*
X78928Y-53707D01*
X78914Y-53678D01*
X78900Y-53621D01*
X78900Y-53550D01*
X78914Y-53492D01*
X78928Y-53464D01*
X78942Y-53450D01*
X78971Y-53435D01*
X79328Y-53435D02*
X79271Y-53435D01*
X79242Y-53450D01*
X79228Y-53464D01*
X79200Y-53507D01*
X79185Y-53564D01*
X79185Y-53678D01*
X79200Y-53707D01*
X79214Y-53721D01*
X79242Y-53735D01*
X79300Y-53735D01*
X79328Y-53721D01*
X79342Y-53707D01*
X79357Y-53678D01*
X79357Y-53607D01*
X79342Y-53578D01*
X79328Y-53564D01*
X79300Y-53550D01*
X79242Y-53550D01*
X79214Y-53564D01*
X79200Y-53578D01*
X79185Y-53607D01*
X79700Y-53421D02*
X79442Y-53807D01*
X79785Y-53464D02*
X79800Y-53450D01*
X79828Y-53435D01*
X79900Y-53435D01*
X79928Y-53450D01*
X79942Y-53464D01*
X79957Y-53492D01*
X79957Y-53521D01*
X79942Y-53564D01*
X79771Y-53735D01*
X79957Y-53735D01*
X80057Y-53435D02*
X80242Y-53435D01*
X80142Y-53550D01*
X80185Y-53550D01*
X80214Y-53564D01*
X80228Y-53578D01*
X80242Y-53607D01*
X80242Y-53678D01*
X80228Y-53707D01*
X80214Y-53721D01*
X80185Y-53735D01*
X80100Y-53735D01*
X80071Y-53721D01*
X80057Y-53707D01*
X80585Y-53421D02*
X80328Y-53807D01*
X80671Y-53464D02*
X80685Y-53450D01*
X80714Y-53435D01*
X80785Y-53435D01*
X80814Y-53450D01*
X80828Y-53464D01*
X80842Y-53492D01*
X80842Y-53521D01*
X80828Y-53564D01*
X80657Y-53735D01*
X80842Y-53735D01*
X81028Y-53435D02*
X81057Y-53435D01*
X81085Y-53450D01*
X81100Y-53464D01*
X81114Y-53492D01*
X81128Y-53550D01*
X81128Y-53621D01*
X81114Y-53678D01*
X81100Y-53707D01*
X81085Y-53721D01*
X81057Y-53735D01*
X81028Y-53735D01*
X81000Y-53721D01*
X80985Y-53707D01*
X80971Y-53678D01*
X80957Y-53621D01*
X80957Y-53550D01*
X80971Y-53492D01*
X80985Y-53464D01*
X81000Y-53450D01*
X81028Y-53435D01*
X81414Y-53735D02*
X81242Y-53735D01*
X81328Y-53735D02*
X81328Y-53435D01*
X81300Y-53478D01*
X81271Y-53507D01*
X81242Y-53521D01*
X81528Y-53464D02*
X81542Y-53450D01*
X81571Y-53435D01*
X81642Y-53435D01*
X81671Y-53450D01*
X81685Y-53464D01*
X81699Y-53492D01*
X81699Y-53521D01*
X81685Y-53564D01*
X81514Y-53735D01*
X81699Y-53735D01*
G54D12*
X81100Y-54300D02*
X81100Y-54250D01*
X80300Y-55100D02*
X81100Y-54300D01*
X79500Y-54300D02*
X80300Y-55100D01*
X79900Y-53900D02*
G75*
G03X79500Y-54300I0J-400D01*
G74*
G01*
X81100Y-54300D02*
G75*
G03X80700Y-53900I-400J0D01*
G74*
G01*
X80700Y-53900D02*
G75*
G03X80300Y-54300I0J-400D01*
G74*
G01*
X80300Y-54300D02*
G75*
G03X79900Y-53900I-400J0D01*
G74*
G01*
X80300Y-54300D02*
G75*
G03X79900Y-53900I-400J0D01*
G74*
G01*
G54D11*
X79885Y-54571D02*
X79928Y-54585D01*
X80000Y-54585D01*
X80028Y-54571D01*
X80042Y-54557D01*
X80057Y-54528D01*
X80057Y-54500D01*
X80042Y-54471D01*
X80028Y-54457D01*
X80000Y-54442D01*
X79942Y-54428D01*
X79914Y-54414D01*
X79900Y-54400D01*
X79885Y-54371D01*
X79885Y-54342D01*
X79900Y-54314D01*
X79914Y-54300D01*
X79942Y-54285D01*
X80014Y-54285D01*
X80057Y-54300D01*
X80328Y-54585D02*
X80185Y-54585D01*
X80185Y-54285D01*
X80428Y-54585D02*
X80428Y-54285D01*
X80428Y-54428D02*
X80600Y-54428D01*
X80600Y-54585D02*
X80600Y-54285D01*
X82642Y-54485D02*
X82642Y-54185D01*
X82742Y-54400D01*
X82842Y-54185D01*
X82842Y-54485D01*
X83142Y-54200D02*
X83114Y-54185D01*
X83071Y-54185D01*
X83028Y-54200D01*
X83000Y-54228D01*
X82985Y-54257D01*
X82971Y-54314D01*
X82971Y-54357D01*
X82985Y-54414D01*
X83000Y-54442D01*
X83028Y-54471D01*
X83071Y-54485D01*
X83100Y-54485D01*
X83142Y-54471D01*
X83157Y-54457D01*
X83157Y-54357D01*
X83100Y-54357D01*
X83285Y-54485D02*
X83285Y-54185D01*
X83285Y-54328D02*
X83457Y-54328D01*
X83457Y-54485D02*
X83457Y-54185D01*
X85192Y-41007D02*
X85178Y-41021D01*
X85135Y-41035D01*
X85107Y-41035D01*
X85064Y-41021D01*
X85035Y-40992D01*
X85021Y-40964D01*
X85007Y-40907D01*
X85007Y-40864D01*
X85021Y-40807D01*
X85035Y-40778D01*
X85064Y-40750D01*
X85107Y-40735D01*
X85135Y-40735D01*
X85178Y-40750D01*
X85192Y-40764D01*
X85307Y-40950D02*
X85450Y-40950D01*
X85278Y-41035D02*
X85378Y-40735D01*
X85478Y-41035D01*
X85578Y-41035D02*
X85578Y-40735D01*
X85678Y-40950D01*
X85778Y-40735D01*
X85778Y-41035D01*
X76792Y-71607D02*
X76778Y-71621D01*
X76735Y-71635D01*
X76707Y-71635D01*
X76664Y-71621D01*
X76635Y-71592D01*
X76621Y-71564D01*
X76607Y-71507D01*
X76607Y-71464D01*
X76621Y-71407D01*
X76635Y-71378D01*
X76664Y-71350D01*
X76707Y-71335D01*
X76735Y-71335D01*
X76778Y-71350D01*
X76792Y-71364D01*
X76907Y-71550D02*
X77050Y-71550D01*
X76878Y-71635D02*
X76978Y-71335D01*
X77078Y-71635D01*
X77178Y-71635D02*
X77178Y-71335D01*
X77278Y-71550D01*
X77378Y-71335D01*
X77378Y-71635D01*
X79242Y-40785D02*
X79442Y-40785D01*
X79242Y-41085D01*
X79442Y-41085D01*
X79728Y-41085D02*
X79628Y-40942D01*
X79557Y-41085D02*
X79557Y-40785D01*
X79671Y-40785D01*
X79700Y-40800D01*
X79714Y-40814D01*
X79728Y-40842D01*
X79728Y-40885D01*
X79714Y-40914D01*
X79700Y-40928D01*
X79671Y-40942D01*
X79557Y-40942D01*
X79857Y-41085D02*
X79857Y-40785D01*
X79857Y-40928D02*
X80028Y-40928D01*
X80028Y-41085D02*
X80028Y-40785D01*
X74657Y-68535D02*
X74657Y-68750D01*
X74642Y-68792D01*
X74614Y-68821D01*
X74571Y-68835D01*
X74542Y-68835D01*
X74900Y-68678D02*
X74800Y-68678D01*
X74800Y-68835D02*
X74800Y-68535D01*
X74942Y-68535D01*
X75057Y-68835D02*
X75057Y-68535D01*
X75057Y-68678D02*
X75228Y-68678D01*
X75228Y-68835D02*
X75228Y-68535D01*
X71585Y-60135D02*
X71585Y-59835D01*
X71685Y-60050D01*
X71785Y-59835D01*
X71785Y-60135D01*
X71971Y-60135D02*
X71942Y-60121D01*
X71928Y-60107D01*
X71914Y-60078D01*
X71914Y-59992D01*
X71928Y-59964D01*
X71942Y-59950D01*
X71971Y-59935D01*
X72014Y-59935D01*
X72042Y-59950D01*
X72057Y-59964D01*
X72071Y-59992D01*
X72071Y-60078D01*
X72057Y-60107D01*
X72042Y-60121D01*
X72014Y-60135D01*
X71971Y-60135D01*
X72157Y-59935D02*
X72271Y-59935D01*
X72200Y-59835D02*
X72200Y-60092D01*
X72214Y-60121D01*
X72242Y-60135D01*
X72271Y-60135D01*
X72414Y-60135D02*
X72385Y-60121D01*
X72371Y-60107D01*
X72357Y-60078D01*
X72357Y-59992D01*
X72371Y-59964D01*
X72385Y-59950D01*
X72414Y-59935D01*
X72457Y-59935D01*
X72485Y-59950D01*
X72500Y-59964D01*
X72514Y-59992D01*
X72514Y-60078D01*
X72500Y-60107D01*
X72485Y-60121D01*
X72457Y-60135D01*
X72414Y-60135D01*
X72642Y-60135D02*
X72642Y-59935D01*
X72642Y-59992D02*
X72657Y-59964D01*
X72671Y-59950D01*
X72700Y-59935D01*
X72728Y-59935D01*
X73228Y-60107D02*
X73214Y-60121D01*
X73171Y-60135D01*
X73142Y-60135D01*
X73100Y-60121D01*
X73071Y-60092D01*
X73057Y-60064D01*
X73042Y-60007D01*
X73042Y-59964D01*
X73057Y-59907D01*
X73071Y-59878D01*
X73100Y-59850D01*
X73142Y-59835D01*
X73171Y-59835D01*
X73214Y-59850D01*
X73228Y-59864D01*
X73400Y-60135D02*
X73371Y-60121D01*
X73357Y-60107D01*
X73342Y-60078D01*
X73342Y-59992D01*
X73357Y-59964D01*
X73371Y-59950D01*
X73400Y-59935D01*
X73442Y-59935D01*
X73471Y-59950D01*
X73485Y-59964D01*
X73500Y-59992D01*
X73500Y-60078D01*
X73485Y-60107D01*
X73471Y-60121D01*
X73442Y-60135D01*
X73400Y-60135D01*
X73628Y-59935D02*
X73628Y-60135D01*
X73628Y-59964D02*
X73642Y-59950D01*
X73671Y-59935D01*
X73714Y-59935D01*
X73742Y-59950D01*
X73757Y-59978D01*
X73757Y-60135D01*
X73857Y-59935D02*
X73971Y-59935D01*
X73900Y-59835D02*
X73900Y-60092D01*
X73914Y-60121D01*
X73942Y-60135D01*
X73971Y-60135D01*
X74071Y-60135D02*
X74071Y-59935D01*
X74071Y-59992D02*
X74085Y-59964D01*
X74100Y-59950D01*
X74128Y-59935D01*
X74157Y-59935D01*
X74300Y-60135D02*
X74271Y-60121D01*
X74257Y-60107D01*
X74242Y-60078D01*
X74242Y-59992D01*
X74257Y-59964D01*
X74271Y-59950D01*
X74300Y-59935D01*
X74342Y-59935D01*
X74371Y-59950D01*
X74385Y-59964D01*
X74400Y-59992D01*
X74400Y-60078D01*
X74385Y-60107D01*
X74371Y-60121D01*
X74342Y-60135D01*
X74300Y-60135D01*
X74571Y-60135D02*
X74542Y-60121D01*
X74528Y-60092D01*
X74528Y-59835D01*
X74871Y-59835D02*
X74971Y-60135D01*
X75071Y-59835D01*
X75328Y-60135D02*
X75157Y-60135D01*
X75242Y-60135D02*
X75242Y-59835D01*
X75214Y-59878D01*
X75185Y-59907D01*
X75157Y-59921D01*
X72228Y-60615D02*
X72228Y-60315D01*
X72228Y-60458D02*
X72400Y-60458D01*
X72400Y-60615D02*
X72400Y-60315D01*
X72585Y-60615D02*
X72557Y-60601D01*
X72542Y-60587D01*
X72528Y-60558D01*
X72528Y-60472D01*
X72542Y-60444D01*
X72557Y-60430D01*
X72585Y-60415D01*
X72628Y-60415D01*
X72657Y-60430D01*
X72671Y-60444D01*
X72685Y-60472D01*
X72685Y-60558D01*
X72671Y-60587D01*
X72657Y-60601D01*
X72628Y-60615D01*
X72585Y-60615D01*
X72771Y-60415D02*
X72885Y-60415D01*
X72814Y-60615D02*
X72814Y-60358D01*
X72828Y-60330D01*
X72857Y-60315D01*
X72885Y-60315D01*
X73100Y-60601D02*
X73071Y-60615D01*
X73014Y-60615D01*
X72985Y-60601D01*
X72971Y-60572D01*
X72971Y-60458D01*
X72985Y-60430D01*
X73014Y-60415D01*
X73071Y-60415D01*
X73100Y-60430D01*
X73114Y-60458D01*
X73114Y-60487D01*
X72971Y-60515D01*
X73242Y-60615D02*
X73242Y-60415D01*
X73242Y-60472D02*
X73257Y-60444D01*
X73271Y-60430D01*
X73300Y-60415D01*
X73328Y-60415D01*
X73614Y-60315D02*
X73785Y-60315D01*
X73700Y-60615D02*
X73700Y-60315D01*
X74000Y-60601D02*
X73971Y-60615D01*
X73914Y-60615D01*
X73885Y-60601D01*
X73871Y-60572D01*
X73871Y-60458D01*
X73885Y-60430D01*
X73914Y-60415D01*
X73971Y-60415D01*
X74000Y-60430D01*
X74014Y-60458D01*
X74014Y-60487D01*
X73871Y-60515D01*
X74271Y-60601D02*
X74242Y-60615D01*
X74185Y-60615D01*
X74157Y-60601D01*
X74142Y-60587D01*
X74128Y-60558D01*
X74128Y-60472D01*
X74142Y-60444D01*
X74157Y-60430D01*
X74185Y-60415D01*
X74242Y-60415D01*
X74271Y-60430D01*
X74400Y-60615D02*
X74400Y-60315D01*
X74528Y-60615D02*
X74528Y-60458D01*
X74514Y-60430D01*
X74485Y-60415D01*
X74442Y-60415D01*
X74414Y-60430D01*
X74400Y-60444D01*
X74671Y-60587D02*
X74685Y-60601D01*
X74671Y-60615D01*
X74657Y-60601D01*
X74671Y-60587D01*
X74671Y-60615D01*
X73271Y-61067D02*
X73257Y-61081D01*
X73214Y-61095D01*
X73185Y-61095D01*
X73142Y-61081D01*
X73114Y-61052D01*
X73100Y-61024D01*
X73085Y-60967D01*
X73085Y-60924D01*
X73100Y-60867D01*
X73114Y-60838D01*
X73142Y-60810D01*
X73185Y-60795D01*
X73214Y-60795D01*
X73257Y-60810D01*
X73271Y-60824D01*
X73485Y-60795D02*
X73485Y-61010D01*
X73471Y-61052D01*
X73442Y-61081D01*
X73400Y-61095D01*
X73371Y-61095D01*
X73628Y-61095D02*
X73628Y-60795D01*
X73628Y-60938D02*
X73800Y-60938D01*
X73800Y-61095D02*
X73800Y-60795D01*
G54D13*
X79550Y-38725D02*
X78650Y-38725D01*
X78650Y-38725D02*
X78650Y-38225D01*
X78650Y-38225D02*
X79550Y-38225D01*
X79550Y-38225D02*
X79550Y-38725D01*
X76950Y-47075D02*
X77550Y-47075D01*
X77700Y-47025D02*
X76800Y-47025D01*
X76700Y-46975D02*
X77800Y-46975D01*
X77900Y-46925D02*
X76600Y-46925D01*
X76550Y-46875D02*
X77950Y-46875D01*
X78450Y-45925D02*
G75*
G03X78450Y-45925I-1200J0D01*
G74*
G01*
X75950Y-47225D02*
X78550Y-47225D01*
X78550Y-47225D02*
X78550Y-44925D01*
X78550Y-44925D02*
X78250Y-44625D01*
X78250Y-44625D02*
X76250Y-44625D01*
X76250Y-44625D02*
X75950Y-44925D01*
X75950Y-44925D02*
X75950Y-47225D01*
X77250Y-45075D02*
X77250Y-45375D01*
X77100Y-45225D02*
X77400Y-45225D01*
X74200Y-47075D02*
X74800Y-47075D01*
X74950Y-47025D02*
X74050Y-47025D01*
X73950Y-46975D02*
X75050Y-46975D01*
X75150Y-46925D02*
X73850Y-46925D01*
X73800Y-46875D02*
X75200Y-46875D01*
X75700Y-45925D02*
G75*
G03X75700Y-45925I-1200J0D01*
G74*
G01*
X73200Y-47225D02*
X75800Y-47225D01*
X75800Y-47225D02*
X75800Y-44925D01*
X75800Y-44925D02*
X75500Y-44625D01*
X75500Y-44625D02*
X73500Y-44625D01*
X73500Y-44625D02*
X73200Y-44925D01*
X73200Y-44925D02*
X73200Y-47225D01*
X74500Y-45075D02*
X74500Y-45375D01*
X74350Y-45225D02*
X74650Y-45225D01*
X75025Y-43875D02*
X75925Y-43875D01*
X75925Y-43875D02*
X75925Y-44375D01*
X75925Y-44375D02*
X75025Y-44375D01*
X75025Y-44375D02*
X75025Y-43875D01*
X76850Y-40950D02*
X76850Y-40050D01*
X76850Y-40050D02*
X77350Y-40050D01*
X77350Y-40050D02*
X77350Y-40950D01*
X77350Y-40950D02*
X76850Y-40950D01*
X79150Y-41150D02*
X78250Y-41150D01*
X78250Y-41150D02*
X78250Y-40650D01*
X78250Y-40650D02*
X79150Y-40650D01*
X79150Y-40650D02*
X79150Y-41150D01*
X75475Y-40000D02*
X76375Y-40000D01*
X76375Y-40000D02*
X76375Y-40500D01*
X76375Y-40500D02*
X75475Y-40500D01*
X75475Y-40500D02*
X75475Y-40000D01*
X80600Y-66325D02*
X80600Y-67225D01*
X80600Y-67225D02*
X80100Y-67225D01*
X80100Y-67225D02*
X80100Y-66325D01*
X80100Y-66325D02*
X80600Y-66325D01*
X79450Y-40475D02*
X79450Y-39575D01*
X79450Y-39575D02*
X79950Y-39575D01*
X79950Y-39575D02*
X79950Y-40475D01*
X79950Y-40475D02*
X79450Y-40475D01*
X82575Y-45250D02*
X83475Y-45250D01*
X83475Y-45250D02*
X83475Y-45750D01*
X83475Y-45750D02*
X82575Y-45750D01*
X82575Y-45750D02*
X82575Y-45250D01*
X76850Y-39850D02*
X76850Y-38950D01*
X76850Y-38950D02*
X77350Y-38950D01*
X77350Y-38950D02*
X77350Y-39850D01*
X77350Y-39850D02*
X76850Y-39850D01*
X72250Y-42900D02*
X71350Y-42900D01*
X71350Y-42900D02*
X71350Y-42400D01*
X71350Y-42400D02*
X72250Y-42400D01*
X72250Y-42400D02*
X72250Y-42900D01*
X80075Y-45000D02*
X80975Y-45000D01*
X80975Y-45000D02*
X80975Y-45500D01*
X80975Y-45500D02*
X80075Y-45500D01*
X80075Y-45500D02*
X80075Y-45000D01*
X78750Y-64950D02*
X78750Y-64050D01*
X78750Y-64050D02*
X79250Y-64050D01*
X79250Y-64050D02*
X79250Y-64950D01*
X79250Y-64950D02*
X78750Y-64950D01*
X80625Y-40700D02*
X80625Y-41600D01*
X80625Y-41600D02*
X80125Y-41600D01*
X80125Y-41600D02*
X80125Y-40700D01*
X80125Y-40700D02*
X80625Y-40700D01*
X80850Y-71450D02*
X79950Y-71450D01*
X79950Y-71450D02*
X79950Y-70950D01*
X79950Y-70950D02*
X80850Y-70950D01*
X80850Y-70950D02*
X80850Y-71450D01*
X84550Y-59000D02*
X83650Y-59000D01*
X83650Y-59000D02*
X83650Y-58500D01*
X83650Y-58500D02*
X84550Y-58500D01*
X84550Y-58500D02*
X84550Y-59000D01*
X84550Y-55300D02*
X83650Y-55300D01*
X83650Y-55300D02*
X83650Y-54800D01*
X83650Y-54800D02*
X84550Y-54800D01*
X84550Y-54800D02*
X84550Y-55300D01*
X74225Y-68300D02*
X73325Y-68300D01*
X73325Y-68300D02*
X73325Y-67800D01*
X73325Y-67800D02*
X74225Y-67800D01*
X74225Y-67800D02*
X74225Y-68300D01*
X86850Y-63525D02*
X85950Y-63525D01*
X85950Y-63525D02*
X85950Y-63025D01*
X85950Y-63025D02*
X86850Y-63025D01*
X86850Y-63025D02*
X86850Y-63525D01*
X89625Y-61000D02*
X90525Y-61000D01*
X90525Y-61000D02*
X90525Y-61500D01*
X90525Y-61500D02*
X89625Y-61500D01*
X89625Y-61500D02*
X89625Y-61000D01*
X88575Y-63525D02*
X87675Y-63525D01*
X87675Y-63525D02*
X87675Y-63025D01*
X87675Y-63025D02*
X88575Y-63025D01*
X88575Y-63025D02*
X88575Y-63525D01*
X88575Y-56200D02*
X87675Y-56200D01*
X87675Y-56200D02*
X87675Y-55700D01*
X87675Y-55700D02*
X88575Y-55700D01*
X88575Y-55700D02*
X88575Y-56200D01*
X87050Y-68825D02*
X86150Y-68825D01*
X86150Y-68825D02*
X86150Y-68325D01*
X86150Y-68325D02*
X87050Y-68325D01*
X87050Y-68325D02*
X87050Y-68825D01*
X86175Y-61500D02*
X85275Y-61500D01*
X85275Y-61500D02*
X85275Y-61000D01*
X85275Y-61000D02*
X86175Y-61000D01*
X86175Y-61000D02*
X86175Y-61500D01*
X89625Y-54000D02*
X90525Y-54000D01*
X90525Y-54000D02*
X90525Y-54500D01*
X90525Y-54500D02*
X89625Y-54500D01*
X89625Y-54500D02*
X89625Y-54000D01*
X69850Y-51925D02*
X70750Y-51925D01*
X70750Y-51925D02*
X70750Y-52425D01*
X70750Y-52425D02*
X69850Y-52425D01*
X69850Y-52425D02*
X69850Y-51925D01*
X88525Y-49175D02*
X87625Y-49175D01*
X87625Y-49175D02*
X87625Y-48675D01*
X87625Y-48675D02*
X88525Y-48675D01*
X88525Y-48675D02*
X88525Y-49175D01*
X68100Y-51925D02*
X69000Y-51925D01*
X69000Y-51925D02*
X69000Y-52425D01*
X69000Y-52425D02*
X68100Y-52425D01*
X68100Y-52425D02*
X68100Y-51925D01*
X86850Y-54525D02*
X85950Y-54525D01*
X85950Y-54525D02*
X85950Y-54025D01*
X85950Y-54025D02*
X86850Y-54025D01*
X86850Y-54025D02*
X86850Y-54525D01*
X70100Y-46625D02*
X71000Y-46625D01*
X71000Y-46625D02*
X71000Y-47125D01*
X71000Y-47125D02*
X70100Y-47125D01*
X70100Y-47125D02*
X70100Y-46625D01*
X69800Y-58975D02*
X70700Y-58975D01*
X70700Y-58975D02*
X70700Y-59475D01*
X70700Y-59475D02*
X69800Y-59475D01*
X69800Y-59475D02*
X69800Y-58975D01*
X69750Y-66250D02*
X70650Y-66250D01*
X70650Y-66250D02*
X70650Y-66750D01*
X70650Y-66750D02*
X69750Y-66750D01*
X69750Y-66750D02*
X69750Y-66250D01*
X68100Y-58975D02*
X69000Y-58975D01*
X69000Y-58975D02*
X69000Y-59475D01*
X69000Y-59475D02*
X68100Y-59475D01*
X68100Y-59475D02*
X68100Y-58975D01*
X68100Y-66250D02*
X69000Y-66250D01*
X69000Y-66250D02*
X69000Y-66750D01*
X69000Y-66750D02*
X68100Y-66750D01*
X68100Y-66750D02*
X68100Y-66250D01*
X70250Y-53675D02*
X71150Y-53675D01*
X71150Y-53675D02*
X71150Y-54175D01*
X71150Y-54175D02*
X70250Y-54175D01*
X70250Y-54175D02*
X70250Y-53675D01*
X70100Y-60950D02*
X71000Y-60950D01*
X71000Y-60950D02*
X71000Y-61450D01*
X71000Y-61450D02*
X70100Y-61450D01*
X70100Y-61450D02*
X70100Y-60950D01*
X73525Y-43200D02*
X73445Y-43200D01*
X72925Y-42450D02*
X74725Y-42450D01*
X74725Y-42450D02*
X74725Y-42700D01*
X74085Y-43950D02*
X74085Y-42450D01*
X74215Y-43950D02*
X74215Y-42450D01*
X72925Y-43700D02*
X72925Y-43950D01*
X72925Y-43950D02*
X74725Y-43950D01*
X74725Y-43950D02*
X74725Y-43700D01*
X72925Y-42700D02*
X72925Y-42450D01*
X73775Y-43200D02*
X73525Y-43013D01*
X73525Y-43013D02*
X73525Y-43200D01*
X73525Y-43200D02*
X73525Y-43387D01*
X73525Y-43387D02*
X73775Y-43200D01*
X73775Y-43200D02*
X73775Y-43075D01*
X73775Y-43075D02*
X73713Y-43013D01*
X73775Y-43200D02*
X73775Y-43325D01*
X73775Y-43325D02*
X73837Y-43387D01*
X73775Y-43200D02*
X74212Y-43200D01*
G54D14*
X74796Y-71318D02*
X74796Y-71446D01*
X74796Y-71446D02*
X74993Y-71446D01*
X74993Y-71318D02*
X74993Y-71446D01*
X74796Y-71318D02*
X74993Y-71318D01*
X74796Y-71073D02*
X74796Y-71132D01*
X74796Y-71132D02*
X74895Y-71132D01*
X74895Y-71073D02*
X74895Y-71132D01*
X74796Y-71073D02*
X74895Y-71073D01*
X74796Y-71268D02*
X74796Y-71327D01*
X74796Y-71327D02*
X74895Y-71327D01*
X74895Y-71268D02*
X74895Y-71327D01*
X74796Y-71268D02*
X74895Y-71268D01*
X74796Y-71122D02*
X74796Y-71278D01*
X74796Y-71278D02*
X74865Y-71278D01*
X74865Y-71122D02*
X74865Y-71278D01*
X74796Y-71122D02*
X74865Y-71122D01*
X74207Y-71318D02*
X74207Y-71446D01*
X74207Y-71446D02*
X74404Y-71446D01*
X74404Y-71318D02*
X74404Y-71446D01*
X74207Y-71318D02*
X74404Y-71318D01*
X74207Y-70954D02*
X74207Y-71082D01*
X74207Y-71082D02*
X74404Y-71082D01*
X74404Y-70954D02*
X74404Y-71082D01*
X74207Y-70954D02*
X74404Y-70954D01*
X74305Y-71268D02*
X74305Y-71327D01*
X74305Y-71327D02*
X74404Y-71327D01*
X74404Y-71268D02*
X74404Y-71327D01*
X74305Y-71268D02*
X74404Y-71268D01*
X74305Y-71073D02*
X74305Y-71132D01*
X74305Y-71132D02*
X74404Y-71132D01*
X74404Y-71073D02*
X74404Y-71132D01*
X74305Y-71073D02*
X74404Y-71073D01*
X74335Y-71122D02*
X74335Y-71278D01*
X74335Y-71278D02*
X74404Y-71278D01*
X74404Y-71122D02*
X74404Y-71278D01*
X74335Y-71122D02*
X74404Y-71122D01*
X74600Y-71161D02*
X74600Y-71239D01*
X74600Y-71239D02*
X74678Y-71239D01*
X74678Y-71161D02*
X74678Y-71239D01*
X74600Y-71161D02*
X74678Y-71161D01*
X74796Y-70964D02*
X74796Y-71082D01*
X74796Y-71082D02*
X74914Y-71082D01*
X74914Y-70964D02*
X74914Y-71082D01*
X74796Y-70964D02*
X74914Y-70964D01*
X74964Y-70954D02*
X74964Y-71043D01*
X74964Y-71043D02*
X74993Y-71043D01*
X74993Y-70954D02*
X74993Y-71043D01*
X74964Y-70954D02*
X74993Y-70954D01*
G54D15*
X74806Y-71426D02*
X74394Y-71426D01*
X74404Y-70974D02*
X74964Y-70974D01*
G54D16*
X74962Y-71023D02*
G75*
G03X74962Y-71023I-28J0D01*
G74*
G01*
G54D15*
X74993Y-71063D02*
G75*
G03X74993Y-71337I0J-137D01*
G74*
G01*
X74207Y-71337D02*
G75*
G03X74207Y-71063I0J137D01*
G74*
G01*
G54D14*
X74796Y-72018D02*
X74796Y-72146D01*
X74796Y-72146D02*
X74993Y-72146D01*
X74993Y-72018D02*
X74993Y-72146D01*
X74796Y-72018D02*
X74993Y-72018D01*
X74796Y-71773D02*
X74796Y-71832D01*
X74796Y-71832D02*
X74895Y-71832D01*
X74895Y-71773D02*
X74895Y-71832D01*
X74796Y-71773D02*
X74895Y-71773D01*
X74796Y-71968D02*
X74796Y-72027D01*
X74796Y-72027D02*
X74895Y-72027D01*
X74895Y-71968D02*
X74895Y-72027D01*
X74796Y-71968D02*
X74895Y-71968D01*
X74796Y-71822D02*
X74796Y-71978D01*
X74796Y-71978D02*
X74865Y-71978D01*
X74865Y-71822D02*
X74865Y-71978D01*
X74796Y-71822D02*
X74865Y-71822D01*
X74207Y-72018D02*
X74207Y-72146D01*
X74207Y-72146D02*
X74404Y-72146D01*
X74404Y-72018D02*
X74404Y-72146D01*
X74207Y-72018D02*
X74404Y-72018D01*
X74207Y-71654D02*
X74207Y-71782D01*
X74207Y-71782D02*
X74404Y-71782D01*
X74404Y-71654D02*
X74404Y-71782D01*
X74207Y-71654D02*
X74404Y-71654D01*
X74305Y-71968D02*
X74305Y-72027D01*
X74305Y-72027D02*
X74404Y-72027D01*
X74404Y-71968D02*
X74404Y-72027D01*
X74305Y-71968D02*
X74404Y-71968D01*
X74305Y-71773D02*
X74305Y-71832D01*
X74305Y-71832D02*
X74404Y-71832D01*
X74404Y-71773D02*
X74404Y-71832D01*
X74305Y-71773D02*
X74404Y-71773D01*
X74335Y-71822D02*
X74335Y-71978D01*
X74335Y-71978D02*
X74404Y-71978D01*
X74404Y-71822D02*
X74404Y-71978D01*
X74335Y-71822D02*
X74404Y-71822D01*
X74600Y-71861D02*
X74600Y-71939D01*
X74600Y-71939D02*
X74678Y-71939D01*
X74678Y-71861D02*
X74678Y-71939D01*
X74600Y-71861D02*
X74678Y-71861D01*
X74796Y-71664D02*
X74796Y-71782D01*
X74796Y-71782D02*
X74914Y-71782D01*
X74914Y-71664D02*
X74914Y-71782D01*
X74796Y-71664D02*
X74914Y-71664D01*
X74964Y-71654D02*
X74964Y-71743D01*
X74964Y-71743D02*
X74993Y-71743D01*
X74993Y-71654D02*
X74993Y-71743D01*
X74964Y-71654D02*
X74993Y-71654D01*
G54D15*
X74806Y-72126D02*
X74394Y-72126D01*
X74404Y-71674D02*
X74964Y-71674D01*
G54D16*
X74962Y-71723D02*
G75*
G03X74962Y-71723I-28J0D01*
G74*
G01*
G54D15*
X74993Y-71763D02*
G75*
G03X74993Y-72037I0J-137D01*
G74*
G01*
X74207Y-72037D02*
G75*
G03X74207Y-71763I0J137D01*
G74*
G01*
G54D17*
X80218Y-55932D02*
G75*
G03X80218Y-55932I-150J0D01*
G74*
G01*
X76468Y-59532D02*
X80468Y-59532D01*
X80468Y-59532D02*
X80468Y-55782D01*
X80468Y-55782D02*
X80218Y-55532D01*
X80218Y-55532D02*
X76468Y-55532D01*
X76468Y-55532D02*
X76468Y-59532D01*
G54D13*
X66106Y-44015D02*
X64925Y-44015D01*
X64925Y-44015D02*
X64925Y-43425D01*
X66106Y-43425D02*
X66106Y-44015D01*
X68074Y-43425D02*
X68074Y-44015D01*
X68074Y-44015D02*
X66893Y-44015D01*
X66893Y-44015D02*
X66893Y-43425D01*
X64531Y-46574D02*
X68468Y-46574D01*
X64531Y-43425D02*
X68468Y-43425D01*
X68468Y-43425D02*
X68468Y-46968D01*
X68468Y-46968D02*
X64531Y-46968D01*
X64531Y-46968D02*
X64531Y-45000D01*
X64531Y-45000D02*
X64531Y-43425D01*
X81157Y-60965D02*
X81157Y-62934D01*
X82142Y-60965D02*
X82142Y-62934D01*
X82516Y-62658D02*
X82752Y-62658D01*
X82752Y-62658D02*
X82752Y-62422D01*
X82752Y-62422D02*
X82516Y-62422D01*
X82516Y-62422D02*
X82516Y-62658D01*
X81531Y-62658D02*
X81768Y-62658D01*
X81768Y-62658D02*
X81768Y-62422D01*
X81768Y-62422D02*
X81531Y-62422D01*
X81531Y-62422D02*
X81531Y-62658D01*
X80547Y-62658D02*
X80783Y-62658D01*
X80783Y-62658D02*
X80783Y-62422D01*
X80783Y-62422D02*
X80547Y-62422D01*
X80547Y-62422D02*
X80547Y-62658D01*
X82516Y-61241D02*
X82752Y-61241D01*
X82752Y-61241D02*
X82752Y-61477D01*
X82752Y-61477D02*
X82516Y-61477D01*
X82516Y-61477D02*
X82516Y-61241D01*
X80547Y-61241D02*
X80783Y-61241D01*
X80783Y-61241D02*
X80783Y-61477D01*
X80783Y-61477D02*
X80547Y-61477D01*
X80547Y-61477D02*
X80547Y-61241D01*
X81531Y-61241D02*
X81768Y-61241D01*
X81768Y-61241D02*
X81768Y-61477D01*
X81768Y-61477D02*
X81531Y-61477D01*
X81531Y-61477D02*
X81531Y-61241D01*
X80173Y-61950D02*
X80173Y-60965D01*
X80173Y-60965D02*
X83126Y-60965D01*
X83126Y-60965D02*
X83126Y-62934D01*
X83126Y-62934D02*
X80173Y-62934D01*
X80173Y-62934D02*
X80173Y-61950D01*
X94584Y-65531D02*
X94584Y-64350D01*
X94584Y-64350D02*
X95174Y-64350D01*
X95174Y-65531D02*
X94584Y-65531D01*
X95174Y-67499D02*
X94584Y-67499D01*
X94584Y-67499D02*
X94584Y-66318D01*
X94584Y-66318D02*
X95174Y-66318D01*
X92025Y-63956D02*
X92025Y-67893D01*
X95174Y-63956D02*
X95174Y-67893D01*
X95174Y-67893D02*
X91631Y-67893D01*
X91631Y-67893D02*
X91631Y-63956D01*
X91631Y-63956D02*
X93600Y-63956D01*
X93600Y-63956D02*
X95174Y-63956D01*
X94584Y-58206D02*
X94584Y-57025D01*
X94584Y-57025D02*
X95174Y-57025D01*
X95174Y-58206D02*
X94584Y-58206D01*
X95174Y-60174D02*
X94584Y-60174D01*
X94584Y-60174D02*
X94584Y-58993D01*
X94584Y-58993D02*
X95174Y-58993D01*
X92025Y-56631D02*
X92025Y-60568D01*
X95174Y-56631D02*
X95174Y-60568D01*
X95174Y-60568D02*
X91631Y-60568D01*
X91631Y-60568D02*
X91631Y-56631D01*
X91631Y-56631D02*
X93600Y-56631D01*
X93600Y-56631D02*
X95174Y-56631D01*
X94584Y-51206D02*
X94584Y-50025D01*
X94584Y-50025D02*
X95174Y-50025D01*
X95174Y-51206D02*
X94584Y-51206D01*
X95174Y-53174D02*
X94584Y-53174D01*
X94584Y-53174D02*
X94584Y-51993D01*
X94584Y-51993D02*
X95174Y-51993D01*
X92025Y-49631D02*
X92025Y-53568D01*
X95174Y-49631D02*
X95174Y-53568D01*
X95174Y-53568D02*
X91631Y-53568D01*
X91631Y-53568D02*
X91631Y-49631D01*
X91631Y-49631D02*
X93600Y-49631D01*
X93600Y-49631D02*
X95174Y-49631D01*
X62065Y-49918D02*
X62065Y-51099D01*
X62065Y-51099D02*
X61475Y-51099D01*
X61475Y-49918D02*
X62065Y-49918D01*
X61475Y-47950D02*
X62065Y-47950D01*
X62065Y-47950D02*
X62065Y-49131D01*
X62065Y-49131D02*
X61475Y-49131D01*
X64624Y-51493D02*
X64624Y-47556D01*
X61475Y-51493D02*
X61475Y-47556D01*
X61475Y-47556D02*
X65018Y-47556D01*
X65018Y-47556D02*
X65018Y-51493D01*
X65018Y-51493D02*
X63050Y-51493D01*
X63050Y-51493D02*
X61475Y-51493D01*
X91534Y-44906D02*
X91534Y-43725D01*
X91534Y-43725D02*
X92124Y-43725D01*
X92124Y-44906D02*
X91534Y-44906D01*
X92124Y-46874D02*
X91534Y-46874D01*
X91534Y-46874D02*
X91534Y-45693D01*
X91534Y-45693D02*
X92124Y-45693D01*
X88975Y-43331D02*
X88975Y-47268D01*
X92124Y-43331D02*
X92124Y-47268D01*
X92124Y-47268D02*
X88581Y-47268D01*
X88581Y-47268D02*
X88581Y-43331D01*
X88581Y-43331D02*
X90550Y-43331D01*
X90550Y-43331D02*
X92124Y-43331D01*
X62215Y-57018D02*
X62215Y-58199D01*
X62215Y-58199D02*
X61625Y-58199D01*
X61625Y-57018D02*
X62215Y-57018D01*
X61625Y-55050D02*
X62215Y-55050D01*
X62215Y-55050D02*
X62215Y-56231D01*
X62215Y-56231D02*
X61625Y-56231D01*
X64774Y-58593D02*
X64774Y-54656D01*
X61625Y-58593D02*
X61625Y-54656D01*
X61625Y-54656D02*
X65168Y-54656D01*
X65168Y-54656D02*
X65168Y-58593D01*
X65168Y-58593D02*
X63200Y-58593D01*
X63200Y-58593D02*
X61625Y-58593D01*
X62165Y-64243D02*
X62165Y-65424D01*
X62165Y-65424D02*
X61575Y-65424D01*
X61575Y-64243D02*
X62165Y-64243D01*
X61575Y-62275D02*
X62165Y-62275D01*
X62165Y-62275D02*
X62165Y-63456D01*
X62165Y-63456D02*
X61575Y-63456D01*
X64724Y-65818D02*
X64724Y-61881D01*
X61575Y-65818D02*
X61575Y-61881D01*
X61575Y-61881D02*
X65118Y-61881D01*
X65118Y-61881D02*
X65118Y-65818D01*
X65118Y-65818D02*
X63150Y-65818D01*
X63150Y-65818D02*
X61575Y-65818D01*
X70993Y-73884D02*
X72174Y-73884D01*
X72174Y-73884D02*
X72174Y-74474D01*
X70993Y-74474D02*
X70993Y-73884D01*
X69025Y-74474D02*
X69025Y-73884D01*
X69025Y-73884D02*
X70206Y-73884D01*
X70206Y-73884D02*
X70206Y-74474D01*
X72568Y-71325D02*
X68631Y-71325D01*
X72568Y-74474D02*
X68631Y-74474D01*
X68631Y-74474D02*
X68631Y-70931D01*
X68631Y-70931D02*
X72568Y-70931D01*
X72568Y-70931D02*
X72568Y-72900D01*
X72568Y-72900D02*
X72568Y-74474D01*
G54D18*
X84000Y-63750D02*
G75*
G03X84000Y-63750I-50J0D01*
G74*
G01*
X83950Y-63300D02*
X83950Y-63700D01*
X83950Y-63700D02*
X83350Y-63700D01*
X83350Y-63700D02*
X83350Y-63300D01*
X83350Y-62900D02*
X83350Y-62500D01*
X83350Y-62500D02*
X83950Y-62500D01*
X83950Y-62500D02*
X83950Y-62900D01*
X83700Y-70400D02*
G75*
G03X83700Y-70400I-50J0D01*
G74*
G01*
X83650Y-69950D02*
X83650Y-70350D01*
X83650Y-70350D02*
X83050Y-70350D01*
X83050Y-70350D02*
X83050Y-69950D01*
X83050Y-69550D02*
X83050Y-69150D01*
X83050Y-69150D02*
X83650Y-69150D01*
X83650Y-69150D02*
X83650Y-69550D01*
X85300Y-63750D02*
G75*
G03X85300Y-63750I-50J0D01*
G74*
G01*
X85250Y-63300D02*
X85250Y-63700D01*
X85250Y-63700D02*
X84650Y-63700D01*
X84650Y-63700D02*
X84650Y-63300D01*
X84650Y-62900D02*
X84650Y-62500D01*
X84650Y-62500D02*
X85250Y-62500D01*
X85250Y-62500D02*
X85250Y-62900D01*
X82750Y-68550D02*
G75*
G03X82750Y-68550I-50J0D01*
G74*
G01*
X82250Y-68550D02*
X82650Y-68550D01*
X82650Y-68550D02*
X82650Y-69150D01*
X82650Y-69150D02*
X82250Y-69150D01*
X81850Y-69150D02*
X81450Y-69150D01*
X81450Y-69150D02*
X81450Y-68550D01*
X81450Y-68550D02*
X81850Y-68550D01*
X75550Y-42700D02*
G75*
G03X75550Y-42700I-50J0D01*
G74*
G01*
X75950Y-42700D02*
X75550Y-42700D01*
X75550Y-42700D02*
X75550Y-42100D01*
X75550Y-42100D02*
X75950Y-42100D01*
X76350Y-42100D02*
X76750Y-42100D01*
X76750Y-42100D02*
X76750Y-42700D01*
X76750Y-42700D02*
X76350Y-42700D01*
X82000Y-69275D02*
G75*
G03X82000Y-69275I-50J0D01*
G74*
G01*
X81500Y-69275D02*
X81900Y-69275D01*
X81900Y-69275D02*
X81900Y-69875D01*
X81900Y-69875D02*
X81500Y-69875D01*
X81100Y-69875D02*
X80700Y-69875D01*
X80700Y-69875D02*
X80700Y-69275D01*
X80700Y-69275D02*
X81100Y-69275D01*
X76850Y-43025D02*
G75*
G03X76850Y-43025I-50J0D01*
G74*
G01*
X76350Y-43025D02*
X76750Y-43025D01*
X76750Y-43025D02*
X76750Y-43625D01*
X76750Y-43625D02*
X76350Y-43625D01*
X75950Y-43625D02*
X75550Y-43625D01*
X75550Y-43625D02*
X75550Y-43025D01*
X75550Y-43025D02*
X75950Y-43025D01*
X76125Y-41800D02*
G75*
G03X76125Y-41800I-50J0D01*
G74*
G01*
X76525Y-41800D02*
X76125Y-41800D01*
X76125Y-41800D02*
X76125Y-41200D01*
X76125Y-41200D02*
X76525Y-41200D01*
X76925Y-41200D02*
X77325Y-41200D01*
X77325Y-41200D02*
X77325Y-41800D01*
X77325Y-41800D02*
X76925Y-41800D01*
X83625Y-67500D02*
G75*
G03X83625Y-67500I-50J0D01*
G74*
G01*
X83575Y-67050D02*
X83575Y-67450D01*
X83575Y-67450D02*
X82975Y-67450D01*
X82975Y-67450D02*
X82975Y-67050D01*
X82975Y-66650D02*
X82975Y-66250D01*
X82975Y-66250D02*
X83575Y-66250D01*
X83575Y-66250D02*
X83575Y-66650D01*
X73775Y-39250D02*
G75*
G03X73775Y-39250I-50J0D01*
G74*
G01*
X74175Y-39250D02*
X73775Y-39250D01*
X73775Y-39250D02*
X73775Y-38650D01*
X73775Y-38650D02*
X74175Y-38650D01*
X74575Y-38650D02*
X74975Y-38650D01*
X74975Y-38650D02*
X74975Y-39250D01*
X74975Y-39250D02*
X74575Y-39250D01*
X83125Y-64550D02*
G75*
G03X83125Y-64550I-50J0D01*
G74*
G01*
X82625Y-64550D02*
X83025Y-64550D01*
X83025Y-64550D02*
X83025Y-65150D01*
X83025Y-65150D02*
X82625Y-65150D01*
X82225Y-65150D02*
X81825Y-65150D01*
X81825Y-65150D02*
X81825Y-64550D01*
X81825Y-64550D02*
X82225Y-64550D01*
X82375Y-63825D02*
G75*
G03X82375Y-63825I-50J0D01*
G74*
G01*
X81875Y-63825D02*
X82275Y-63825D01*
X82275Y-63825D02*
X82275Y-64425D01*
X82275Y-64425D02*
X81875Y-64425D01*
X81475Y-64425D02*
X81075Y-64425D01*
X81075Y-64425D02*
X81075Y-63825D01*
X81075Y-63825D02*
X81475Y-63825D01*
X84750Y-47975D02*
G75*
G03X84750Y-47975I-50J0D01*
G74*
G01*
X84700Y-48425D02*
X84700Y-48025D01*
X84700Y-48025D02*
X85300Y-48025D01*
X85300Y-48025D02*
X85300Y-48425D01*
X85300Y-48825D02*
X85300Y-49225D01*
X85300Y-49225D02*
X84700Y-49225D01*
X84700Y-49225D02*
X84700Y-48825D01*
X86075Y-47000D02*
G75*
G03X86075Y-47000I-50J0D01*
G74*
G01*
X85575Y-47000D02*
X85975Y-47000D01*
X85975Y-47000D02*
X85975Y-47600D01*
X85975Y-47600D02*
X85575Y-47600D01*
X85175Y-47600D02*
X84775Y-47600D01*
X84775Y-47600D02*
X84775Y-47000D01*
X84775Y-47000D02*
X85175Y-47000D01*
X80250Y-63850D02*
G75*
G03X80250Y-63850I-50J0D01*
G74*
G01*
X80200Y-64300D02*
X80200Y-63900D01*
X80200Y-63900D02*
X80800Y-63900D01*
X80800Y-63900D02*
X80800Y-64300D01*
X80800Y-64700D02*
X80800Y-65100D01*
X80800Y-65100D02*
X80200Y-65100D01*
X80200Y-65100D02*
X80200Y-64700D01*
X79425Y-63850D02*
G75*
G03X79425Y-63850I-50J0D01*
G74*
G01*
X79375Y-64300D02*
X79375Y-63900D01*
X79375Y-63900D02*
X79975Y-63900D01*
X79975Y-63900D02*
X79975Y-64300D01*
X79975Y-64700D02*
X79975Y-65100D01*
X79975Y-65100D02*
X79375Y-65100D01*
X79375Y-65100D02*
X79375Y-64700D01*
X77350Y-49125D02*
G75*
G03X77350Y-49125I-50J0D01*
G74*
G01*
X76850Y-49125D02*
X77250Y-49125D01*
X77250Y-49125D02*
X77250Y-49725D01*
X77250Y-49725D02*
X76850Y-49725D01*
X76450Y-49725D02*
X76050Y-49725D01*
X76050Y-49725D02*
X76050Y-49125D01*
X76050Y-49125D02*
X76450Y-49125D01*
X77800Y-49725D02*
G75*
G03X77800Y-49725I-50J0D01*
G74*
G01*
X78200Y-49725D02*
X77800Y-49725D01*
X77800Y-49725D02*
X77800Y-49125D01*
X77800Y-49125D02*
X78200Y-49125D01*
X78600Y-49125D02*
X79000Y-49125D01*
X79000Y-49125D02*
X79000Y-49725D01*
X79000Y-49725D02*
X78600Y-49725D01*
X86575Y-43550D02*
G75*
G03X86575Y-43550I-50J0D01*
G74*
G01*
X86075Y-43550D02*
X86475Y-43550D01*
X86475Y-43550D02*
X86475Y-44150D01*
X86475Y-44150D02*
X86075Y-44150D01*
X85675Y-44150D02*
X85275Y-44150D01*
X85275Y-44150D02*
X85275Y-43550D01*
X85275Y-43550D02*
X85675Y-43550D01*
X86550Y-44325D02*
G75*
G03X86550Y-44325I-50J0D01*
G74*
G01*
X86050Y-44325D02*
X86450Y-44325D01*
X86450Y-44325D02*
X86450Y-44925D01*
X86450Y-44925D02*
X86050Y-44925D01*
X85650Y-44925D02*
X85250Y-44925D01*
X85250Y-44925D02*
X85250Y-44325D01*
X85250Y-44325D02*
X85650Y-44325D01*
X84050Y-62200D02*
G75*
G03X84050Y-62200I-50J0D01*
G74*
G01*
X84000Y-61750D02*
X84000Y-62150D01*
X84000Y-62150D02*
X83400Y-62150D01*
X83400Y-62150D02*
X83400Y-61750D01*
X83400Y-61350D02*
X83400Y-60950D01*
X83400Y-60950D02*
X84000Y-60950D01*
X84000Y-60950D02*
X84000Y-61350D01*
X70550Y-68850D02*
G75*
G03X70550Y-68850I-50J0D01*
G74*
G01*
X70500Y-69300D02*
X70500Y-68900D01*
X70500Y-68900D02*
X71100Y-68900D01*
X71100Y-68900D02*
X71100Y-69300D01*
X71100Y-69700D02*
X71100Y-70100D01*
X71100Y-70100D02*
X70500Y-70100D01*
X70500Y-70100D02*
X70500Y-69700D01*
X78225Y-69750D02*
G75*
G03X78225Y-69750I-50J0D01*
G74*
G01*
X78175Y-69300D02*
X78175Y-69700D01*
X78175Y-69700D02*
X77575Y-69700D01*
X77575Y-69700D02*
X77575Y-69300D01*
X77575Y-68900D02*
X77575Y-68500D01*
X77575Y-68500D02*
X78175Y-68500D01*
X78175Y-68500D02*
X78175Y-68900D01*
X79075Y-67250D02*
G75*
G03X79075Y-67250I-50J0D01*
G74*
G01*
X78575Y-67250D02*
X78975Y-67250D01*
X78975Y-67250D02*
X78975Y-67850D01*
X78975Y-67850D02*
X78575Y-67850D01*
X78175Y-67850D02*
X77775Y-67850D01*
X77775Y-67850D02*
X77775Y-67250D01*
X77775Y-67250D02*
X78175Y-67250D01*
X76650Y-38175D02*
G75*
G03X76650Y-38175I-50J0D01*
G74*
G01*
X76150Y-38175D02*
X76550Y-38175D01*
X76550Y-38175D02*
X76550Y-38775D01*
X76550Y-38775D02*
X76150Y-38775D01*
X75750Y-38775D02*
X75350Y-38775D01*
X75350Y-38775D02*
X75350Y-38175D01*
X75350Y-38175D02*
X75750Y-38175D01*
X76650Y-39050D02*
G75*
G03X76650Y-39050I-50J0D01*
G74*
G01*
X76150Y-39050D02*
X76550Y-39050D01*
X76550Y-39050D02*
X76550Y-39650D01*
X76550Y-39650D02*
X76150Y-39650D01*
X75750Y-39650D02*
X75350Y-39650D01*
X75350Y-39650D02*
X75350Y-39050D01*
X75350Y-39050D02*
X75750Y-39050D01*
G54D19*
X94999Y-63502D02*
X94999Y-61848D01*
X95118Y-63502D02*
X95118Y-61848D01*
X91732Y-63502D02*
X91732Y-61848D01*
X92639Y-61846D02*
X91739Y-61846D01*
X91739Y-63504D02*
X92639Y-63504D01*
X94212Y-63504D02*
X95112Y-63504D01*
X95111Y-61846D02*
X94211Y-61846D01*
X94974Y-56177D02*
X94974Y-54523D01*
X95093Y-56177D02*
X95093Y-54523D01*
X91707Y-56177D02*
X91707Y-54523D01*
X92614Y-54521D02*
X91714Y-54521D01*
X91714Y-56179D02*
X92614Y-56179D01*
X94187Y-56179D02*
X95087Y-56179D01*
X95086Y-54521D02*
X94186Y-54521D01*
G54D18*
X88575Y-68275D02*
G75*
G03X88575Y-68275I-50J0D01*
G74*
G01*
X88075Y-68275D02*
X88475Y-68275D01*
X88475Y-68275D02*
X88475Y-68875D01*
X88475Y-68875D02*
X88075Y-68875D01*
X87675Y-68875D02*
X87275Y-68875D01*
X87275Y-68875D02*
X87275Y-68275D01*
X87275Y-68275D02*
X87675Y-68275D01*
X87325Y-61550D02*
G75*
G03X87325Y-61550I-50J0D01*
G74*
G01*
X87725Y-61550D02*
X87325Y-61550D01*
X87325Y-61550D02*
X87325Y-60950D01*
X87325Y-60950D02*
X87725Y-60950D01*
X88125Y-60950D02*
X88525Y-60950D01*
X88525Y-60950D02*
X88525Y-61550D01*
X88525Y-61550D02*
X88125Y-61550D01*
G54D19*
X94874Y-49127D02*
X94874Y-47473D01*
X94993Y-49127D02*
X94993Y-47473D01*
X91607Y-49127D02*
X91607Y-47473D01*
X92514Y-47471D02*
X91614Y-47471D01*
X91614Y-49129D02*
X92514Y-49129D01*
X94087Y-49129D02*
X94987Y-49129D01*
X94986Y-47471D02*
X94086Y-47471D01*
X61975Y-51748D02*
X61975Y-53402D01*
X61857Y-51748D02*
X61857Y-53402D01*
X65243Y-51748D02*
X65243Y-53402D01*
X64336Y-53404D02*
X65236Y-53404D01*
X65236Y-51746D02*
X64336Y-51746D01*
X62763Y-51746D02*
X61863Y-51746D01*
X61864Y-53404D02*
X62764Y-53404D01*
G54D18*
X88675Y-53950D02*
G75*
G03X88675Y-53950I-50J0D01*
G74*
G01*
X88175Y-53950D02*
X88575Y-53950D01*
X88575Y-53950D02*
X88575Y-54550D01*
X88575Y-54550D02*
X88175Y-54550D01*
X87775Y-54550D02*
X87375Y-54550D01*
X87375Y-54550D02*
X87375Y-53950D01*
X87375Y-53950D02*
X87775Y-53950D01*
X68150Y-47800D02*
G75*
G03X68150Y-47800I-50J0D01*
G74*
G01*
X68550Y-47800D02*
X68150Y-47800D01*
X68150Y-47800D02*
X68150Y-47200D01*
X68150Y-47200D02*
X68550Y-47200D01*
X68950Y-47200D02*
X69350Y-47200D01*
X69350Y-47200D02*
X69350Y-47800D01*
X69350Y-47800D02*
X68950Y-47800D01*
G54D19*
X61975Y-58848D02*
X61975Y-60502D01*
X61857Y-58848D02*
X61857Y-60502D01*
X65243Y-58848D02*
X65243Y-60502D01*
X64336Y-60504D02*
X65236Y-60504D01*
X65236Y-58846D02*
X64336Y-58846D01*
X62763Y-58846D02*
X61863Y-58846D01*
X61864Y-60504D02*
X62764Y-60504D01*
X61800Y-66098D02*
X61800Y-67752D01*
X61682Y-66098D02*
X61682Y-67752D01*
X65068Y-66098D02*
X65068Y-67752D01*
X64161Y-67754D02*
X65061Y-67754D01*
X65061Y-66096D02*
X64161Y-66096D01*
X62588Y-66096D02*
X61688Y-66096D01*
X61689Y-67754D02*
X62589Y-67754D01*
G54D18*
X68000Y-54225D02*
G75*
G03X68000Y-54225I-50J0D01*
G74*
G01*
X68400Y-54225D02*
X68000Y-54225D01*
X68000Y-54225D02*
X68000Y-53625D01*
X68000Y-53625D02*
X68400Y-53625D01*
X68800Y-53625D02*
X69200Y-53625D01*
X69200Y-53625D02*
X69200Y-54225D01*
X69200Y-54225D02*
X68800Y-54225D01*
X67900Y-61500D02*
G75*
G03X67900Y-61500I-50J0D01*
G74*
G01*
X68300Y-61500D02*
X67900Y-61500D01*
X67900Y-61500D02*
X67900Y-60900D01*
X67900Y-60900D02*
X68300Y-60900D01*
X68700Y-60900D02*
X69100Y-60900D01*
X69100Y-60900D02*
X69100Y-61500D01*
X69100Y-61500D02*
X68700Y-61500D01*
X69500Y-68850D02*
G75*
G03X69500Y-68850I-50J0D01*
G74*
G01*
X69450Y-69300D02*
X69450Y-68900D01*
X69450Y-68900D02*
X70050Y-68900D01*
X70050Y-68900D02*
X70050Y-69300D01*
X70050Y-69700D02*
X70050Y-70100D01*
X70050Y-70100D02*
X69450Y-70100D01*
X69450Y-70100D02*
X69450Y-69700D01*
G54D13*
X78500Y-39725D02*
X78362Y-39862D01*
X78500Y-39725D02*
X78637Y-39862D01*
X78500Y-39725D02*
X78637Y-39587D01*
X78500Y-39725D02*
X78362Y-39587D01*
X78362Y-39587D02*
X78500Y-39725D01*
X78500Y-40177D02*
X78421Y-40256D01*
X78204Y-40177D02*
X78500Y-40177D01*
X78500Y-40177D02*
X78421Y-40099D01*
X78027Y-39725D02*
X77948Y-39803D01*
X78027Y-40177D02*
X78027Y-39725D01*
X78027Y-39725D02*
X78106Y-39803D01*
X78027Y-40177D02*
X78204Y-40177D01*
X77586Y-39213D02*
G75*
G03X77586Y-39213I-70J0D01*
G74*
G01*
X77712Y-38937D02*
X79287Y-38937D01*
X79287Y-38937D02*
X79287Y-40512D01*
X79287Y-40512D02*
X77712Y-40512D01*
X77712Y-40512D02*
X77712Y-38937D01*
X80750Y-67575D02*
X80750Y-67625D01*
X80750Y-67625D02*
X82850Y-67625D01*
X82850Y-66125D02*
X80750Y-66125D01*
X80750Y-66125D02*
X80750Y-67575D01*
X80750Y-66675D02*
X80950Y-66675D01*
X80950Y-66675D02*
X80950Y-67075D01*
X80950Y-67075D02*
X80750Y-67075D01*
X82850Y-66125D02*
X82850Y-67625D01*
X84814Y-44855D02*
X84814Y-39265D01*
X81035Y-39265D02*
X81035Y-44855D01*
X81507Y-39265D02*
X81507Y-41155D01*
X84342Y-39265D02*
X84342Y-41155D01*
X81507Y-41155D02*
X84342Y-41155D01*
X82925Y-44855D02*
X81035Y-44855D01*
X81035Y-39265D02*
X84814Y-39265D01*
X84814Y-44855D02*
X82925Y-44855D01*
X79675Y-70800D02*
X79675Y-70750D01*
X79675Y-70750D02*
X77575Y-70750D01*
X77575Y-72250D02*
X79675Y-72250D01*
X79675Y-72250D02*
X79675Y-70800D01*
X79675Y-71700D02*
X79475Y-71700D01*
X79475Y-71700D02*
X79475Y-71300D01*
X79475Y-71300D02*
X79675Y-71300D01*
X77575Y-72250D02*
X77575Y-70750D01*
X72300Y-68500D02*
X72250Y-68500D01*
X72250Y-68500D02*
X72250Y-70600D01*
X73750Y-70600D02*
X73750Y-68500D01*
X73750Y-68500D02*
X72300Y-68500D01*
X73200Y-68500D02*
X73200Y-68700D01*
X73200Y-68700D02*
X72800Y-68700D01*
X72800Y-68700D02*
X72800Y-68500D01*
X73750Y-70600D02*
X72250Y-70600D01*
G54D10*
X83125Y-54950D02*
X82975Y-54950D01*
X81825Y-54950D02*
X81975Y-54950D01*
X81825Y-58850D02*
X81975Y-58850D01*
X83125Y-58850D02*
X82975Y-58850D01*
X83475Y-59150D02*
X82975Y-59150D01*
X81475Y-59150D02*
X81975Y-59150D01*
X81475Y-54650D02*
X81975Y-54650D01*
X83475Y-54650D02*
X82975Y-54650D01*
X81825Y-54950D02*
X81575Y-55200D01*
X81575Y-55200D02*
X81575Y-58600D01*
X81575Y-58600D02*
X81825Y-58850D01*
X83125Y-58850D02*
X83375Y-58600D01*
X83375Y-58600D02*
X83375Y-55200D01*
X83375Y-55200D02*
X83125Y-54950D01*
X81475Y-59150D02*
X81475Y-54650D01*
X83475Y-54650D02*
X83475Y-59150D01*
G54D20*
X73525Y-50125D02*
X73525Y-52125D01*
X73525Y-52125D02*
X83556Y-52125D01*
X83556Y-52125D02*
X83556Y-50125D01*
X83556Y-50125D02*
X73525Y-50125D01*
G54D13*
X73975Y-40400D02*
X75225Y-40400D01*
X75225Y-40400D02*
X75225Y-39700D01*
X75225Y-39700D02*
X73975Y-39700D01*
X73975Y-42200D02*
X75225Y-42200D01*
X75225Y-42200D02*
X75225Y-41500D01*
X75225Y-41500D02*
X73975Y-41500D01*
X71575Y-39600D02*
X73975Y-39600D01*
X73975Y-39600D02*
X73975Y-42300D01*
X73975Y-42300D02*
X70875Y-42300D01*
X70825Y-42300D02*
X70825Y-39600D01*
X70875Y-39600D02*
X71575Y-39600D01*
X82125Y-46800D02*
X83375Y-46800D01*
X83375Y-46800D02*
X83375Y-46100D01*
X83375Y-46100D02*
X82125Y-46100D01*
X82125Y-48600D02*
X83375Y-48600D01*
X83375Y-48600D02*
X83375Y-47900D01*
X83375Y-47900D02*
X82125Y-47900D01*
X79725Y-46000D02*
X82125Y-46000D01*
X82125Y-46000D02*
X82125Y-48700D01*
X82125Y-48700D02*
X79025Y-48700D01*
X78975Y-48700D02*
X78975Y-46000D01*
X79025Y-46000D02*
X79725Y-46000D01*
G54D11*
X71775Y-45325D02*
X70775Y-45325D01*
X70775Y-44325D02*
X71775Y-44325D01*
X70775Y-45325D02*
X70775Y-44325D01*
X71775Y-44325D02*
X71775Y-45325D01*
X79950Y-66975D02*
X78950Y-66975D01*
X78950Y-65975D02*
X79950Y-65975D01*
X78950Y-66975D02*
X78950Y-65975D01*
X79950Y-65975D02*
X79950Y-66975D01*
X75325Y-68000D02*
X74325Y-68000D01*
X74325Y-67000D02*
X75325Y-67000D01*
X74325Y-68000D02*
X74325Y-67000D01*
X75325Y-67000D02*
X75325Y-68000D01*
X79950Y-63625D02*
X78950Y-63625D01*
X78950Y-62625D02*
X79950Y-62625D01*
X78950Y-63625D02*
X78950Y-62625D01*
X79950Y-62625D02*
X79950Y-63625D01*
X85175Y-46000D02*
X84175Y-46000D01*
X84175Y-45000D02*
X85175Y-45000D01*
X84175Y-46000D02*
X84175Y-45000D01*
X85175Y-45000D02*
X85175Y-46000D01*
X86250Y-43100D02*
X85250Y-43100D01*
X85250Y-42100D02*
X86250Y-42100D01*
X85250Y-43100D02*
X85250Y-42100D01*
X86250Y-42100D02*
X86250Y-43100D01*
X78400Y-62725D02*
X77400Y-62725D01*
X77400Y-61725D02*
X78400Y-61725D01*
X77400Y-62725D02*
X77400Y-61725D01*
X78400Y-61725D02*
X78400Y-62725D01*
X74000Y-63650D02*
X73000Y-63650D01*
X73000Y-62650D02*
X74000Y-62650D01*
X73000Y-63650D02*
X73000Y-62650D01*
X74000Y-62650D02*
X74000Y-63650D01*
X72250Y-67925D02*
X71250Y-67925D01*
X71250Y-66925D02*
X72250Y-66925D01*
X71250Y-67925D02*
X71250Y-66925D01*
X72250Y-66925D02*
X72250Y-67925D01*
X73575Y-67325D02*
X72575Y-67325D01*
X72575Y-66325D02*
X73575Y-66325D01*
X72575Y-67325D02*
X72575Y-66325D01*
X73575Y-66325D02*
X73575Y-67325D01*
X73750Y-72800D02*
X72750Y-72800D01*
X72750Y-71800D02*
X73750Y-71800D01*
X72750Y-72800D02*
X72750Y-71800D01*
X73750Y-71800D02*
X73750Y-72800D01*
X73750Y-71700D02*
X72750Y-71700D01*
X72750Y-70700D02*
X73750Y-70700D01*
X72750Y-71700D02*
X72750Y-70700D01*
X73750Y-70700D02*
X73750Y-71700D01*
X75550Y-64825D02*
X74550Y-64825D01*
X74550Y-63825D02*
X75550Y-63825D01*
X74550Y-64825D02*
X74550Y-63825D01*
X75550Y-63825D02*
X75550Y-64825D01*
X87650Y-70400D02*
X86650Y-70400D01*
X86650Y-69400D02*
X87650Y-69400D01*
X86650Y-70400D02*
X86650Y-69400D01*
X87650Y-69400D02*
X87650Y-70400D01*
X72600Y-53675D02*
X71600Y-53675D01*
X71600Y-52675D02*
X72600Y-52675D01*
X71600Y-53675D02*
X71600Y-52675D01*
X72600Y-52675D02*
X72600Y-53675D01*
X75475Y-55550D02*
X74475Y-55550D01*
X74475Y-54550D02*
X75475Y-54550D01*
X74475Y-55550D02*
X74475Y-54550D01*
X75475Y-54550D02*
X75475Y-55550D01*
X77400Y-69875D02*
X76400Y-69875D01*
X76400Y-68875D02*
X77400Y-68875D01*
X76400Y-69875D02*
X76400Y-68875D01*
X77400Y-68875D02*
X77400Y-69875D01*
X80550Y-69700D02*
X79550Y-69700D01*
X79550Y-68700D02*
X80550Y-68700D01*
X79550Y-69700D02*
X79550Y-68700D01*
X80550Y-68700D02*
X80550Y-69700D01*
X75200Y-49625D02*
X74200Y-49625D01*
X74200Y-48625D02*
X75200Y-48625D01*
X74200Y-49625D02*
X74200Y-48625D01*
X75200Y-48625D02*
X75200Y-49625D01*
X74275Y-53900D02*
X73275Y-53900D01*
X73275Y-52900D02*
X74275Y-52900D01*
X73275Y-53900D02*
X73275Y-52900D01*
X74275Y-52900D02*
X74275Y-53900D01*
G54D20*
X89100Y-42400D02*
G75*
G03X89100Y-42400I-900J0D01*
G74*
G01*
X69700Y-42400D02*
G75*
G03X69700Y-42400I-900J0D01*
G74*
G01*
X90300Y-70700D02*
G75*
G03X90300Y-70700I-900J0D01*
G74*
G01*
X68500Y-70700D02*
G75*
G03X68500Y-70700I-900J0D01*
G74*
G01*
G54D13*
X69900Y-45200D02*
X69900Y-45280D01*
X69150Y-45800D02*
X69150Y-44000D01*
X69150Y-44000D02*
X69400Y-44000D01*
X70650Y-44640D02*
X69150Y-44640D01*
X70650Y-44510D02*
X69150Y-44510D01*
X70400Y-45800D02*
X70650Y-45800D01*
X70650Y-45800D02*
X70650Y-44000D01*
X70650Y-44000D02*
X70400Y-44000D01*
X69400Y-45800D02*
X69150Y-45800D01*
X69900Y-44950D02*
X69713Y-45200D01*
X69713Y-45200D02*
X69900Y-45200D01*
X69900Y-45200D02*
X70087Y-45200D01*
X70087Y-45200D02*
X69900Y-44950D01*
X69900Y-44950D02*
X69775Y-44950D01*
X69775Y-44950D02*
X69713Y-45012D01*
X69900Y-44950D02*
X70025Y-44950D01*
X70025Y-44950D02*
X70087Y-44888D01*
X69900Y-44950D02*
X69900Y-44513D01*
X75072Y-76574D02*
X75072Y-75984D01*
X75072Y-75984D02*
X73890Y-75984D01*
X73890Y-75984D02*
X73890Y-76574D01*
X77040Y-76574D02*
X77040Y-75984D01*
X77040Y-75984D02*
X75859Y-75984D01*
X75859Y-75984D02*
X75859Y-76574D01*
X79009Y-76574D02*
X79009Y-75984D01*
X79009Y-75984D02*
X77827Y-75984D01*
X77827Y-75984D02*
X77827Y-76574D01*
X79402Y-73425D02*
X73497Y-73425D01*
X79402Y-75000D02*
X79402Y-76574D01*
X79402Y-76574D02*
X73497Y-76574D01*
X73497Y-76574D02*
X73497Y-73031D01*
X73497Y-73031D02*
X79402Y-73031D01*
X79402Y-73031D02*
X79402Y-75000D01*
X91700Y-61500D02*
X90800Y-61500D01*
X90800Y-61500D02*
X90800Y-61000D01*
X90800Y-61000D02*
X91700Y-61000D01*
X91700Y-61000D02*
X91700Y-61500D01*
X91550Y-56250D02*
X90650Y-56250D01*
X90650Y-56250D02*
X90650Y-55750D01*
X90650Y-55750D02*
X91550Y-55750D01*
X91550Y-55750D02*
X91550Y-56250D01*
X91500Y-49200D02*
X90600Y-49200D01*
X90600Y-49200D02*
X90600Y-48700D01*
X90600Y-48700D02*
X91500Y-48700D01*
X91500Y-48700D02*
X91500Y-49200D01*
X68100Y-51100D02*
X69000Y-51100D01*
X69000Y-51100D02*
X69000Y-51600D01*
X69000Y-51600D02*
X68100Y-51600D01*
X68100Y-51600D02*
X68100Y-51100D01*
X68150Y-67500D02*
X69050Y-67500D01*
X69050Y-67500D02*
X69050Y-68000D01*
X69050Y-68000D02*
X68150Y-68000D01*
X68150Y-68000D02*
X68150Y-67500D01*
X68100Y-58150D02*
X69000Y-58150D01*
X69000Y-58150D02*
X69000Y-58650D01*
X69000Y-58650D02*
X68100Y-58650D01*
X68100Y-58650D02*
X68100Y-58150D01*
X82293Y-74484D02*
X83474Y-74484D01*
X83474Y-74484D02*
X83474Y-75074D01*
X82293Y-75074D02*
X82293Y-74484D01*
X80325Y-75074D02*
X80325Y-74484D01*
X80325Y-74484D02*
X81506Y-74484D01*
X81506Y-74484D02*
X81506Y-75074D01*
X83868Y-71925D02*
X79931Y-71925D01*
X83868Y-75074D02*
X79931Y-75074D01*
X79931Y-75074D02*
X79931Y-71531D01*
X79931Y-71531D02*
X83868Y-71531D01*
X83868Y-71531D02*
X83868Y-73500D01*
X83868Y-73500D02*
X83868Y-75074D01*
X85050Y-65100D02*
X85000Y-65100D01*
X85000Y-65100D02*
X85000Y-67200D01*
X86500Y-67200D02*
X86500Y-65100D01*
X86500Y-65100D02*
X85050Y-65100D01*
X85950Y-65100D02*
X85950Y-65300D01*
X85950Y-65300D02*
X85550Y-65300D01*
X85550Y-65300D02*
X85550Y-65100D01*
X86500Y-67200D02*
X85000Y-67200D01*
G54D18*
X87400Y-70450D02*
G75*
G03X87400Y-70450I-50J0D01*
G74*
G01*
X86900Y-70450D02*
X87300Y-70450D01*
X87300Y-70450D02*
X87300Y-71050D01*
X87300Y-71050D02*
X86900Y-71050D01*
X86500Y-71050D02*
X86100Y-71050D01*
X86100Y-71050D02*
X86100Y-70450D01*
X86100Y-70450D02*
X86500Y-70450D01*
X83900Y-68850D02*
G75*
G03X83900Y-68850I-50J0D01*
G74*
G01*
X83850Y-69300D02*
X83850Y-68900D01*
X83850Y-68900D02*
X84450Y-68900D01*
X84450Y-68900D02*
X84450Y-69300D01*
X84450Y-69700D02*
X84450Y-70100D01*
X84450Y-70100D02*
X83850Y-70100D01*
X83850Y-70100D02*
X83850Y-69700D01*
X85000Y-67900D02*
G75*
G03X85000Y-67900I-50J0D01*
G74*
G01*
X84950Y-68350D02*
X84950Y-67950D01*
X84950Y-67950D02*
X85550Y-67950D01*
X85550Y-67950D02*
X85550Y-68350D01*
X85550Y-68750D02*
X85550Y-69150D01*
X85550Y-69150D02*
X84950Y-69150D01*
X84950Y-69150D02*
X84950Y-68750D01*
X84700Y-64950D02*
G75*
G03X84700Y-64950I-50J0D01*
G74*
G01*
X85100Y-64950D02*
X84700Y-64950D01*
X84700Y-64950D02*
X84700Y-64350D01*
X84700Y-64350D02*
X85100Y-64350D01*
X85500Y-64350D02*
X85900Y-64350D01*
X85900Y-64350D02*
X85900Y-64950D01*
X85900Y-64950D02*
X85500Y-64950D01*
X82700Y-71200D02*
G75*
G03X82700Y-71200I-50J0D01*
G74*
G01*
X83100Y-71200D02*
X82700Y-71200D01*
X82700Y-71200D02*
X82700Y-70600D01*
X82700Y-70600D02*
X83100Y-70600D01*
X83500Y-70600D02*
X83900Y-70600D01*
X83900Y-70600D02*
X83900Y-71200D01*
X83900Y-71200D02*
X83500Y-71200D01*
X81250Y-71350D02*
G75*
G03X81250Y-71350I-50J0D01*
G74*
G01*
X81650Y-71350D02*
X81250Y-71350D01*
X81250Y-71350D02*
X81250Y-70750D01*
X81250Y-70750D02*
X81650Y-70750D01*
X82050Y-70750D02*
X82450Y-70750D01*
X82450Y-70750D02*
X82450Y-71350D01*
X82450Y-71350D02*
X82050Y-71350D01*
X80350Y-70600D02*
G75*
G03X80350Y-70600I-50J0D01*
G74*
G01*
X80750Y-70600D02*
X80350Y-70600D01*
X80350Y-70600D02*
X80350Y-70000D01*
X80350Y-70000D02*
X80750Y-70000D01*
X81150Y-70000D02*
X81550Y-70000D01*
X81550Y-70000D02*
X81550Y-70600D01*
X81550Y-70600D02*
X81150Y-70600D01*
G54D13*
X85350Y-69800D02*
X85350Y-70700D01*
X85350Y-70700D02*
X84850Y-70700D01*
X84850Y-70700D02*
X84850Y-69800D01*
X84850Y-69800D02*
X85350Y-69800D01*
X86493Y-74134D02*
X87674Y-74134D01*
X87674Y-74134D02*
X87674Y-74724D01*
X86493Y-74724D02*
X86493Y-74134D01*
X84525Y-74724D02*
X84525Y-74134D01*
X84525Y-74134D02*
X85706Y-74134D01*
X85706Y-74134D02*
X85706Y-74724D01*
X88068Y-71575D02*
X84131Y-71575D01*
X88068Y-74724D02*
X84131Y-74724D01*
X84131Y-74724D02*
X84131Y-71181D01*
X84131Y-71181D02*
X88068Y-71181D01*
X88068Y-71181D02*
X88068Y-73150D01*
X88068Y-73150D02*
X88068Y-74724D01*
G54D21*
X78295Y-38471D02*
X78286Y-38480D01*
X78260Y-38490D01*
X78243Y-38490D01*
X78217Y-38480D01*
X78200Y-38461D01*
X78192Y-38442D01*
X78183Y-38404D01*
X78183Y-38376D01*
X78192Y-38338D01*
X78200Y-38319D01*
X78217Y-38300D01*
X78243Y-38290D01*
X78260Y-38290D01*
X78286Y-38300D01*
X78295Y-38309D01*
X78466Y-38490D02*
X78363Y-38490D01*
X78415Y-38490D02*
X78415Y-38290D01*
X78397Y-38319D01*
X78380Y-38338D01*
X78363Y-38347D01*
G54D22*
X77192Y-44445D02*
X77182Y-44454D01*
X77154Y-44464D01*
X77135Y-44464D01*
X77107Y-44454D01*
X77088Y-44435D01*
X77079Y-44417D01*
X77070Y-44379D01*
X77070Y-44351D01*
X77079Y-44314D01*
X77088Y-44295D01*
X77107Y-44276D01*
X77135Y-44267D01*
X77154Y-44267D01*
X77182Y-44276D01*
X77192Y-44285D01*
X77267Y-44285D02*
X77276Y-44276D01*
X77295Y-44267D01*
X77342Y-44267D01*
X77361Y-44276D01*
X77370Y-44285D01*
X77379Y-44304D01*
X77379Y-44323D01*
X77370Y-44351D01*
X77257Y-44464D01*
X77379Y-44464D01*
X74217Y-44470D02*
X74207Y-44479D01*
X74179Y-44489D01*
X74160Y-44489D01*
X74132Y-44479D01*
X74113Y-44460D01*
X74104Y-44442D01*
X74095Y-44404D01*
X74095Y-44376D01*
X74104Y-44339D01*
X74113Y-44320D01*
X74132Y-44301D01*
X74160Y-44292D01*
X74179Y-44292D01*
X74207Y-44301D01*
X74217Y-44310D01*
X74282Y-44292D02*
X74404Y-44292D01*
X74339Y-44367D01*
X74367Y-44367D01*
X74386Y-44376D01*
X74395Y-44385D01*
X74404Y-44404D01*
X74404Y-44451D01*
X74395Y-44470D01*
X74386Y-44479D01*
X74367Y-44489D01*
X74310Y-44489D01*
X74292Y-44479D01*
X74282Y-44470D01*
G54D21*
X76120Y-44121D02*
X76111Y-44130D01*
X76085Y-44140D01*
X76068Y-44140D01*
X76042Y-44130D01*
X76025Y-44111D01*
X76017Y-44092D01*
X76008Y-44054D01*
X76008Y-44026D01*
X76017Y-43988D01*
X76025Y-43969D01*
X76042Y-43950D01*
X76068Y-43940D01*
X76085Y-43940D01*
X76111Y-43950D01*
X76120Y-43959D01*
X76274Y-44007D02*
X76274Y-44140D01*
X76231Y-43930D02*
X76188Y-44073D01*
X76300Y-44073D01*
X76746Y-40305D02*
X76755Y-40313D01*
X76765Y-40339D01*
X76765Y-40356D01*
X76755Y-40382D01*
X76736Y-40399D01*
X76717Y-40407D01*
X76679Y-40416D01*
X76651Y-40416D01*
X76613Y-40407D01*
X76594Y-40399D01*
X76575Y-40382D01*
X76565Y-40356D01*
X76565Y-40339D01*
X76575Y-40313D01*
X76584Y-40305D01*
X76565Y-40142D02*
X76565Y-40227D01*
X76660Y-40236D01*
X76651Y-40227D01*
X76641Y-40210D01*
X76641Y-40167D01*
X76651Y-40150D01*
X76660Y-40142D01*
X76679Y-40133D01*
X76727Y-40133D01*
X76746Y-40142D01*
X76755Y-40150D01*
X76765Y-40167D01*
X76765Y-40210D01*
X76755Y-40227D01*
X76746Y-40236D01*
X78670Y-41471D02*
X78661Y-41480D01*
X78635Y-41490D01*
X78618Y-41490D01*
X78592Y-41480D01*
X78575Y-41461D01*
X78567Y-41442D01*
X78558Y-41404D01*
X78558Y-41376D01*
X78567Y-41338D01*
X78575Y-41319D01*
X78592Y-41300D01*
X78618Y-41290D01*
X78635Y-41290D01*
X78661Y-41300D01*
X78670Y-41309D01*
X78824Y-41290D02*
X78790Y-41290D01*
X78772Y-41300D01*
X78764Y-41309D01*
X78747Y-41338D01*
X78738Y-41376D01*
X78738Y-41452D01*
X78747Y-41471D01*
X78755Y-41480D01*
X78772Y-41490D01*
X78807Y-41490D01*
X78824Y-41480D01*
X78832Y-41471D01*
X78841Y-41452D01*
X78841Y-41404D01*
X78832Y-41385D01*
X78824Y-41376D01*
X78807Y-41366D01*
X78772Y-41366D01*
X78755Y-41376D01*
X78747Y-41385D01*
X78738Y-41404D01*
X75895Y-40771D02*
X75886Y-40780D01*
X75860Y-40790D01*
X75843Y-40790D01*
X75817Y-40780D01*
X75800Y-40761D01*
X75792Y-40742D01*
X75783Y-40704D01*
X75783Y-40676D01*
X75792Y-40638D01*
X75800Y-40619D01*
X75817Y-40600D01*
X75843Y-40590D01*
X75860Y-40590D01*
X75886Y-40600D01*
X75895Y-40609D01*
X75955Y-40590D02*
X76075Y-40590D01*
X75997Y-40790D01*
X80320Y-66121D02*
X80311Y-66130D01*
X80285Y-66140D01*
X80268Y-66140D01*
X80242Y-66130D01*
X80225Y-66111D01*
X80217Y-66092D01*
X80208Y-66054D01*
X80208Y-66026D01*
X80217Y-65988D01*
X80225Y-65969D01*
X80242Y-65950D01*
X80268Y-65940D01*
X80285Y-65940D01*
X80311Y-65950D01*
X80320Y-65959D01*
X80422Y-66026D02*
X80405Y-66016D01*
X80397Y-66007D01*
X80388Y-65988D01*
X80388Y-65978D01*
X80397Y-65959D01*
X80405Y-65950D01*
X80422Y-65940D01*
X80457Y-65940D01*
X80474Y-65950D01*
X80482Y-65959D01*
X80491Y-65978D01*
X80491Y-65988D01*
X80482Y-66007D01*
X80474Y-66016D01*
X80457Y-66026D01*
X80422Y-66026D01*
X80405Y-66035D01*
X80397Y-66045D01*
X80388Y-66064D01*
X80388Y-66102D01*
X80397Y-66121D01*
X80405Y-66130D01*
X80422Y-66140D01*
X80457Y-66140D01*
X80474Y-66130D01*
X80482Y-66121D01*
X80491Y-66102D01*
X80491Y-66064D01*
X80482Y-66045D01*
X80474Y-66035D01*
X80457Y-66026D01*
X79645Y-39421D02*
X79636Y-39430D01*
X79610Y-39440D01*
X79593Y-39440D01*
X79567Y-39430D01*
X79550Y-39411D01*
X79542Y-39392D01*
X79533Y-39354D01*
X79533Y-39326D01*
X79542Y-39288D01*
X79550Y-39269D01*
X79567Y-39250D01*
X79593Y-39240D01*
X79610Y-39240D01*
X79636Y-39250D01*
X79645Y-39259D01*
X79730Y-39440D02*
X79765Y-39440D01*
X79782Y-39430D01*
X79790Y-39421D01*
X79807Y-39392D01*
X79816Y-39354D01*
X79816Y-39278D01*
X79807Y-39259D01*
X79799Y-39250D01*
X79782Y-39240D01*
X79747Y-39240D01*
X79730Y-39250D01*
X79722Y-39259D01*
X79713Y-39278D01*
X79713Y-39326D01*
X79722Y-39345D01*
X79730Y-39354D01*
X79747Y-39364D01*
X79782Y-39364D01*
X79799Y-39354D01*
X79807Y-39345D01*
X79816Y-39326D01*
X82959Y-45096D02*
X82950Y-45105D01*
X82925Y-45115D01*
X82907Y-45115D01*
X82882Y-45105D01*
X82865Y-45086D01*
X82856Y-45067D01*
X82847Y-45029D01*
X82847Y-45001D01*
X82856Y-44963D01*
X82865Y-44944D01*
X82882Y-44925D01*
X82907Y-44915D01*
X82925Y-44915D01*
X82950Y-44925D01*
X82959Y-44934D01*
X83130Y-45115D02*
X83027Y-45115D01*
X83079Y-45115D02*
X83079Y-44915D01*
X83062Y-44944D01*
X83045Y-44963D01*
X83027Y-44972D01*
X83242Y-44915D02*
X83259Y-44915D01*
X83276Y-44925D01*
X83285Y-44934D01*
X83293Y-44953D01*
X83302Y-44991D01*
X83302Y-45039D01*
X83293Y-45077D01*
X83285Y-45096D01*
X83276Y-45105D01*
X83259Y-45115D01*
X83242Y-45115D01*
X83225Y-45105D01*
X83216Y-45096D01*
X83207Y-45077D01*
X83199Y-45039D01*
X83199Y-44991D01*
X83207Y-44953D01*
X83216Y-44934D01*
X83225Y-44925D01*
X83242Y-44915D01*
X77034Y-38746D02*
X77025Y-38755D01*
X77000Y-38765D01*
X76982Y-38765D01*
X76957Y-38755D01*
X76940Y-38736D01*
X76931Y-38717D01*
X76922Y-38679D01*
X76922Y-38651D01*
X76931Y-38613D01*
X76940Y-38594D01*
X76957Y-38575D01*
X76982Y-38565D01*
X77000Y-38565D01*
X77025Y-38575D01*
X77034Y-38584D01*
X77205Y-38765D02*
X77102Y-38765D01*
X77154Y-38765D02*
X77154Y-38565D01*
X77137Y-38594D01*
X77120Y-38613D01*
X77102Y-38622D01*
X77377Y-38765D02*
X77274Y-38765D01*
X77325Y-38765D02*
X77325Y-38565D01*
X77308Y-38594D01*
X77291Y-38613D01*
X77274Y-38622D01*
X71634Y-43246D02*
X71625Y-43255D01*
X71600Y-43265D01*
X71582Y-43265D01*
X71557Y-43255D01*
X71540Y-43236D01*
X71531Y-43217D01*
X71522Y-43179D01*
X71522Y-43151D01*
X71531Y-43113D01*
X71540Y-43094D01*
X71557Y-43075D01*
X71582Y-43065D01*
X71600Y-43065D01*
X71625Y-43075D01*
X71634Y-43084D01*
X71805Y-43265D02*
X71702Y-43265D01*
X71754Y-43265D02*
X71754Y-43065D01*
X71737Y-43094D01*
X71720Y-43113D01*
X71702Y-43122D01*
X71874Y-43084D02*
X71882Y-43075D01*
X71900Y-43065D01*
X71942Y-43065D01*
X71960Y-43075D01*
X71968Y-43084D01*
X71977Y-43103D01*
X71977Y-43122D01*
X71968Y-43151D01*
X71865Y-43265D01*
X71977Y-43265D01*
X80409Y-44871D02*
X80400Y-44880D01*
X80375Y-44890D01*
X80357Y-44890D01*
X80332Y-44880D01*
X80315Y-44861D01*
X80306Y-44842D01*
X80297Y-44804D01*
X80297Y-44776D01*
X80306Y-44738D01*
X80315Y-44719D01*
X80332Y-44700D01*
X80357Y-44690D01*
X80375Y-44690D01*
X80400Y-44700D01*
X80409Y-44709D01*
X80580Y-44890D02*
X80477Y-44890D01*
X80529Y-44890D02*
X80529Y-44690D01*
X80512Y-44719D01*
X80495Y-44738D01*
X80477Y-44747D01*
X80640Y-44690D02*
X80752Y-44690D01*
X80692Y-44766D01*
X80717Y-44766D01*
X80735Y-44776D01*
X80743Y-44785D01*
X80752Y-44804D01*
X80752Y-44852D01*
X80743Y-44871D01*
X80735Y-44880D01*
X80717Y-44890D01*
X80666Y-44890D01*
X80649Y-44880D01*
X80640Y-44871D01*
X78359Y-64521D02*
X78350Y-64530D01*
X78325Y-64540D01*
X78307Y-64540D01*
X78282Y-64530D01*
X78265Y-64511D01*
X78256Y-64492D01*
X78247Y-64454D01*
X78247Y-64426D01*
X78256Y-64388D01*
X78265Y-64369D01*
X78282Y-64350D01*
X78307Y-64340D01*
X78325Y-64340D01*
X78350Y-64350D01*
X78359Y-64359D01*
X78530Y-64540D02*
X78427Y-64540D01*
X78479Y-64540D02*
X78479Y-64340D01*
X78462Y-64369D01*
X78445Y-64388D01*
X78427Y-64397D01*
X78685Y-64407D02*
X78685Y-64540D01*
X78642Y-64330D02*
X78599Y-64473D01*
X78710Y-64473D01*
X80259Y-40471D02*
X80250Y-40480D01*
X80225Y-40490D01*
X80207Y-40490D01*
X80182Y-40480D01*
X80165Y-40461D01*
X80156Y-40442D01*
X80147Y-40404D01*
X80147Y-40376D01*
X80156Y-40338D01*
X80165Y-40319D01*
X80182Y-40300D01*
X80207Y-40290D01*
X80225Y-40290D01*
X80250Y-40300D01*
X80259Y-40309D01*
X80430Y-40490D02*
X80327Y-40490D01*
X80379Y-40490D02*
X80379Y-40290D01*
X80362Y-40319D01*
X80345Y-40338D01*
X80327Y-40347D01*
X80593Y-40290D02*
X80507Y-40290D01*
X80499Y-40385D01*
X80507Y-40376D01*
X80525Y-40366D01*
X80567Y-40366D01*
X80585Y-40376D01*
X80593Y-40385D01*
X80602Y-40404D01*
X80602Y-40452D01*
X80593Y-40471D01*
X80585Y-40480D01*
X80567Y-40490D01*
X80525Y-40490D01*
X80507Y-40480D01*
X80499Y-40471D01*
X79909Y-70846D02*
X79900Y-70855D01*
X79875Y-70865D01*
X79857Y-70865D01*
X79832Y-70855D01*
X79815Y-70836D01*
X79806Y-70817D01*
X79797Y-70779D01*
X79797Y-70751D01*
X79806Y-70713D01*
X79815Y-70694D01*
X79832Y-70675D01*
X79857Y-70665D01*
X79875Y-70665D01*
X79900Y-70675D01*
X79909Y-70684D01*
X80080Y-70865D02*
X79977Y-70865D01*
X80029Y-70865D02*
X80029Y-70665D01*
X80012Y-70694D01*
X79995Y-70713D01*
X79977Y-70722D01*
X80235Y-70665D02*
X80200Y-70665D01*
X80183Y-70675D01*
X80175Y-70684D01*
X80157Y-70713D01*
X80149Y-70751D01*
X80149Y-70827D01*
X80157Y-70846D01*
X80166Y-70855D01*
X80183Y-70865D01*
X80217Y-70865D01*
X80235Y-70855D01*
X80243Y-70846D01*
X80252Y-70827D01*
X80252Y-70779D01*
X80243Y-70760D01*
X80235Y-70751D01*
X80217Y-70741D01*
X80183Y-70741D01*
X80166Y-70751D01*
X80157Y-70760D01*
X80149Y-70779D01*
X83984Y-58246D02*
X83975Y-58255D01*
X83950Y-58265D01*
X83932Y-58265D01*
X83907Y-58255D01*
X83890Y-58236D01*
X83881Y-58217D01*
X83872Y-58179D01*
X83872Y-58151D01*
X83881Y-58113D01*
X83890Y-58094D01*
X83907Y-58075D01*
X83932Y-58065D01*
X83950Y-58065D01*
X83975Y-58075D01*
X83984Y-58084D01*
X84155Y-58265D02*
X84052Y-58265D01*
X84104Y-58265D02*
X84104Y-58065D01*
X84087Y-58094D01*
X84070Y-58113D01*
X84052Y-58122D01*
X84215Y-58065D02*
X84335Y-58065D01*
X84258Y-58265D01*
X83934Y-54521D02*
X83925Y-54530D01*
X83900Y-54540D01*
X83882Y-54540D01*
X83857Y-54530D01*
X83840Y-54511D01*
X83831Y-54492D01*
X83822Y-54454D01*
X83822Y-54426D01*
X83831Y-54388D01*
X83840Y-54369D01*
X83857Y-54350D01*
X83882Y-54340D01*
X83900Y-54340D01*
X83925Y-54350D01*
X83934Y-54359D01*
X84105Y-54540D02*
X84002Y-54540D01*
X84054Y-54540D02*
X84054Y-54340D01*
X84037Y-54369D01*
X84020Y-54388D01*
X84002Y-54397D01*
X84208Y-54426D02*
X84191Y-54416D01*
X84182Y-54407D01*
X84174Y-54388D01*
X84174Y-54378D01*
X84182Y-54359D01*
X84191Y-54350D01*
X84208Y-54340D01*
X84242Y-54340D01*
X84260Y-54350D01*
X84268Y-54359D01*
X84277Y-54378D01*
X84277Y-54388D01*
X84268Y-54407D01*
X84260Y-54416D01*
X84242Y-54426D01*
X84208Y-54426D01*
X84191Y-54435D01*
X84182Y-54445D01*
X84174Y-54464D01*
X84174Y-54502D01*
X84182Y-54521D01*
X84191Y-54530D01*
X84208Y-54540D01*
X84242Y-54540D01*
X84260Y-54530D01*
X84268Y-54521D01*
X84277Y-54502D01*
X84277Y-54464D01*
X84268Y-54445D01*
X84260Y-54435D01*
X84242Y-54426D01*
X73734Y-67646D02*
X73725Y-67655D01*
X73700Y-67665D01*
X73682Y-67665D01*
X73657Y-67655D01*
X73640Y-67636D01*
X73631Y-67617D01*
X73622Y-67579D01*
X73622Y-67551D01*
X73631Y-67513D01*
X73640Y-67494D01*
X73657Y-67475D01*
X73682Y-67465D01*
X73700Y-67465D01*
X73725Y-67475D01*
X73734Y-67484D01*
X73905Y-67665D02*
X73802Y-67665D01*
X73854Y-67665D02*
X73854Y-67465D01*
X73837Y-67494D01*
X73820Y-67513D01*
X73802Y-67522D01*
X73991Y-67665D02*
X74025Y-67665D01*
X74042Y-67655D01*
X74051Y-67646D01*
X74068Y-67617D01*
X74077Y-67579D01*
X74077Y-67503D01*
X74068Y-67484D01*
X74060Y-67475D01*
X74042Y-67465D01*
X74008Y-67465D01*
X73991Y-67475D01*
X73982Y-67484D01*
X73974Y-67503D01*
X73974Y-67551D01*
X73982Y-67570D01*
X73991Y-67579D01*
X74008Y-67589D01*
X74042Y-67589D01*
X74060Y-67579D01*
X74068Y-67570D01*
X74077Y-67551D01*
X86309Y-62721D02*
X86300Y-62730D01*
X86275Y-62740D01*
X86257Y-62740D01*
X86232Y-62730D01*
X86215Y-62711D01*
X86206Y-62692D01*
X86197Y-62654D01*
X86197Y-62626D01*
X86206Y-62588D01*
X86215Y-62569D01*
X86232Y-62550D01*
X86257Y-62540D01*
X86275Y-62540D01*
X86300Y-62550D01*
X86309Y-62559D01*
X86369Y-62540D02*
X86480Y-62540D01*
X86420Y-62616D01*
X86446Y-62616D01*
X86463Y-62626D01*
X86472Y-62635D01*
X86480Y-62654D01*
X86480Y-62702D01*
X86472Y-62721D01*
X86463Y-62730D01*
X86446Y-62740D01*
X86395Y-62740D01*
X86377Y-62730D01*
X86369Y-62721D01*
X86549Y-62559D02*
X86557Y-62550D01*
X86575Y-62540D01*
X86617Y-62540D01*
X86635Y-62550D01*
X86643Y-62559D01*
X86652Y-62578D01*
X86652Y-62597D01*
X86643Y-62626D01*
X86540Y-62740D01*
X86652Y-62740D01*
X89909Y-61821D02*
X89900Y-61830D01*
X89875Y-61840D01*
X89857Y-61840D01*
X89832Y-61830D01*
X89815Y-61811D01*
X89806Y-61792D01*
X89797Y-61754D01*
X89797Y-61726D01*
X89806Y-61688D01*
X89815Y-61669D01*
X89832Y-61650D01*
X89857Y-61640D01*
X89875Y-61640D01*
X89900Y-61650D01*
X89909Y-61659D01*
X89969Y-61640D02*
X90080Y-61640D01*
X90020Y-61716D01*
X90046Y-61716D01*
X90063Y-61726D01*
X90072Y-61735D01*
X90080Y-61754D01*
X90080Y-61802D01*
X90072Y-61821D01*
X90063Y-61830D01*
X90046Y-61840D01*
X89995Y-61840D01*
X89977Y-61830D01*
X89969Y-61821D01*
X90140Y-61640D02*
X90252Y-61640D01*
X90192Y-61716D01*
X90217Y-61716D01*
X90235Y-61726D01*
X90243Y-61735D01*
X90252Y-61754D01*
X90252Y-61802D01*
X90243Y-61821D01*
X90235Y-61830D01*
X90217Y-61840D01*
X90166Y-61840D01*
X90149Y-61830D01*
X90140Y-61821D01*
X87984Y-62821D02*
X87975Y-62830D01*
X87950Y-62840D01*
X87932Y-62840D01*
X87907Y-62830D01*
X87890Y-62811D01*
X87881Y-62792D01*
X87872Y-62754D01*
X87872Y-62726D01*
X87881Y-62688D01*
X87890Y-62669D01*
X87907Y-62650D01*
X87932Y-62640D01*
X87950Y-62640D01*
X87975Y-62650D01*
X87984Y-62659D01*
X88044Y-62640D02*
X88155Y-62640D01*
X88095Y-62716D01*
X88121Y-62716D01*
X88138Y-62726D01*
X88147Y-62735D01*
X88155Y-62754D01*
X88155Y-62802D01*
X88147Y-62821D01*
X88138Y-62830D01*
X88121Y-62840D01*
X88070Y-62840D01*
X88052Y-62830D01*
X88044Y-62821D01*
X88310Y-62707D02*
X88310Y-62840D01*
X88267Y-62630D02*
X88224Y-62773D01*
X88335Y-62773D01*
X88034Y-55471D02*
X88025Y-55480D01*
X88000Y-55490D01*
X87982Y-55490D01*
X87957Y-55480D01*
X87940Y-55461D01*
X87931Y-55442D01*
X87922Y-55404D01*
X87922Y-55376D01*
X87931Y-55338D01*
X87940Y-55319D01*
X87957Y-55300D01*
X87982Y-55290D01*
X88000Y-55290D01*
X88025Y-55300D01*
X88034Y-55309D01*
X88094Y-55290D02*
X88205Y-55290D01*
X88145Y-55366D01*
X88171Y-55366D01*
X88188Y-55376D01*
X88197Y-55385D01*
X88205Y-55404D01*
X88205Y-55452D01*
X88197Y-55471D01*
X88188Y-55480D01*
X88171Y-55490D01*
X88120Y-55490D01*
X88102Y-55480D01*
X88094Y-55471D01*
X88368Y-55290D02*
X88282Y-55290D01*
X88274Y-55385D01*
X88282Y-55376D01*
X88300Y-55366D01*
X88342Y-55366D01*
X88360Y-55376D01*
X88368Y-55385D01*
X88377Y-55404D01*
X88377Y-55452D01*
X88368Y-55471D01*
X88360Y-55480D01*
X88342Y-55490D01*
X88300Y-55490D01*
X88282Y-55480D01*
X88274Y-55471D01*
X86509Y-69196D02*
X86500Y-69205D01*
X86475Y-69215D01*
X86457Y-69215D01*
X86432Y-69205D01*
X86415Y-69186D01*
X86406Y-69167D01*
X86397Y-69129D01*
X86397Y-69101D01*
X86406Y-69063D01*
X86415Y-69044D01*
X86432Y-69025D01*
X86457Y-69015D01*
X86475Y-69015D01*
X86500Y-69025D01*
X86509Y-69034D01*
X86569Y-69015D02*
X86680Y-69015D01*
X86620Y-69091D01*
X86646Y-69091D01*
X86663Y-69101D01*
X86672Y-69110D01*
X86680Y-69129D01*
X86680Y-69177D01*
X86672Y-69196D01*
X86663Y-69205D01*
X86646Y-69215D01*
X86595Y-69215D01*
X86577Y-69205D01*
X86569Y-69196D01*
X86835Y-69015D02*
X86800Y-69015D01*
X86783Y-69025D01*
X86775Y-69034D01*
X86757Y-69063D01*
X86749Y-69101D01*
X86749Y-69177D01*
X86757Y-69196D01*
X86766Y-69205D01*
X86783Y-69215D01*
X86817Y-69215D01*
X86835Y-69205D01*
X86843Y-69196D01*
X86852Y-69177D01*
X86852Y-69129D01*
X86843Y-69110D01*
X86835Y-69101D01*
X86817Y-69091D01*
X86783Y-69091D01*
X86766Y-69101D01*
X86757Y-69110D01*
X86749Y-69129D01*
X85609Y-61871D02*
X85600Y-61880D01*
X85575Y-61890D01*
X85557Y-61890D01*
X85532Y-61880D01*
X85515Y-61861D01*
X85506Y-61842D01*
X85497Y-61804D01*
X85497Y-61776D01*
X85506Y-61738D01*
X85515Y-61719D01*
X85532Y-61700D01*
X85557Y-61690D01*
X85575Y-61690D01*
X85600Y-61700D01*
X85609Y-61709D01*
X85669Y-61690D02*
X85780Y-61690D01*
X85720Y-61766D01*
X85746Y-61766D01*
X85763Y-61776D01*
X85772Y-61785D01*
X85780Y-61804D01*
X85780Y-61852D01*
X85772Y-61871D01*
X85763Y-61880D01*
X85746Y-61890D01*
X85695Y-61890D01*
X85677Y-61880D01*
X85669Y-61871D01*
X85840Y-61690D02*
X85960Y-61690D01*
X85883Y-61890D01*
X89934Y-53571D02*
X89925Y-53580D01*
X89900Y-53590D01*
X89882Y-53590D01*
X89857Y-53580D01*
X89840Y-53561D01*
X89831Y-53542D01*
X89822Y-53504D01*
X89822Y-53476D01*
X89831Y-53438D01*
X89840Y-53419D01*
X89857Y-53400D01*
X89882Y-53390D01*
X89900Y-53390D01*
X89925Y-53400D01*
X89934Y-53409D01*
X89994Y-53390D02*
X90105Y-53390D01*
X90045Y-53466D01*
X90071Y-53466D01*
X90088Y-53476D01*
X90097Y-53485D01*
X90105Y-53504D01*
X90105Y-53552D01*
X90097Y-53571D01*
X90088Y-53580D01*
X90071Y-53590D01*
X90020Y-53590D01*
X90002Y-53580D01*
X89994Y-53571D01*
X90208Y-53476D02*
X90191Y-53466D01*
X90182Y-53457D01*
X90174Y-53438D01*
X90174Y-53428D01*
X90182Y-53409D01*
X90191Y-53400D01*
X90208Y-53390D01*
X90242Y-53390D01*
X90260Y-53400D01*
X90268Y-53409D01*
X90277Y-53428D01*
X90277Y-53438D01*
X90268Y-53457D01*
X90260Y-53466D01*
X90242Y-53476D01*
X90208Y-53476D01*
X90191Y-53485D01*
X90182Y-53495D01*
X90174Y-53514D01*
X90174Y-53552D01*
X90182Y-53571D01*
X90191Y-53580D01*
X90208Y-53590D01*
X90242Y-53590D01*
X90260Y-53580D01*
X90268Y-53571D01*
X90277Y-53552D01*
X90277Y-53514D01*
X90268Y-53495D01*
X90260Y-53485D01*
X90242Y-53476D01*
X70184Y-52721D02*
X70175Y-52730D01*
X70150Y-52740D01*
X70132Y-52740D01*
X70107Y-52730D01*
X70090Y-52711D01*
X70081Y-52692D01*
X70072Y-52654D01*
X70072Y-52626D01*
X70081Y-52588D01*
X70090Y-52569D01*
X70107Y-52550D01*
X70132Y-52540D01*
X70150Y-52540D01*
X70175Y-52550D01*
X70184Y-52559D01*
X70244Y-52540D02*
X70355Y-52540D01*
X70295Y-52616D01*
X70321Y-52616D01*
X70338Y-52626D01*
X70347Y-52635D01*
X70355Y-52654D01*
X70355Y-52702D01*
X70347Y-52721D01*
X70338Y-52730D01*
X70321Y-52740D01*
X70270Y-52740D01*
X70252Y-52730D01*
X70244Y-52721D01*
X70441Y-52740D02*
X70475Y-52740D01*
X70492Y-52730D01*
X70501Y-52721D01*
X70518Y-52692D01*
X70527Y-52654D01*
X70527Y-52578D01*
X70518Y-52559D01*
X70510Y-52550D01*
X70492Y-52540D01*
X70458Y-52540D01*
X70441Y-52550D01*
X70432Y-52559D01*
X70424Y-52578D01*
X70424Y-52626D01*
X70432Y-52645D01*
X70441Y-52654D01*
X70458Y-52664D01*
X70492Y-52664D01*
X70510Y-52654D01*
X70518Y-52645D01*
X70527Y-52626D01*
X88034Y-48371D02*
X88025Y-48380D01*
X88000Y-48390D01*
X87982Y-48390D01*
X87957Y-48380D01*
X87940Y-48361D01*
X87931Y-48342D01*
X87922Y-48304D01*
X87922Y-48276D01*
X87931Y-48238D01*
X87940Y-48219D01*
X87957Y-48200D01*
X87982Y-48190D01*
X88000Y-48190D01*
X88025Y-48200D01*
X88034Y-48209D01*
X88188Y-48257D02*
X88188Y-48390D01*
X88145Y-48180D02*
X88102Y-48323D01*
X88214Y-48323D01*
X88317Y-48190D02*
X88334Y-48190D01*
X88351Y-48200D01*
X88360Y-48209D01*
X88368Y-48228D01*
X88377Y-48266D01*
X88377Y-48314D01*
X88368Y-48352D01*
X88360Y-48371D01*
X88351Y-48380D01*
X88334Y-48390D01*
X88317Y-48390D01*
X88300Y-48380D01*
X88291Y-48371D01*
X88282Y-48352D01*
X88274Y-48314D01*
X88274Y-48266D01*
X88282Y-48228D01*
X88291Y-48209D01*
X88300Y-48200D01*
X88317Y-48190D01*
X68434Y-52696D02*
X68425Y-52705D01*
X68400Y-52715D01*
X68382Y-52715D01*
X68357Y-52705D01*
X68340Y-52686D01*
X68331Y-52667D01*
X68322Y-52629D01*
X68322Y-52601D01*
X68331Y-52563D01*
X68340Y-52544D01*
X68357Y-52525D01*
X68382Y-52515D01*
X68400Y-52515D01*
X68425Y-52525D01*
X68434Y-52534D01*
X68588Y-52582D02*
X68588Y-52715D01*
X68545Y-52505D02*
X68502Y-52648D01*
X68614Y-52648D01*
X68777Y-52715D02*
X68674Y-52715D01*
X68725Y-52715D02*
X68725Y-52515D01*
X68708Y-52544D01*
X68691Y-52563D01*
X68674Y-52572D01*
X86159Y-54921D02*
X86150Y-54930D01*
X86125Y-54940D01*
X86107Y-54940D01*
X86082Y-54930D01*
X86065Y-54911D01*
X86056Y-54892D01*
X86047Y-54854D01*
X86047Y-54826D01*
X86056Y-54788D01*
X86065Y-54769D01*
X86082Y-54750D01*
X86107Y-54740D01*
X86125Y-54740D01*
X86150Y-54750D01*
X86159Y-54759D01*
X86313Y-54807D02*
X86313Y-54940D01*
X86270Y-54730D02*
X86227Y-54873D01*
X86339Y-54873D01*
X86399Y-54759D02*
X86407Y-54750D01*
X86425Y-54740D01*
X86467Y-54740D01*
X86485Y-54750D01*
X86493Y-54759D01*
X86502Y-54778D01*
X86502Y-54797D01*
X86493Y-54826D01*
X86390Y-54940D01*
X86502Y-54940D01*
X70409Y-46446D02*
X70400Y-46455D01*
X70375Y-46465D01*
X70357Y-46465D01*
X70332Y-46455D01*
X70315Y-46436D01*
X70306Y-46417D01*
X70297Y-46379D01*
X70297Y-46351D01*
X70306Y-46313D01*
X70315Y-46294D01*
X70332Y-46275D01*
X70357Y-46265D01*
X70375Y-46265D01*
X70400Y-46275D01*
X70409Y-46284D01*
X70563Y-46332D02*
X70563Y-46465D01*
X70520Y-46255D02*
X70477Y-46398D01*
X70589Y-46398D01*
X70640Y-46265D02*
X70752Y-46265D01*
X70692Y-46341D01*
X70717Y-46341D01*
X70735Y-46351D01*
X70743Y-46360D01*
X70752Y-46379D01*
X70752Y-46427D01*
X70743Y-46446D01*
X70735Y-46455D01*
X70717Y-46465D01*
X70666Y-46465D01*
X70649Y-46455D01*
X70640Y-46446D01*
X70109Y-59771D02*
X70100Y-59780D01*
X70075Y-59790D01*
X70057Y-59790D01*
X70032Y-59780D01*
X70015Y-59761D01*
X70006Y-59742D01*
X69997Y-59704D01*
X69997Y-59676D01*
X70006Y-59638D01*
X70015Y-59619D01*
X70032Y-59600D01*
X70057Y-59590D01*
X70075Y-59590D01*
X70100Y-59600D01*
X70109Y-59609D01*
X70263Y-59657D02*
X70263Y-59790D01*
X70220Y-59580D02*
X70177Y-59723D01*
X70289Y-59723D01*
X70435Y-59657D02*
X70435Y-59790D01*
X70392Y-59580D02*
X70349Y-59723D01*
X70460Y-59723D01*
X70084Y-67096D02*
X70075Y-67105D01*
X70050Y-67115D01*
X70032Y-67115D01*
X70007Y-67105D01*
X69990Y-67086D01*
X69981Y-67067D01*
X69972Y-67029D01*
X69972Y-67001D01*
X69981Y-66963D01*
X69990Y-66944D01*
X70007Y-66925D01*
X70032Y-66915D01*
X70050Y-66915D01*
X70075Y-66925D01*
X70084Y-66934D01*
X70238Y-66982D02*
X70238Y-67115D01*
X70195Y-66905D02*
X70152Y-67048D01*
X70264Y-67048D01*
X70418Y-66915D02*
X70332Y-66915D01*
X70324Y-67010D01*
X70332Y-67001D01*
X70350Y-66991D01*
X70392Y-66991D01*
X70410Y-67001D01*
X70418Y-67010D01*
X70427Y-67029D01*
X70427Y-67077D01*
X70418Y-67096D01*
X70410Y-67105D01*
X70392Y-67115D01*
X70350Y-67115D01*
X70332Y-67105D01*
X70324Y-67096D01*
X68434Y-59796D02*
X68425Y-59805D01*
X68400Y-59815D01*
X68382Y-59815D01*
X68357Y-59805D01*
X68340Y-59786D01*
X68331Y-59767D01*
X68322Y-59729D01*
X68322Y-59701D01*
X68331Y-59663D01*
X68340Y-59644D01*
X68357Y-59625D01*
X68382Y-59615D01*
X68400Y-59615D01*
X68425Y-59625D01*
X68434Y-59634D01*
X68588Y-59682D02*
X68588Y-59815D01*
X68545Y-59605D02*
X68502Y-59748D01*
X68614Y-59748D01*
X68760Y-59615D02*
X68725Y-59615D01*
X68708Y-59625D01*
X68700Y-59634D01*
X68682Y-59663D01*
X68674Y-59701D01*
X68674Y-59777D01*
X68682Y-59796D01*
X68691Y-59805D01*
X68708Y-59815D01*
X68742Y-59815D01*
X68760Y-59805D01*
X68768Y-59796D01*
X68777Y-59777D01*
X68777Y-59729D01*
X68768Y-59710D01*
X68760Y-59701D01*
X68742Y-59691D01*
X68708Y-59691D01*
X68691Y-59701D01*
X68682Y-59710D01*
X68674Y-59729D01*
X68434Y-67046D02*
X68425Y-67055D01*
X68400Y-67065D01*
X68382Y-67065D01*
X68357Y-67055D01*
X68340Y-67036D01*
X68331Y-67017D01*
X68322Y-66979D01*
X68322Y-66951D01*
X68331Y-66913D01*
X68340Y-66894D01*
X68357Y-66875D01*
X68382Y-66865D01*
X68400Y-66865D01*
X68425Y-66875D01*
X68434Y-66884D01*
X68588Y-66932D02*
X68588Y-67065D01*
X68545Y-66855D02*
X68502Y-66998D01*
X68614Y-66998D01*
X68665Y-66865D02*
X68785Y-66865D01*
X68708Y-67065D01*
X70559Y-53496D02*
X70550Y-53505D01*
X70525Y-53515D01*
X70507Y-53515D01*
X70482Y-53505D01*
X70465Y-53486D01*
X70456Y-53467D01*
X70447Y-53429D01*
X70447Y-53401D01*
X70456Y-53363D01*
X70465Y-53344D01*
X70482Y-53325D01*
X70507Y-53315D01*
X70525Y-53315D01*
X70550Y-53325D01*
X70559Y-53334D01*
X70713Y-53382D02*
X70713Y-53515D01*
X70670Y-53305D02*
X70627Y-53448D01*
X70739Y-53448D01*
X70833Y-53401D02*
X70816Y-53391D01*
X70807Y-53382D01*
X70799Y-53363D01*
X70799Y-53353D01*
X70807Y-53334D01*
X70816Y-53325D01*
X70833Y-53315D01*
X70867Y-53315D01*
X70885Y-53325D01*
X70893Y-53334D01*
X70902Y-53353D01*
X70902Y-53363D01*
X70893Y-53382D01*
X70885Y-53391D01*
X70867Y-53401D01*
X70833Y-53401D01*
X70816Y-53410D01*
X70807Y-53420D01*
X70799Y-53439D01*
X70799Y-53477D01*
X70807Y-53496D01*
X70816Y-53505D01*
X70833Y-53515D01*
X70867Y-53515D01*
X70885Y-53505D01*
X70893Y-53496D01*
X70902Y-53477D01*
X70902Y-53439D01*
X70893Y-53420D01*
X70885Y-53410D01*
X70867Y-53401D01*
X70484Y-60746D02*
X70475Y-60755D01*
X70450Y-60765D01*
X70432Y-60765D01*
X70407Y-60755D01*
X70390Y-60736D01*
X70381Y-60717D01*
X70372Y-60679D01*
X70372Y-60651D01*
X70381Y-60613D01*
X70390Y-60594D01*
X70407Y-60575D01*
X70432Y-60565D01*
X70450Y-60565D01*
X70475Y-60575D01*
X70484Y-60584D01*
X70638Y-60632D02*
X70638Y-60765D01*
X70595Y-60555D02*
X70552Y-60698D01*
X70664Y-60698D01*
X70741Y-60765D02*
X70775Y-60765D01*
X70792Y-60755D01*
X70801Y-60746D01*
X70818Y-60717D01*
X70827Y-60679D01*
X70827Y-60603D01*
X70818Y-60584D01*
X70810Y-60575D01*
X70792Y-60565D01*
X70758Y-60565D01*
X70741Y-60575D01*
X70732Y-60584D01*
X70724Y-60603D01*
X70724Y-60651D01*
X70732Y-60670D01*
X70741Y-60679D01*
X70758Y-60689D01*
X70792Y-60689D01*
X70810Y-60679D01*
X70818Y-60670D01*
X70827Y-60651D01*
G54D22*
X72284Y-44303D02*
X72284Y-43909D01*
X72378Y-43909D01*
X72434Y-43928D01*
X72471Y-43965D01*
X72490Y-44003D01*
X72509Y-44078D01*
X72509Y-44134D01*
X72490Y-44209D01*
X72471Y-44246D01*
X72434Y-44284D01*
X72378Y-44303D01*
X72284Y-44303D01*
X72884Y-44303D02*
X72659Y-44303D01*
X72772Y-44303D02*
X72772Y-43909D01*
X72734Y-43965D01*
X72696Y-44003D01*
X72659Y-44021D01*
G54D13*
X75460Y-71346D02*
X75160Y-71346D01*
X75160Y-71275D01*
X75175Y-71232D01*
X75203Y-71203D01*
X75232Y-71189D01*
X75289Y-71175D01*
X75332Y-71175D01*
X75389Y-71189D01*
X75417Y-71203D01*
X75446Y-71232D01*
X75460Y-71275D01*
X75460Y-71346D01*
X75189Y-71060D02*
X75175Y-71046D01*
X75160Y-71017D01*
X75160Y-70946D01*
X75175Y-70917D01*
X75189Y-70903D01*
X75217Y-70889D01*
X75246Y-70889D01*
X75289Y-70903D01*
X75460Y-71075D01*
X75460Y-70889D01*
X75435Y-72121D02*
X75135Y-72121D01*
X75135Y-72050D01*
X75150Y-72007D01*
X75178Y-71978D01*
X75207Y-71964D01*
X75264Y-71950D01*
X75307Y-71950D01*
X75364Y-71964D01*
X75392Y-71978D01*
X75421Y-72007D01*
X75435Y-72050D01*
X75435Y-72121D01*
X75135Y-71850D02*
X75135Y-71664D01*
X75250Y-71764D01*
X75250Y-71721D01*
X75264Y-71692D01*
X75278Y-71678D01*
X75307Y-71664D01*
X75378Y-71664D01*
X75407Y-71678D01*
X75421Y-71692D01*
X75435Y-71721D01*
X75435Y-71807D01*
X75421Y-71835D01*
X75407Y-71850D01*
X78377Y-55170D02*
X78377Y-54737D01*
X78830Y-55129D02*
X78810Y-55150D01*
X78748Y-55170D01*
X78707Y-55170D01*
X78645Y-55150D01*
X78604Y-55109D01*
X78583Y-55067D01*
X78562Y-54985D01*
X78562Y-54923D01*
X78583Y-54840D01*
X78604Y-54799D01*
X78645Y-54758D01*
X78707Y-54737D01*
X78748Y-54737D01*
X78810Y-54758D01*
X78830Y-54779D01*
X79243Y-55170D02*
X78995Y-55170D01*
X79119Y-55170D02*
X79119Y-54737D01*
X79078Y-54799D01*
X79037Y-54840D01*
X78995Y-54861D01*
G54D10*
X66393Y-47034D02*
X66393Y-47315D01*
X66375Y-47371D01*
X66337Y-47409D01*
X66281Y-47428D01*
X66243Y-47428D01*
X66787Y-47428D02*
X66562Y-47428D01*
X66674Y-47428D02*
X66674Y-47034D01*
X66637Y-47090D01*
X66599Y-47128D01*
X66562Y-47146D01*
X81518Y-59569D02*
X81518Y-59850D01*
X81500Y-59906D01*
X81462Y-59944D01*
X81406Y-59962D01*
X81368Y-59962D01*
X81893Y-59569D02*
X81706Y-59569D01*
X81687Y-59756D01*
X81706Y-59737D01*
X81743Y-59719D01*
X81837Y-59719D01*
X81874Y-59737D01*
X81893Y-59756D01*
X81912Y-59794D01*
X81912Y-59887D01*
X81893Y-59925D01*
X81874Y-59944D01*
X81837Y-59962D01*
X81743Y-59962D01*
X81706Y-59944D01*
X81687Y-59925D01*
X93468Y-68284D02*
X93468Y-68565D01*
X93450Y-68621D01*
X93412Y-68659D01*
X93356Y-68678D01*
X93318Y-68678D01*
X93824Y-68284D02*
X93749Y-68284D01*
X93712Y-68303D01*
X93693Y-68321D01*
X93656Y-68378D01*
X93637Y-68453D01*
X93637Y-68603D01*
X93656Y-68640D01*
X93674Y-68659D01*
X93712Y-68678D01*
X93787Y-68678D01*
X93824Y-68659D01*
X93843Y-68640D01*
X93862Y-68603D01*
X93862Y-68509D01*
X93843Y-68471D01*
X93824Y-68453D01*
X93787Y-68434D01*
X93712Y-68434D01*
X93674Y-68453D01*
X93656Y-68471D01*
X93637Y-68509D01*
X94143Y-60809D02*
X94143Y-61090D01*
X94125Y-61146D01*
X94087Y-61184D01*
X94031Y-61203D01*
X93993Y-61203D01*
X94293Y-60809D02*
X94556Y-60809D01*
X94387Y-61203D01*
X93868Y-53759D02*
X93868Y-54040D01*
X93850Y-54096D01*
X93812Y-54134D01*
X93756Y-54153D01*
X93718Y-54153D01*
X94112Y-53928D02*
X94074Y-53909D01*
X94056Y-53890D01*
X94037Y-53853D01*
X94037Y-53834D01*
X94056Y-53796D01*
X94074Y-53778D01*
X94112Y-53759D01*
X94187Y-53759D01*
X94224Y-53778D01*
X94243Y-53796D01*
X94262Y-53834D01*
X94262Y-53853D01*
X94243Y-53890D01*
X94224Y-53909D01*
X94187Y-53928D01*
X94112Y-53928D01*
X94074Y-53946D01*
X94056Y-53965D01*
X94037Y-54003D01*
X94037Y-54078D01*
X94056Y-54115D01*
X94074Y-54134D01*
X94112Y-54153D01*
X94187Y-54153D01*
X94224Y-54134D01*
X94243Y-54115D01*
X94262Y-54078D01*
X94262Y-54003D01*
X94243Y-53965D01*
X94224Y-53946D01*
X94187Y-53928D01*
X64518Y-47034D02*
X64518Y-47315D01*
X64500Y-47371D01*
X64462Y-47409D01*
X64406Y-47428D01*
X64368Y-47428D01*
X64724Y-47428D02*
X64799Y-47428D01*
X64837Y-47409D01*
X64856Y-47390D01*
X64893Y-47334D01*
X64912Y-47259D01*
X64912Y-47109D01*
X64893Y-47071D01*
X64874Y-47053D01*
X64837Y-47034D01*
X64762Y-47034D01*
X64724Y-47053D01*
X64706Y-47071D01*
X64687Y-47109D01*
X64687Y-47203D01*
X64706Y-47240D01*
X64724Y-47259D01*
X64762Y-47278D01*
X64837Y-47278D01*
X64874Y-47259D01*
X64893Y-47240D01*
X64912Y-47203D01*
X90181Y-42559D02*
X90181Y-42840D01*
X90162Y-42896D01*
X90125Y-42934D01*
X90068Y-42953D01*
X90031Y-42953D01*
X90574Y-42953D02*
X90350Y-42953D01*
X90462Y-42953D02*
X90462Y-42559D01*
X90425Y-42615D01*
X90387Y-42653D01*
X90350Y-42671D01*
X90818Y-42559D02*
X90856Y-42559D01*
X90893Y-42578D01*
X90912Y-42596D01*
X90931Y-42634D01*
X90949Y-42709D01*
X90949Y-42803D01*
X90931Y-42878D01*
X90912Y-42915D01*
X90893Y-42934D01*
X90856Y-42953D01*
X90818Y-42953D01*
X90781Y-42934D01*
X90762Y-42915D01*
X90743Y-42878D01*
X90724Y-42803D01*
X90724Y-42709D01*
X90743Y-42634D01*
X90762Y-42596D01*
X90781Y-42578D01*
X90818Y-42559D01*
X62281Y-54084D02*
X62281Y-54365D01*
X62262Y-54421D01*
X62225Y-54459D01*
X62168Y-54478D01*
X62131Y-54478D01*
X62674Y-54478D02*
X62450Y-54478D01*
X62562Y-54478D02*
X62562Y-54084D01*
X62525Y-54140D01*
X62487Y-54178D01*
X62450Y-54196D01*
X63049Y-54478D02*
X62824Y-54478D01*
X62937Y-54478D02*
X62937Y-54084D01*
X62899Y-54140D01*
X62862Y-54178D01*
X62824Y-54196D01*
X63056Y-61284D02*
X63056Y-61565D01*
X63037Y-61621D01*
X63000Y-61659D01*
X62943Y-61678D01*
X62906Y-61678D01*
X63449Y-61678D02*
X63225Y-61678D01*
X63337Y-61678D02*
X63337Y-61284D01*
X63300Y-61340D01*
X63262Y-61378D01*
X63225Y-61396D01*
X63599Y-61321D02*
X63618Y-61303D01*
X63656Y-61284D01*
X63749Y-61284D01*
X63787Y-61303D01*
X63806Y-61321D01*
X63824Y-61359D01*
X63824Y-61396D01*
X63806Y-61453D01*
X63581Y-61678D01*
X63824Y-61678D01*
X67984Y-73093D02*
X68265Y-73093D01*
X68321Y-73112D01*
X68359Y-73149D01*
X68378Y-73206D01*
X68378Y-73243D01*
X68378Y-72700D02*
X68378Y-72924D01*
X68378Y-72812D02*
X67984Y-72812D01*
X68040Y-72849D01*
X68078Y-72887D01*
X68096Y-72924D01*
X67984Y-72568D02*
X67984Y-72325D01*
X68134Y-72456D01*
X68134Y-72400D01*
X68153Y-72362D01*
X68171Y-72343D01*
X68209Y-72325D01*
X68303Y-72325D01*
X68340Y-72343D01*
X68359Y-72362D01*
X68378Y-72400D01*
X68378Y-72512D01*
X68359Y-72550D01*
X68340Y-72568D01*
G54D23*
X83642Y-64189D02*
X83576Y-64095D01*
X83529Y-64189D02*
X83529Y-63992D01*
X83604Y-63992D01*
X83623Y-64001D01*
X83632Y-64010D01*
X83642Y-64029D01*
X83642Y-64057D01*
X83632Y-64076D01*
X83623Y-64085D01*
X83604Y-64095D01*
X83529Y-64095D01*
X83829Y-64189D02*
X83717Y-64189D01*
X83773Y-64189D02*
X83773Y-63992D01*
X83754Y-64020D01*
X83735Y-64039D01*
X83717Y-64048D01*
X83492Y-68989D02*
X83426Y-68895D01*
X83379Y-68989D02*
X83379Y-68792D01*
X83454Y-68792D01*
X83473Y-68801D01*
X83482Y-68810D01*
X83492Y-68829D01*
X83492Y-68857D01*
X83482Y-68876D01*
X83473Y-68885D01*
X83454Y-68895D01*
X83379Y-68895D01*
X83567Y-68810D02*
X83576Y-68801D01*
X83595Y-68792D01*
X83642Y-68792D01*
X83661Y-68801D01*
X83670Y-68810D01*
X83679Y-68829D01*
X83679Y-68848D01*
X83670Y-68876D01*
X83557Y-68989D01*
X83679Y-68989D01*
X84917Y-62314D02*
X84851Y-62220D01*
X84804Y-62314D02*
X84804Y-62117D01*
X84879Y-62117D01*
X84898Y-62126D01*
X84907Y-62135D01*
X84917Y-62154D01*
X84917Y-62182D01*
X84907Y-62201D01*
X84898Y-62210D01*
X84879Y-62220D01*
X84804Y-62220D01*
X84982Y-62117D02*
X85104Y-62117D01*
X85039Y-62192D01*
X85067Y-62192D01*
X85086Y-62201D01*
X85095Y-62210D01*
X85104Y-62229D01*
X85104Y-62276D01*
X85095Y-62295D01*
X85086Y-62304D01*
X85067Y-62314D01*
X85010Y-62314D01*
X84992Y-62304D01*
X84982Y-62295D01*
X82042Y-68364D02*
X81976Y-68270D01*
X81929Y-68364D02*
X81929Y-68167D01*
X82004Y-68167D01*
X82023Y-68176D01*
X82032Y-68185D01*
X82042Y-68204D01*
X82042Y-68232D01*
X82032Y-68251D01*
X82023Y-68260D01*
X82004Y-68270D01*
X81929Y-68270D01*
X82211Y-68232D02*
X82211Y-68364D01*
X82164Y-68157D02*
X82117Y-68298D01*
X82239Y-68298D01*
X77067Y-42489D02*
X77001Y-42395D01*
X76954Y-42489D02*
X76954Y-42292D01*
X77029Y-42292D01*
X77048Y-42301D01*
X77057Y-42310D01*
X77067Y-42329D01*
X77067Y-42357D01*
X77057Y-42376D01*
X77048Y-42385D01*
X77029Y-42395D01*
X76954Y-42395D01*
X77245Y-42292D02*
X77151Y-42292D01*
X77142Y-42385D01*
X77151Y-42376D01*
X77170Y-42367D01*
X77217Y-42367D01*
X77236Y-42376D01*
X77245Y-42385D01*
X77254Y-42404D01*
X77254Y-42451D01*
X77245Y-42470D01*
X77236Y-42479D01*
X77217Y-42489D01*
X77170Y-42489D01*
X77151Y-42479D01*
X77142Y-42470D01*
X81042Y-69039D02*
X80976Y-68945D01*
X80929Y-69039D02*
X80929Y-68842D01*
X81004Y-68842D01*
X81023Y-68851D01*
X81032Y-68860D01*
X81042Y-68879D01*
X81042Y-68907D01*
X81032Y-68926D01*
X81023Y-68935D01*
X81004Y-68945D01*
X80929Y-68945D01*
X81211Y-68842D02*
X81173Y-68842D01*
X81154Y-68851D01*
X81145Y-68860D01*
X81126Y-68889D01*
X81117Y-68926D01*
X81117Y-69001D01*
X81126Y-69020D01*
X81135Y-69029D01*
X81154Y-69039D01*
X81192Y-69039D01*
X81211Y-69029D01*
X81220Y-69020D01*
X81229Y-69001D01*
X81229Y-68954D01*
X81220Y-68935D01*
X81211Y-68926D01*
X81192Y-68917D01*
X81154Y-68917D01*
X81135Y-68926D01*
X81126Y-68935D01*
X81117Y-68954D01*
X77067Y-43439D02*
X77001Y-43345D01*
X76954Y-43439D02*
X76954Y-43242D01*
X77029Y-43242D01*
X77048Y-43251D01*
X77057Y-43260D01*
X77067Y-43279D01*
X77067Y-43307D01*
X77057Y-43326D01*
X77048Y-43335D01*
X77029Y-43345D01*
X76954Y-43345D01*
X77132Y-43242D02*
X77264Y-43242D01*
X77179Y-43439D01*
X76442Y-41089D02*
X76376Y-40995D01*
X76329Y-41089D02*
X76329Y-40892D01*
X76404Y-40892D01*
X76423Y-40901D01*
X76432Y-40910D01*
X76442Y-40929D01*
X76442Y-40957D01*
X76432Y-40976D01*
X76423Y-40985D01*
X76404Y-40995D01*
X76329Y-40995D01*
X76554Y-40976D02*
X76535Y-40967D01*
X76526Y-40957D01*
X76517Y-40939D01*
X76517Y-40929D01*
X76526Y-40910D01*
X76535Y-40901D01*
X76554Y-40892D01*
X76592Y-40892D01*
X76611Y-40901D01*
X76620Y-40910D01*
X76629Y-40929D01*
X76629Y-40939D01*
X76620Y-40957D01*
X76611Y-40967D01*
X76592Y-40976D01*
X76554Y-40976D01*
X76535Y-40985D01*
X76526Y-40995D01*
X76517Y-41014D01*
X76517Y-41051D01*
X76526Y-41070D01*
X76535Y-41079D01*
X76554Y-41089D01*
X76592Y-41089D01*
X76611Y-41079D01*
X76620Y-41070D01*
X76629Y-41051D01*
X76629Y-41014D01*
X76620Y-40995D01*
X76611Y-40985D01*
X76592Y-40976D01*
X83242Y-65989D02*
X83176Y-65895D01*
X83129Y-65989D02*
X83129Y-65792D01*
X83204Y-65792D01*
X83223Y-65801D01*
X83232Y-65810D01*
X83242Y-65829D01*
X83242Y-65857D01*
X83232Y-65876D01*
X83223Y-65885D01*
X83204Y-65895D01*
X83129Y-65895D01*
X83335Y-65989D02*
X83373Y-65989D01*
X83392Y-65979D01*
X83401Y-65970D01*
X83420Y-65942D01*
X83429Y-65904D01*
X83429Y-65829D01*
X83420Y-65810D01*
X83411Y-65801D01*
X83392Y-65792D01*
X83354Y-65792D01*
X83335Y-65801D01*
X83326Y-65810D01*
X83317Y-65829D01*
X83317Y-65876D01*
X83326Y-65895D01*
X83335Y-65904D01*
X83354Y-65914D01*
X83392Y-65914D01*
X83411Y-65904D01*
X83420Y-65895D01*
X83429Y-65876D01*
X74298Y-38514D02*
X74232Y-38420D01*
X74185Y-38514D02*
X74185Y-38317D01*
X74260Y-38317D01*
X74279Y-38326D01*
X74288Y-38335D01*
X74298Y-38354D01*
X74298Y-38382D01*
X74288Y-38401D01*
X74279Y-38410D01*
X74260Y-38420D01*
X74185Y-38420D01*
X74485Y-38514D02*
X74373Y-38514D01*
X74429Y-38514D02*
X74429Y-38317D01*
X74410Y-38345D01*
X74392Y-38364D01*
X74373Y-38373D01*
X74607Y-38317D02*
X74626Y-38317D01*
X74645Y-38326D01*
X74654Y-38335D01*
X74664Y-38354D01*
X74673Y-38392D01*
X74673Y-38439D01*
X74664Y-38476D01*
X74654Y-38495D01*
X74645Y-38504D01*
X74626Y-38514D01*
X74607Y-38514D01*
X74589Y-38504D01*
X74579Y-38495D01*
X74570Y-38476D01*
X74561Y-38439D01*
X74561Y-38392D01*
X74570Y-38354D01*
X74579Y-38335D01*
X74589Y-38326D01*
X74607Y-38317D01*
X82698Y-64389D02*
X82632Y-64295D01*
X82585Y-64389D02*
X82585Y-64192D01*
X82660Y-64192D01*
X82679Y-64201D01*
X82688Y-64210D01*
X82698Y-64229D01*
X82698Y-64257D01*
X82688Y-64276D01*
X82679Y-64285D01*
X82660Y-64295D01*
X82585Y-64295D01*
X82885Y-64389D02*
X82773Y-64389D01*
X82829Y-64389D02*
X82829Y-64192D01*
X82810Y-64220D01*
X82792Y-64239D01*
X82773Y-64248D01*
X83073Y-64389D02*
X82961Y-64389D01*
X83017Y-64389D02*
X83017Y-64192D01*
X82998Y-64220D01*
X82979Y-64239D01*
X82961Y-64248D01*
X81623Y-63564D02*
X81557Y-63470D01*
X81510Y-63564D02*
X81510Y-63367D01*
X81585Y-63367D01*
X81604Y-63376D01*
X81613Y-63385D01*
X81623Y-63404D01*
X81623Y-63432D01*
X81613Y-63451D01*
X81604Y-63460D01*
X81585Y-63470D01*
X81510Y-63470D01*
X81810Y-63564D02*
X81698Y-63564D01*
X81754Y-63564D02*
X81754Y-63367D01*
X81735Y-63395D01*
X81717Y-63414D01*
X81698Y-63423D01*
X81886Y-63385D02*
X81895Y-63376D01*
X81914Y-63367D01*
X81961Y-63367D01*
X81979Y-63376D01*
X81989Y-63385D01*
X81998Y-63404D01*
X81998Y-63423D01*
X81989Y-63451D01*
X81876Y-63564D01*
X81998Y-63564D01*
X85548Y-48739D02*
X85482Y-48645D01*
X85435Y-48739D02*
X85435Y-48542D01*
X85510Y-48542D01*
X85529Y-48551D01*
X85538Y-48560D01*
X85548Y-48579D01*
X85548Y-48607D01*
X85538Y-48626D01*
X85529Y-48635D01*
X85510Y-48645D01*
X85435Y-48645D01*
X85735Y-48739D02*
X85623Y-48739D01*
X85679Y-48739D02*
X85679Y-48542D01*
X85660Y-48570D01*
X85642Y-48589D01*
X85623Y-48598D01*
X85801Y-48542D02*
X85923Y-48542D01*
X85857Y-48617D01*
X85886Y-48617D01*
X85904Y-48626D01*
X85914Y-48635D01*
X85923Y-48654D01*
X85923Y-48701D01*
X85914Y-48720D01*
X85904Y-48729D01*
X85886Y-48739D01*
X85829Y-48739D01*
X85811Y-48729D01*
X85801Y-48720D01*
X85373Y-46689D02*
X85307Y-46595D01*
X85260Y-46689D02*
X85260Y-46492D01*
X85335Y-46492D01*
X85354Y-46501D01*
X85363Y-46510D01*
X85373Y-46529D01*
X85373Y-46557D01*
X85363Y-46576D01*
X85354Y-46585D01*
X85335Y-46595D01*
X85260Y-46595D01*
X85560Y-46689D02*
X85448Y-46689D01*
X85504Y-46689D02*
X85504Y-46492D01*
X85485Y-46520D01*
X85467Y-46539D01*
X85448Y-46548D01*
X85729Y-46557D02*
X85729Y-46689D01*
X85682Y-46482D02*
X85636Y-46623D01*
X85757Y-46623D01*
X80423Y-63664D02*
X80357Y-63570D01*
X80310Y-63664D02*
X80310Y-63467D01*
X80385Y-63467D01*
X80404Y-63476D01*
X80413Y-63485D01*
X80423Y-63504D01*
X80423Y-63532D01*
X80413Y-63551D01*
X80404Y-63560D01*
X80385Y-63570D01*
X80310Y-63570D01*
X80610Y-63664D02*
X80498Y-63664D01*
X80554Y-63664D02*
X80554Y-63467D01*
X80535Y-63495D01*
X80517Y-63514D01*
X80498Y-63523D01*
X80789Y-63467D02*
X80695Y-63467D01*
X80686Y-63560D01*
X80695Y-63551D01*
X80714Y-63542D01*
X80761Y-63542D01*
X80779Y-63551D01*
X80789Y-63560D01*
X80798Y-63579D01*
X80798Y-63626D01*
X80789Y-63645D01*
X80779Y-63654D01*
X80761Y-63664D01*
X80714Y-63664D01*
X80695Y-63654D01*
X80686Y-63645D01*
X79648Y-65389D02*
X79582Y-65295D01*
X79535Y-65389D02*
X79535Y-65192D01*
X79610Y-65192D01*
X79629Y-65201D01*
X79638Y-65210D01*
X79648Y-65229D01*
X79648Y-65257D01*
X79638Y-65276D01*
X79629Y-65285D01*
X79610Y-65295D01*
X79535Y-65295D01*
X79835Y-65389D02*
X79723Y-65389D01*
X79779Y-65389D02*
X79779Y-65192D01*
X79760Y-65220D01*
X79742Y-65239D01*
X79723Y-65248D01*
X80004Y-65192D02*
X79967Y-65192D01*
X79948Y-65201D01*
X79939Y-65210D01*
X79920Y-65239D01*
X79911Y-65276D01*
X79911Y-65351D01*
X79920Y-65370D01*
X79929Y-65379D01*
X79948Y-65389D01*
X79986Y-65389D01*
X80004Y-65379D01*
X80014Y-65370D01*
X80023Y-65351D01*
X80023Y-65304D01*
X80014Y-65285D01*
X80004Y-65276D01*
X79986Y-65267D01*
X79948Y-65267D01*
X79929Y-65276D01*
X79920Y-65285D01*
X79911Y-65304D01*
X76548Y-48864D02*
X76482Y-48770D01*
X76435Y-48864D02*
X76435Y-48667D01*
X76510Y-48667D01*
X76529Y-48676D01*
X76538Y-48685D01*
X76548Y-48704D01*
X76548Y-48732D01*
X76538Y-48751D01*
X76529Y-48760D01*
X76510Y-48770D01*
X76435Y-48770D01*
X76735Y-48864D02*
X76623Y-48864D01*
X76679Y-48864D02*
X76679Y-48667D01*
X76660Y-48695D01*
X76642Y-48714D01*
X76623Y-48723D01*
X76801Y-48667D02*
X76932Y-48667D01*
X76848Y-48864D01*
X78298Y-48864D02*
X78232Y-48770D01*
X78185Y-48864D02*
X78185Y-48667D01*
X78260Y-48667D01*
X78279Y-48676D01*
X78288Y-48685D01*
X78298Y-48704D01*
X78298Y-48732D01*
X78288Y-48751D01*
X78279Y-48760D01*
X78260Y-48770D01*
X78185Y-48770D01*
X78485Y-48864D02*
X78373Y-48864D01*
X78429Y-48864D02*
X78429Y-48667D01*
X78410Y-48695D01*
X78392Y-48714D01*
X78373Y-48723D01*
X78598Y-48751D02*
X78579Y-48742D01*
X78570Y-48732D01*
X78561Y-48714D01*
X78561Y-48704D01*
X78570Y-48685D01*
X78579Y-48676D01*
X78598Y-48667D01*
X78636Y-48667D01*
X78654Y-48676D01*
X78664Y-48685D01*
X78673Y-48704D01*
X78673Y-48714D01*
X78664Y-48732D01*
X78654Y-48742D01*
X78636Y-48751D01*
X78598Y-48751D01*
X78579Y-48760D01*
X78570Y-48770D01*
X78561Y-48789D01*
X78561Y-48826D01*
X78570Y-48845D01*
X78579Y-48854D01*
X78598Y-48864D01*
X78636Y-48864D01*
X78654Y-48854D01*
X78664Y-48845D01*
X78673Y-48826D01*
X78673Y-48789D01*
X78664Y-48770D01*
X78654Y-48760D01*
X78636Y-48751D01*
X85723Y-43389D02*
X85657Y-43295D01*
X85610Y-43389D02*
X85610Y-43192D01*
X85685Y-43192D01*
X85704Y-43201D01*
X85713Y-43210D01*
X85723Y-43229D01*
X85723Y-43257D01*
X85713Y-43276D01*
X85704Y-43285D01*
X85685Y-43295D01*
X85610Y-43295D01*
X85910Y-43389D02*
X85798Y-43389D01*
X85854Y-43389D02*
X85854Y-43192D01*
X85835Y-43220D01*
X85817Y-43239D01*
X85798Y-43248D01*
X86004Y-43389D02*
X86042Y-43389D01*
X86061Y-43379D01*
X86070Y-43370D01*
X86089Y-43342D01*
X86098Y-43304D01*
X86098Y-43229D01*
X86089Y-43210D01*
X86079Y-43201D01*
X86061Y-43192D01*
X86023Y-43192D01*
X86004Y-43201D01*
X85995Y-43210D01*
X85986Y-43229D01*
X85986Y-43276D01*
X85995Y-43295D01*
X86004Y-43304D01*
X86023Y-43314D01*
X86061Y-43314D01*
X86079Y-43304D01*
X86089Y-43295D01*
X86098Y-43276D01*
X85773Y-45264D02*
X85707Y-45170D01*
X85660Y-45264D02*
X85660Y-45067D01*
X85735Y-45067D01*
X85754Y-45076D01*
X85763Y-45085D01*
X85773Y-45104D01*
X85773Y-45132D01*
X85763Y-45151D01*
X85754Y-45160D01*
X85735Y-45170D01*
X85660Y-45170D01*
X85848Y-45085D02*
X85857Y-45076D01*
X85876Y-45067D01*
X85923Y-45067D01*
X85942Y-45076D01*
X85951Y-45085D01*
X85960Y-45104D01*
X85960Y-45123D01*
X85951Y-45151D01*
X85839Y-45264D01*
X85960Y-45264D01*
X86082Y-45067D02*
X86101Y-45067D01*
X86120Y-45076D01*
X86129Y-45085D01*
X86139Y-45104D01*
X86148Y-45142D01*
X86148Y-45189D01*
X86139Y-45226D01*
X86129Y-45245D01*
X86120Y-45254D01*
X86101Y-45264D01*
X86082Y-45264D01*
X86064Y-45254D01*
X86054Y-45245D01*
X86045Y-45226D01*
X86036Y-45189D01*
X86036Y-45142D01*
X86045Y-45104D01*
X86054Y-45085D01*
X86064Y-45076D01*
X86082Y-45067D01*
X83573Y-60739D02*
X83507Y-60645D01*
X83460Y-60739D02*
X83460Y-60542D01*
X83535Y-60542D01*
X83554Y-60551D01*
X83563Y-60560D01*
X83573Y-60579D01*
X83573Y-60607D01*
X83563Y-60626D01*
X83554Y-60635D01*
X83535Y-60645D01*
X83460Y-60645D01*
X83648Y-60560D02*
X83657Y-60551D01*
X83676Y-60542D01*
X83723Y-60542D01*
X83742Y-60551D01*
X83751Y-60560D01*
X83760Y-60579D01*
X83760Y-60598D01*
X83751Y-60626D01*
X83639Y-60739D01*
X83760Y-60739D01*
X83948Y-60739D02*
X83836Y-60739D01*
X83892Y-60739D02*
X83892Y-60542D01*
X83873Y-60570D01*
X83854Y-60589D01*
X83836Y-60598D01*
X70673Y-68689D02*
X70607Y-68595D01*
X70560Y-68689D02*
X70560Y-68492D01*
X70635Y-68492D01*
X70654Y-68501D01*
X70663Y-68510D01*
X70673Y-68529D01*
X70673Y-68557D01*
X70663Y-68576D01*
X70654Y-68585D01*
X70635Y-68595D01*
X70560Y-68595D01*
X70748Y-68510D02*
X70757Y-68501D01*
X70776Y-68492D01*
X70823Y-68492D01*
X70842Y-68501D01*
X70851Y-68510D01*
X70860Y-68529D01*
X70860Y-68548D01*
X70851Y-68576D01*
X70739Y-68689D01*
X70860Y-68689D01*
X70936Y-68510D02*
X70945Y-68501D01*
X70964Y-68492D01*
X71011Y-68492D01*
X71029Y-68501D01*
X71039Y-68510D01*
X71048Y-68529D01*
X71048Y-68548D01*
X71039Y-68576D01*
X70926Y-68689D01*
X71048Y-68689D01*
X77798Y-68289D02*
X77732Y-68195D01*
X77685Y-68289D02*
X77685Y-68092D01*
X77760Y-68092D01*
X77779Y-68101D01*
X77788Y-68110D01*
X77798Y-68129D01*
X77798Y-68157D01*
X77788Y-68176D01*
X77779Y-68185D01*
X77760Y-68195D01*
X77685Y-68195D01*
X77873Y-68110D02*
X77882Y-68101D01*
X77901Y-68092D01*
X77948Y-68092D01*
X77967Y-68101D01*
X77976Y-68110D01*
X77985Y-68129D01*
X77985Y-68148D01*
X77976Y-68176D01*
X77864Y-68289D01*
X77985Y-68289D01*
X78051Y-68092D02*
X78173Y-68092D01*
X78107Y-68167D01*
X78136Y-68167D01*
X78154Y-68176D01*
X78164Y-68185D01*
X78173Y-68204D01*
X78173Y-68251D01*
X78164Y-68270D01*
X78154Y-68279D01*
X78136Y-68289D01*
X78079Y-68289D01*
X78061Y-68279D01*
X78051Y-68270D01*
X78098Y-66989D02*
X78032Y-66895D01*
X77985Y-66989D02*
X77985Y-66792D01*
X78060Y-66792D01*
X78079Y-66801D01*
X78088Y-66810D01*
X78098Y-66829D01*
X78098Y-66857D01*
X78088Y-66876D01*
X78079Y-66885D01*
X78060Y-66895D01*
X77985Y-66895D01*
X78173Y-66810D02*
X78182Y-66801D01*
X78201Y-66792D01*
X78248Y-66792D01*
X78267Y-66801D01*
X78276Y-66810D01*
X78285Y-66829D01*
X78285Y-66848D01*
X78276Y-66876D01*
X78164Y-66989D01*
X78285Y-66989D01*
X78454Y-66857D02*
X78454Y-66989D01*
X78407Y-66782D02*
X78361Y-66923D01*
X78482Y-66923D01*
X75898Y-38039D02*
X75832Y-37945D01*
X75785Y-38039D02*
X75785Y-37842D01*
X75860Y-37842D01*
X75879Y-37851D01*
X75888Y-37860D01*
X75898Y-37879D01*
X75898Y-37907D01*
X75888Y-37926D01*
X75879Y-37935D01*
X75860Y-37945D01*
X75785Y-37945D01*
X75973Y-37860D02*
X75982Y-37851D01*
X76001Y-37842D01*
X76048Y-37842D01*
X76067Y-37851D01*
X76076Y-37860D01*
X76085Y-37879D01*
X76085Y-37898D01*
X76076Y-37926D01*
X75964Y-38039D01*
X76085Y-38039D01*
X76264Y-37842D02*
X76170Y-37842D01*
X76161Y-37935D01*
X76170Y-37926D01*
X76189Y-37917D01*
X76236Y-37917D01*
X76254Y-37926D01*
X76264Y-37935D01*
X76273Y-37954D01*
X76273Y-38001D01*
X76264Y-38020D01*
X76254Y-38029D01*
X76236Y-38039D01*
X76189Y-38039D01*
X76170Y-38029D01*
X76161Y-38020D01*
X75823Y-39889D02*
X75757Y-39795D01*
X75710Y-39889D02*
X75710Y-39692D01*
X75785Y-39692D01*
X75804Y-39701D01*
X75813Y-39710D01*
X75823Y-39729D01*
X75823Y-39757D01*
X75813Y-39776D01*
X75804Y-39785D01*
X75785Y-39795D01*
X75710Y-39795D01*
X75898Y-39710D02*
X75907Y-39701D01*
X75926Y-39692D01*
X75973Y-39692D01*
X75992Y-39701D01*
X76001Y-39710D01*
X76010Y-39729D01*
X76010Y-39748D01*
X76001Y-39776D01*
X75889Y-39889D01*
X76010Y-39889D01*
X76179Y-39692D02*
X76142Y-39692D01*
X76123Y-39701D01*
X76114Y-39710D01*
X76095Y-39739D01*
X76086Y-39776D01*
X76086Y-39851D01*
X76095Y-39870D01*
X76104Y-39879D01*
X76123Y-39889D01*
X76161Y-39889D01*
X76179Y-39879D01*
X76189Y-39870D01*
X76198Y-39851D01*
X76198Y-39804D01*
X76189Y-39785D01*
X76179Y-39776D01*
X76161Y-39767D01*
X76123Y-39767D01*
X76104Y-39776D01*
X76095Y-39785D01*
X76086Y-39804D01*
G54D13*
X95507Y-62883D02*
X95407Y-62716D01*
X95335Y-62883D02*
X95335Y-62533D01*
X95450Y-62533D01*
X95478Y-62550D01*
X95492Y-62566D01*
X95507Y-62600D01*
X95507Y-62650D01*
X95492Y-62683D01*
X95478Y-62700D01*
X95450Y-62716D01*
X95335Y-62716D01*
X95607Y-62533D02*
X95792Y-62533D01*
X95692Y-62666D01*
X95735Y-62666D01*
X95764Y-62683D01*
X95778Y-62700D01*
X95792Y-62733D01*
X95792Y-62816D01*
X95778Y-62850D01*
X95764Y-62866D01*
X95735Y-62883D01*
X95650Y-62883D01*
X95621Y-62866D01*
X95607Y-62850D01*
X95892Y-62533D02*
X96078Y-62533D01*
X95978Y-62666D01*
X96021Y-62666D01*
X96050Y-62683D01*
X96064Y-62700D01*
X96078Y-62733D01*
X96078Y-62816D01*
X96064Y-62850D01*
X96050Y-62866D01*
X96021Y-62883D01*
X95935Y-62883D01*
X95907Y-62866D01*
X95892Y-62850D01*
X95507Y-55533D02*
X95407Y-55366D01*
X95335Y-55533D02*
X95335Y-55183D01*
X95450Y-55183D01*
X95478Y-55200D01*
X95492Y-55216D01*
X95507Y-55250D01*
X95507Y-55300D01*
X95492Y-55333D01*
X95478Y-55350D01*
X95450Y-55366D01*
X95335Y-55366D01*
X95607Y-55183D02*
X95792Y-55183D01*
X95692Y-55316D01*
X95735Y-55316D01*
X95764Y-55333D01*
X95778Y-55350D01*
X95792Y-55383D01*
X95792Y-55466D01*
X95778Y-55500D01*
X95764Y-55516D01*
X95735Y-55533D01*
X95650Y-55533D01*
X95621Y-55516D01*
X95607Y-55500D01*
X96050Y-55300D02*
X96050Y-55533D01*
X95978Y-55166D02*
X95907Y-55416D01*
X96092Y-55416D01*
G54D23*
X88748Y-68789D02*
X88682Y-68695D01*
X88635Y-68789D02*
X88635Y-68592D01*
X88710Y-68592D01*
X88729Y-68601D01*
X88738Y-68610D01*
X88748Y-68629D01*
X88748Y-68657D01*
X88738Y-68676D01*
X88729Y-68685D01*
X88710Y-68695D01*
X88635Y-68695D01*
X88814Y-68592D02*
X88935Y-68592D01*
X88870Y-68667D01*
X88898Y-68667D01*
X88917Y-68676D01*
X88926Y-68685D01*
X88935Y-68704D01*
X88935Y-68751D01*
X88926Y-68770D01*
X88917Y-68779D01*
X88898Y-68789D01*
X88842Y-68789D01*
X88823Y-68779D01*
X88814Y-68770D01*
X89114Y-68592D02*
X89020Y-68592D01*
X89011Y-68685D01*
X89020Y-68676D01*
X89039Y-68667D01*
X89086Y-68667D01*
X89104Y-68676D01*
X89114Y-68685D01*
X89123Y-68704D01*
X89123Y-68751D01*
X89114Y-68770D01*
X89104Y-68779D01*
X89086Y-68789D01*
X89039Y-68789D01*
X89020Y-68779D01*
X89011Y-68770D01*
X87848Y-62064D02*
X87782Y-61970D01*
X87735Y-62064D02*
X87735Y-61867D01*
X87810Y-61867D01*
X87829Y-61876D01*
X87838Y-61885D01*
X87848Y-61904D01*
X87848Y-61932D01*
X87838Y-61951D01*
X87829Y-61960D01*
X87810Y-61970D01*
X87735Y-61970D01*
X87914Y-61867D02*
X88035Y-61867D01*
X87970Y-61942D01*
X87998Y-61942D01*
X88017Y-61951D01*
X88026Y-61960D01*
X88035Y-61979D01*
X88035Y-62026D01*
X88026Y-62045D01*
X88017Y-62054D01*
X87998Y-62064D01*
X87942Y-62064D01*
X87923Y-62054D01*
X87914Y-62045D01*
X88204Y-61867D02*
X88167Y-61867D01*
X88148Y-61876D01*
X88139Y-61885D01*
X88120Y-61914D01*
X88111Y-61951D01*
X88111Y-62026D01*
X88120Y-62045D01*
X88129Y-62054D01*
X88148Y-62064D01*
X88186Y-62064D01*
X88204Y-62054D01*
X88214Y-62045D01*
X88223Y-62026D01*
X88223Y-61979D01*
X88214Y-61960D01*
X88204Y-61951D01*
X88186Y-61942D01*
X88148Y-61942D01*
X88129Y-61951D01*
X88120Y-61960D01*
X88111Y-61979D01*
G54D13*
X94082Y-47333D02*
X93982Y-47166D01*
X93910Y-47333D02*
X93910Y-46983D01*
X94025Y-46983D01*
X94053Y-47000D01*
X94067Y-47016D01*
X94082Y-47050D01*
X94082Y-47100D01*
X94067Y-47133D01*
X94053Y-47150D01*
X94025Y-47166D01*
X93910Y-47166D01*
X94182Y-46983D02*
X94367Y-46983D01*
X94267Y-47116D01*
X94310Y-47116D01*
X94339Y-47133D01*
X94353Y-47150D01*
X94367Y-47183D01*
X94367Y-47266D01*
X94353Y-47300D01*
X94339Y-47316D01*
X94310Y-47333D01*
X94225Y-47333D01*
X94196Y-47316D01*
X94182Y-47300D01*
X94467Y-46983D02*
X94667Y-46983D01*
X94539Y-47333D01*
X65532Y-52808D02*
X65432Y-52641D01*
X65360Y-52808D02*
X65360Y-52458D01*
X65475Y-52458D01*
X65503Y-52475D01*
X65517Y-52491D01*
X65532Y-52525D01*
X65532Y-52575D01*
X65517Y-52608D01*
X65503Y-52625D01*
X65475Y-52641D01*
X65360Y-52641D01*
X65632Y-52458D02*
X65817Y-52458D01*
X65717Y-52591D01*
X65760Y-52591D01*
X65789Y-52608D01*
X65803Y-52625D01*
X65817Y-52658D01*
X65817Y-52741D01*
X65803Y-52775D01*
X65789Y-52791D01*
X65760Y-52808D01*
X65675Y-52808D01*
X65646Y-52791D01*
X65632Y-52775D01*
X65989Y-52608D02*
X65960Y-52591D01*
X65946Y-52575D01*
X65932Y-52541D01*
X65932Y-52525D01*
X65946Y-52491D01*
X65960Y-52475D01*
X65989Y-52458D01*
X66046Y-52458D01*
X66075Y-52475D01*
X66089Y-52491D01*
X66103Y-52525D01*
X66103Y-52541D01*
X66089Y-52575D01*
X66075Y-52591D01*
X66046Y-52608D01*
X65989Y-52608D01*
X65960Y-52625D01*
X65946Y-52641D01*
X65932Y-52675D01*
X65932Y-52741D01*
X65946Y-52775D01*
X65960Y-52791D01*
X65989Y-52808D01*
X66046Y-52808D01*
X66075Y-52791D01*
X66089Y-52775D01*
X66103Y-52741D01*
X66103Y-52675D01*
X66089Y-52641D01*
X66075Y-52625D01*
X66046Y-52608D01*
G54D23*
X87748Y-54889D02*
X87682Y-54795D01*
X87635Y-54889D02*
X87635Y-54692D01*
X87710Y-54692D01*
X87729Y-54701D01*
X87738Y-54710D01*
X87748Y-54729D01*
X87748Y-54757D01*
X87738Y-54776D01*
X87729Y-54785D01*
X87710Y-54795D01*
X87635Y-54795D01*
X87814Y-54692D02*
X87935Y-54692D01*
X87870Y-54767D01*
X87898Y-54767D01*
X87917Y-54776D01*
X87926Y-54785D01*
X87935Y-54804D01*
X87935Y-54851D01*
X87926Y-54870D01*
X87917Y-54879D01*
X87898Y-54889D01*
X87842Y-54889D01*
X87823Y-54879D01*
X87814Y-54870D01*
X88029Y-54889D02*
X88067Y-54889D01*
X88086Y-54879D01*
X88095Y-54870D01*
X88114Y-54842D01*
X88123Y-54804D01*
X88123Y-54729D01*
X88114Y-54710D01*
X88104Y-54701D01*
X88086Y-54692D01*
X88048Y-54692D01*
X88029Y-54701D01*
X88020Y-54710D01*
X88011Y-54729D01*
X88011Y-54776D01*
X88020Y-54795D01*
X88029Y-54804D01*
X88048Y-54814D01*
X88086Y-54814D01*
X88104Y-54804D01*
X88114Y-54795D01*
X88123Y-54776D01*
X68623Y-47039D02*
X68557Y-46945D01*
X68510Y-47039D02*
X68510Y-46842D01*
X68585Y-46842D01*
X68604Y-46851D01*
X68613Y-46860D01*
X68623Y-46879D01*
X68623Y-46907D01*
X68613Y-46926D01*
X68604Y-46935D01*
X68585Y-46945D01*
X68510Y-46945D01*
X68792Y-46907D02*
X68792Y-47039D01*
X68745Y-46832D02*
X68698Y-46973D01*
X68820Y-46973D01*
X68932Y-46842D02*
X68951Y-46842D01*
X68970Y-46851D01*
X68979Y-46860D01*
X68989Y-46879D01*
X68998Y-46917D01*
X68998Y-46964D01*
X68989Y-47001D01*
X68979Y-47020D01*
X68970Y-47029D01*
X68951Y-47039D01*
X68932Y-47039D01*
X68914Y-47029D01*
X68904Y-47020D01*
X68895Y-47001D01*
X68886Y-46964D01*
X68886Y-46917D01*
X68895Y-46879D01*
X68904Y-46860D01*
X68914Y-46851D01*
X68932Y-46842D01*
G54D13*
X60957Y-59758D02*
X60857Y-59591D01*
X60785Y-59758D02*
X60785Y-59408D01*
X60900Y-59408D01*
X60928Y-59425D01*
X60942Y-59441D01*
X60957Y-59475D01*
X60957Y-59525D01*
X60942Y-59558D01*
X60928Y-59575D01*
X60900Y-59591D01*
X60785Y-59591D01*
X61214Y-59525D02*
X61214Y-59758D01*
X61142Y-59391D02*
X61071Y-59641D01*
X61257Y-59641D01*
X61528Y-59758D02*
X61357Y-59758D01*
X61442Y-59758D02*
X61442Y-59408D01*
X61414Y-59458D01*
X61385Y-59491D01*
X61357Y-59508D01*
X63157Y-68533D02*
X63057Y-68366D01*
X62985Y-68533D02*
X62985Y-68183D01*
X63100Y-68183D01*
X63128Y-68200D01*
X63142Y-68216D01*
X63157Y-68250D01*
X63157Y-68300D01*
X63142Y-68333D01*
X63128Y-68350D01*
X63100Y-68366D01*
X62985Y-68366D01*
X63414Y-68300D02*
X63414Y-68533D01*
X63342Y-68166D02*
X63271Y-68416D01*
X63457Y-68416D01*
X63557Y-68216D02*
X63571Y-68200D01*
X63600Y-68183D01*
X63671Y-68183D01*
X63700Y-68200D01*
X63714Y-68216D01*
X63728Y-68250D01*
X63728Y-68283D01*
X63714Y-68333D01*
X63542Y-68533D01*
X63728Y-68533D01*
G54D23*
X68523Y-53439D02*
X68457Y-53345D01*
X68410Y-53439D02*
X68410Y-53242D01*
X68485Y-53242D01*
X68504Y-53251D01*
X68513Y-53260D01*
X68523Y-53279D01*
X68523Y-53307D01*
X68513Y-53326D01*
X68504Y-53335D01*
X68485Y-53345D01*
X68410Y-53345D01*
X68692Y-53307D02*
X68692Y-53439D01*
X68645Y-53232D02*
X68598Y-53373D01*
X68720Y-53373D01*
X68776Y-53242D02*
X68898Y-53242D01*
X68832Y-53317D01*
X68861Y-53317D01*
X68879Y-53326D01*
X68889Y-53335D01*
X68898Y-53354D01*
X68898Y-53401D01*
X68889Y-53420D01*
X68879Y-53429D01*
X68861Y-53439D01*
X68804Y-53439D01*
X68786Y-53429D01*
X68776Y-53420D01*
X68448Y-60739D02*
X68382Y-60645D01*
X68335Y-60739D02*
X68335Y-60542D01*
X68410Y-60542D01*
X68429Y-60551D01*
X68438Y-60560D01*
X68448Y-60579D01*
X68448Y-60607D01*
X68438Y-60626D01*
X68429Y-60635D01*
X68410Y-60645D01*
X68335Y-60645D01*
X68617Y-60607D02*
X68617Y-60739D01*
X68570Y-60532D02*
X68523Y-60673D01*
X68645Y-60673D01*
X68804Y-60607D02*
X68804Y-60739D01*
X68757Y-60532D02*
X68711Y-60673D01*
X68832Y-60673D01*
X69673Y-68714D02*
X69607Y-68620D01*
X69560Y-68714D02*
X69560Y-68517D01*
X69635Y-68517D01*
X69654Y-68526D01*
X69663Y-68535D01*
X69673Y-68554D01*
X69673Y-68582D01*
X69663Y-68601D01*
X69654Y-68610D01*
X69635Y-68620D01*
X69560Y-68620D01*
X69842Y-68582D02*
X69842Y-68714D01*
X69795Y-68507D02*
X69748Y-68648D01*
X69870Y-68648D01*
X70039Y-68517D02*
X69945Y-68517D01*
X69936Y-68610D01*
X69945Y-68601D01*
X69964Y-68592D01*
X70011Y-68592D01*
X70029Y-68601D01*
X70039Y-68610D01*
X70048Y-68629D01*
X70048Y-68676D01*
X70039Y-68695D01*
X70029Y-68704D01*
X70011Y-68714D01*
X69964Y-68714D01*
X69945Y-68704D01*
X69936Y-68695D01*
G54D10*
X77450Y-40634D02*
X77450Y-40953D01*
X77468Y-40990D01*
X77487Y-41009D01*
X77525Y-41028D01*
X77600Y-41028D01*
X77637Y-41009D01*
X77656Y-40990D01*
X77675Y-40953D01*
X77675Y-40634D01*
X78068Y-41028D02*
X77843Y-41028D01*
X77956Y-41028D02*
X77956Y-40634D01*
X77918Y-40690D01*
X77881Y-40728D01*
X77843Y-40746D01*
X81350Y-65459D02*
X81350Y-65778D01*
X81368Y-65815D01*
X81387Y-65834D01*
X81425Y-65853D01*
X81500Y-65853D01*
X81537Y-65834D01*
X81556Y-65815D01*
X81575Y-65778D01*
X81575Y-65459D01*
X81743Y-65496D02*
X81762Y-65478D01*
X81799Y-65459D01*
X81893Y-65459D01*
X81931Y-65478D01*
X81949Y-65496D01*
X81968Y-65534D01*
X81968Y-65571D01*
X81949Y-65628D01*
X81724Y-65853D01*
X81968Y-65853D01*
X82625Y-38559D02*
X82625Y-38878D01*
X82643Y-38915D01*
X82662Y-38934D01*
X82700Y-38953D01*
X82775Y-38953D01*
X82812Y-38934D01*
X82831Y-38915D01*
X82850Y-38878D01*
X82850Y-38559D01*
X83224Y-38559D02*
X83037Y-38559D01*
X83018Y-38746D01*
X83037Y-38728D01*
X83074Y-38709D01*
X83168Y-38709D01*
X83206Y-38728D01*
X83224Y-38746D01*
X83243Y-38784D01*
X83243Y-38878D01*
X83224Y-38915D01*
X83206Y-38934D01*
X83168Y-38953D01*
X83074Y-38953D01*
X83037Y-38934D01*
X83018Y-38915D01*
X78425Y-70134D02*
X78425Y-70453D01*
X78443Y-70490D01*
X78462Y-70509D01*
X78500Y-70528D01*
X78575Y-70528D01*
X78612Y-70509D01*
X78631Y-70490D01*
X78650Y-70453D01*
X78650Y-70134D01*
X79006Y-70134D02*
X78931Y-70134D01*
X78893Y-70153D01*
X78874Y-70171D01*
X78837Y-70228D01*
X78818Y-70303D01*
X78818Y-70453D01*
X78837Y-70490D01*
X78856Y-70509D01*
X78893Y-70528D01*
X78968Y-70528D01*
X79006Y-70509D01*
X79024Y-70490D01*
X79043Y-70453D01*
X79043Y-70359D01*
X79024Y-70321D01*
X79006Y-70303D01*
X78968Y-70284D01*
X78893Y-70284D01*
X78856Y-70303D01*
X78837Y-70321D01*
X78818Y-70359D01*
X73900Y-69334D02*
X73900Y-69653D01*
X73918Y-69690D01*
X73937Y-69709D01*
X73975Y-69728D01*
X74050Y-69728D01*
X74087Y-69709D01*
X74106Y-69690D01*
X74125Y-69653D01*
X74125Y-69334D01*
X74274Y-69334D02*
X74537Y-69334D01*
X74368Y-69728D01*
X82220Y-53752D02*
X82430Y-54067D01*
X82430Y-53752D02*
X82220Y-54067D01*
X82714Y-54067D02*
X82534Y-54067D01*
X82624Y-54067D02*
X82624Y-53752D01*
X82594Y-53797D01*
X82564Y-53827D01*
X82534Y-53842D01*
G54D24*
X79391Y-49405D02*
X79391Y-49691D01*
X79372Y-49748D01*
X79334Y-49786D01*
X79277Y-49805D01*
X79239Y-49805D01*
X79544Y-49405D02*
X79791Y-49405D01*
X79658Y-49558D01*
X79715Y-49558D01*
X79753Y-49577D01*
X79772Y-49596D01*
X79791Y-49634D01*
X79791Y-49729D01*
X79772Y-49767D01*
X79753Y-49786D01*
X79715Y-49805D01*
X79601Y-49805D01*
X79563Y-49786D01*
X79544Y-49767D01*
G54D17*
X74270Y-40701D02*
X74270Y-41105D01*
X74289Y-41153D01*
X74308Y-41177D01*
X74346Y-41201D01*
X74422Y-41201D01*
X74460Y-41177D01*
X74479Y-41153D01*
X74498Y-41105D01*
X74498Y-40701D01*
X74651Y-40701D02*
X74898Y-40701D01*
X74765Y-40891D01*
X74822Y-40891D01*
X74860Y-40915D01*
X74879Y-40939D01*
X74898Y-40986D01*
X74898Y-41105D01*
X74879Y-41153D01*
X74860Y-41177D01*
X74822Y-41201D01*
X74708Y-41201D01*
X74670Y-41177D01*
X74651Y-41153D01*
X82445Y-47076D02*
X82445Y-47480D01*
X82464Y-47528D01*
X82483Y-47552D01*
X82521Y-47576D01*
X82597Y-47576D01*
X82635Y-47552D01*
X82654Y-47528D01*
X82673Y-47480D01*
X82673Y-47076D01*
X83035Y-47242D02*
X83035Y-47576D01*
X82940Y-47052D02*
X82845Y-47409D01*
X83092Y-47409D01*
G54D11*
X71053Y-45785D02*
X71053Y-45485D01*
X71167Y-45485D01*
X71196Y-45500D01*
X71210Y-45514D01*
X71225Y-45542D01*
X71225Y-45585D01*
X71210Y-45614D01*
X71196Y-45628D01*
X71167Y-45642D01*
X71053Y-45642D01*
X71510Y-45785D02*
X71339Y-45785D01*
X71425Y-45785D02*
X71425Y-45485D01*
X71396Y-45528D01*
X71367Y-45557D01*
X71339Y-45571D01*
X79228Y-65860D02*
X79228Y-65560D01*
X79342Y-65560D01*
X79371Y-65575D01*
X79385Y-65589D01*
X79400Y-65617D01*
X79400Y-65660D01*
X79385Y-65689D01*
X79371Y-65703D01*
X79342Y-65717D01*
X79228Y-65717D01*
X79514Y-65589D02*
X79528Y-65575D01*
X79557Y-65560D01*
X79628Y-65560D01*
X79657Y-65575D01*
X79671Y-65589D01*
X79685Y-65617D01*
X79685Y-65646D01*
X79671Y-65689D01*
X79500Y-65860D01*
X79685Y-65860D01*
X74603Y-66885D02*
X74603Y-66585D01*
X74717Y-66585D01*
X74746Y-66600D01*
X74760Y-66614D01*
X74775Y-66642D01*
X74775Y-66685D01*
X74760Y-66714D01*
X74746Y-66728D01*
X74717Y-66742D01*
X74603Y-66742D01*
X74875Y-66585D02*
X75060Y-66585D01*
X74960Y-66700D01*
X75003Y-66700D01*
X75032Y-66714D01*
X75046Y-66728D01*
X75060Y-66757D01*
X75060Y-66828D01*
X75046Y-66857D01*
X75032Y-66871D01*
X75003Y-66885D01*
X74917Y-66885D01*
X74889Y-66871D01*
X74875Y-66857D01*
X79228Y-62510D02*
X79228Y-62210D01*
X79342Y-62210D01*
X79371Y-62225D01*
X79385Y-62239D01*
X79400Y-62267D01*
X79400Y-62310D01*
X79385Y-62339D01*
X79371Y-62353D01*
X79342Y-62367D01*
X79228Y-62367D01*
X79657Y-62310D02*
X79657Y-62510D01*
X79585Y-62196D02*
X79514Y-62410D01*
X79700Y-62410D01*
X84403Y-46385D02*
X84403Y-46085D01*
X84517Y-46085D01*
X84546Y-46100D01*
X84560Y-46114D01*
X84575Y-46142D01*
X84575Y-46185D01*
X84560Y-46214D01*
X84546Y-46228D01*
X84517Y-46242D01*
X84403Y-46242D01*
X84846Y-46085D02*
X84703Y-46085D01*
X84689Y-46228D01*
X84703Y-46214D01*
X84732Y-46200D01*
X84803Y-46200D01*
X84832Y-46214D01*
X84846Y-46228D01*
X84860Y-46257D01*
X84860Y-46328D01*
X84846Y-46357D01*
X84832Y-46371D01*
X84803Y-46385D01*
X84732Y-46385D01*
X84703Y-46371D01*
X84689Y-46357D01*
X86278Y-41935D02*
X86278Y-41635D01*
X86392Y-41635D01*
X86421Y-41650D01*
X86435Y-41664D01*
X86450Y-41692D01*
X86450Y-41735D01*
X86435Y-41764D01*
X86421Y-41778D01*
X86392Y-41792D01*
X86278Y-41792D01*
X86707Y-41635D02*
X86650Y-41635D01*
X86621Y-41650D01*
X86607Y-41664D01*
X86578Y-41707D01*
X86564Y-41764D01*
X86564Y-41878D01*
X86578Y-41907D01*
X86592Y-41921D01*
X86621Y-41935D01*
X86678Y-41935D01*
X86707Y-41921D01*
X86721Y-41907D01*
X86735Y-41878D01*
X86735Y-41807D01*
X86721Y-41778D01*
X86707Y-41764D01*
X86678Y-41750D01*
X86621Y-41750D01*
X86592Y-41764D01*
X86578Y-41778D01*
X86564Y-41807D01*
X77678Y-61610D02*
X77678Y-61310D01*
X77792Y-61310D01*
X77821Y-61325D01*
X77835Y-61339D01*
X77850Y-61367D01*
X77850Y-61410D01*
X77835Y-61439D01*
X77821Y-61453D01*
X77792Y-61467D01*
X77678Y-61467D01*
X77950Y-61310D02*
X78150Y-61310D01*
X78021Y-61610D01*
X72303Y-63260D02*
X72303Y-62960D01*
X72417Y-62960D01*
X72446Y-62975D01*
X72460Y-62989D01*
X72475Y-63017D01*
X72475Y-63060D01*
X72460Y-63089D01*
X72446Y-63103D01*
X72417Y-63117D01*
X72303Y-63117D01*
X72646Y-63089D02*
X72617Y-63075D01*
X72603Y-63060D01*
X72589Y-63032D01*
X72589Y-63017D01*
X72603Y-62989D01*
X72617Y-62975D01*
X72646Y-62960D01*
X72703Y-62960D01*
X72732Y-62975D01*
X72746Y-62989D01*
X72760Y-63017D01*
X72760Y-63032D01*
X72746Y-63060D01*
X72732Y-63075D01*
X72703Y-63089D01*
X72646Y-63089D01*
X72617Y-63103D01*
X72603Y-63117D01*
X72589Y-63146D01*
X72589Y-63203D01*
X72603Y-63232D01*
X72617Y-63246D01*
X72646Y-63260D01*
X72703Y-63260D01*
X72732Y-63246D01*
X72746Y-63232D01*
X72760Y-63203D01*
X72760Y-63146D01*
X72746Y-63117D01*
X72732Y-63103D01*
X72703Y-63089D01*
X70653Y-67585D02*
X70653Y-67285D01*
X70767Y-67285D01*
X70796Y-67300D01*
X70810Y-67314D01*
X70825Y-67342D01*
X70825Y-67385D01*
X70810Y-67414D01*
X70796Y-67428D01*
X70767Y-67442D01*
X70653Y-67442D01*
X70967Y-67585D02*
X71025Y-67585D01*
X71053Y-67571D01*
X71067Y-67557D01*
X71096Y-67514D01*
X71110Y-67457D01*
X71110Y-67342D01*
X71096Y-67314D01*
X71082Y-67300D01*
X71053Y-67285D01*
X70996Y-67285D01*
X70967Y-67300D01*
X70953Y-67314D01*
X70939Y-67342D01*
X70939Y-67414D01*
X70953Y-67442D01*
X70967Y-67457D01*
X70996Y-67471D01*
X71053Y-67471D01*
X71082Y-67457D01*
X71096Y-67442D01*
X71110Y-67414D01*
X73610Y-66160D02*
X73610Y-65860D01*
X73725Y-65860D01*
X73753Y-65875D01*
X73767Y-65889D01*
X73782Y-65917D01*
X73782Y-65960D01*
X73767Y-65989D01*
X73753Y-66003D01*
X73725Y-66017D01*
X73610Y-66017D01*
X74067Y-66160D02*
X73896Y-66160D01*
X73982Y-66160D02*
X73982Y-65860D01*
X73953Y-65903D01*
X73925Y-65932D01*
X73896Y-65946D01*
X74253Y-65860D02*
X74282Y-65860D01*
X74310Y-65875D01*
X74325Y-65889D01*
X74339Y-65917D01*
X74353Y-65975D01*
X74353Y-66046D01*
X74339Y-66103D01*
X74325Y-66132D01*
X74310Y-66146D01*
X74282Y-66160D01*
X74253Y-66160D01*
X74225Y-66146D01*
X74210Y-66132D01*
X74196Y-66103D01*
X74182Y-66046D01*
X74182Y-65975D01*
X74196Y-65917D01*
X74210Y-65889D01*
X74225Y-65875D01*
X74253Y-65860D01*
X73985Y-72735D02*
X73985Y-72435D01*
X74100Y-72435D01*
X74128Y-72450D01*
X74142Y-72464D01*
X74157Y-72492D01*
X74157Y-72535D01*
X74142Y-72564D01*
X74128Y-72578D01*
X74100Y-72592D01*
X73985Y-72592D01*
X74442Y-72735D02*
X74271Y-72735D01*
X74357Y-72735D02*
X74357Y-72435D01*
X74328Y-72478D01*
X74300Y-72507D01*
X74271Y-72521D01*
X74728Y-72735D02*
X74557Y-72735D01*
X74642Y-72735D02*
X74642Y-72435D01*
X74614Y-72478D01*
X74585Y-72507D01*
X74557Y-72521D01*
X73885Y-70735D02*
X73885Y-70435D01*
X74000Y-70435D01*
X74028Y-70450D01*
X74042Y-70464D01*
X74057Y-70492D01*
X74057Y-70535D01*
X74042Y-70564D01*
X74028Y-70578D01*
X74000Y-70592D01*
X73885Y-70592D01*
X74342Y-70735D02*
X74171Y-70735D01*
X74257Y-70735D02*
X74257Y-70435D01*
X74228Y-70478D01*
X74200Y-70507D01*
X74171Y-70521D01*
X74457Y-70464D02*
X74471Y-70450D01*
X74500Y-70435D01*
X74571Y-70435D01*
X74600Y-70450D01*
X74614Y-70464D01*
X74628Y-70492D01*
X74628Y-70521D01*
X74614Y-70564D01*
X74442Y-70735D01*
X74628Y-70735D01*
X74685Y-63710D02*
X74685Y-63410D01*
X74800Y-63410D01*
X74828Y-63425D01*
X74842Y-63439D01*
X74857Y-63467D01*
X74857Y-63510D01*
X74842Y-63539D01*
X74828Y-63553D01*
X74800Y-63567D01*
X74685Y-63567D01*
X75142Y-63710D02*
X74971Y-63710D01*
X75057Y-63710D02*
X75057Y-63410D01*
X75028Y-63453D01*
X75000Y-63482D01*
X74971Y-63496D01*
X75242Y-63410D02*
X75428Y-63410D01*
X75328Y-63525D01*
X75371Y-63525D01*
X75400Y-63539D01*
X75414Y-63553D01*
X75428Y-63582D01*
X75428Y-63653D01*
X75414Y-63682D01*
X75400Y-63696D01*
X75371Y-63710D01*
X75285Y-63710D01*
X75257Y-63696D01*
X75242Y-63682D01*
X87810Y-69760D02*
X87810Y-69460D01*
X87925Y-69460D01*
X87953Y-69475D01*
X87967Y-69489D01*
X87982Y-69517D01*
X87982Y-69560D01*
X87967Y-69589D01*
X87953Y-69603D01*
X87925Y-69617D01*
X87810Y-69617D01*
X88267Y-69760D02*
X88096Y-69760D01*
X88182Y-69760D02*
X88182Y-69460D01*
X88153Y-69503D01*
X88125Y-69532D01*
X88096Y-69546D01*
X88525Y-69560D02*
X88525Y-69760D01*
X88453Y-69446D02*
X88382Y-69660D01*
X88567Y-69660D01*
X71735Y-54085D02*
X71735Y-53785D01*
X71850Y-53785D01*
X71878Y-53800D01*
X71892Y-53814D01*
X71907Y-53842D01*
X71907Y-53885D01*
X71892Y-53914D01*
X71878Y-53928D01*
X71850Y-53942D01*
X71735Y-53942D01*
X72192Y-54085D02*
X72021Y-54085D01*
X72107Y-54085D02*
X72107Y-53785D01*
X72078Y-53828D01*
X72050Y-53857D01*
X72021Y-53871D01*
X72464Y-53785D02*
X72321Y-53785D01*
X72307Y-53928D01*
X72321Y-53914D01*
X72350Y-53900D01*
X72421Y-53900D01*
X72450Y-53914D01*
X72464Y-53928D01*
X72478Y-53957D01*
X72478Y-54028D01*
X72464Y-54057D01*
X72450Y-54071D01*
X72421Y-54085D01*
X72350Y-54085D01*
X72321Y-54071D01*
X72307Y-54057D01*
X74610Y-54435D02*
X74610Y-54135D01*
X74725Y-54135D01*
X74753Y-54150D01*
X74767Y-54164D01*
X74782Y-54192D01*
X74782Y-54235D01*
X74767Y-54264D01*
X74753Y-54278D01*
X74725Y-54292D01*
X74610Y-54292D01*
X75067Y-54435D02*
X74896Y-54435D01*
X74982Y-54435D02*
X74982Y-54135D01*
X74953Y-54178D01*
X74925Y-54207D01*
X74896Y-54221D01*
X75325Y-54135D02*
X75267Y-54135D01*
X75239Y-54150D01*
X75225Y-54164D01*
X75196Y-54207D01*
X75182Y-54264D01*
X75182Y-54378D01*
X75196Y-54407D01*
X75210Y-54421D01*
X75239Y-54435D01*
X75296Y-54435D01*
X75325Y-54421D01*
X75339Y-54407D01*
X75353Y-54378D01*
X75353Y-54307D01*
X75339Y-54278D01*
X75325Y-54264D01*
X75296Y-54250D01*
X75239Y-54250D01*
X75210Y-54264D01*
X75196Y-54278D01*
X75182Y-54307D01*
X76535Y-68760D02*
X76535Y-68460D01*
X76650Y-68460D01*
X76678Y-68475D01*
X76692Y-68489D01*
X76707Y-68517D01*
X76707Y-68560D01*
X76692Y-68589D01*
X76678Y-68603D01*
X76650Y-68617D01*
X76535Y-68617D01*
X76992Y-68760D02*
X76821Y-68760D01*
X76907Y-68760D02*
X76907Y-68460D01*
X76878Y-68503D01*
X76850Y-68532D01*
X76821Y-68546D01*
X77092Y-68460D02*
X77292Y-68460D01*
X77164Y-68760D01*
X79685Y-68585D02*
X79685Y-68285D01*
X79800Y-68285D01*
X79828Y-68300D01*
X79842Y-68314D01*
X79857Y-68342D01*
X79857Y-68385D01*
X79842Y-68414D01*
X79828Y-68428D01*
X79800Y-68442D01*
X79685Y-68442D01*
X80142Y-68585D02*
X79971Y-68585D01*
X80057Y-68585D02*
X80057Y-68285D01*
X80028Y-68328D01*
X80000Y-68357D01*
X79971Y-68371D01*
X80314Y-68414D02*
X80285Y-68400D01*
X80271Y-68385D01*
X80257Y-68357D01*
X80257Y-68342D01*
X80271Y-68314D01*
X80285Y-68300D01*
X80314Y-68285D01*
X80371Y-68285D01*
X80400Y-68300D01*
X80414Y-68314D01*
X80428Y-68342D01*
X80428Y-68357D01*
X80414Y-68385D01*
X80400Y-68400D01*
X80371Y-68414D01*
X80314Y-68414D01*
X80285Y-68428D01*
X80271Y-68442D01*
X80257Y-68471D01*
X80257Y-68528D01*
X80271Y-68557D01*
X80285Y-68571D01*
X80314Y-68585D01*
X80371Y-68585D01*
X80400Y-68571D01*
X80414Y-68557D01*
X80428Y-68528D01*
X80428Y-68471D01*
X80414Y-68442D01*
X80400Y-68428D01*
X80371Y-68414D01*
X74335Y-48510D02*
X74335Y-48210D01*
X74450Y-48210D01*
X74478Y-48225D01*
X74492Y-48239D01*
X74507Y-48267D01*
X74507Y-48310D01*
X74492Y-48339D01*
X74478Y-48353D01*
X74450Y-48367D01*
X74335Y-48367D01*
X74792Y-48510D02*
X74621Y-48510D01*
X74707Y-48510D02*
X74707Y-48210D01*
X74678Y-48253D01*
X74650Y-48282D01*
X74621Y-48296D01*
X74935Y-48510D02*
X74992Y-48510D01*
X75021Y-48496D01*
X75035Y-48482D01*
X75064Y-48439D01*
X75078Y-48382D01*
X75078Y-48267D01*
X75064Y-48239D01*
X75050Y-48225D01*
X75021Y-48210D01*
X74964Y-48210D01*
X74935Y-48225D01*
X74921Y-48239D01*
X74907Y-48267D01*
X74907Y-48339D01*
X74921Y-48367D01*
X74935Y-48382D01*
X74964Y-48396D01*
X75021Y-48396D01*
X75050Y-48382D01*
X75064Y-48367D01*
X75078Y-48339D01*
X74410Y-53210D02*
X74410Y-52910D01*
X74525Y-52910D01*
X74553Y-52925D01*
X74567Y-52939D01*
X74582Y-52967D01*
X74582Y-53010D01*
X74567Y-53039D01*
X74553Y-53053D01*
X74525Y-53067D01*
X74410Y-53067D01*
X74696Y-52939D02*
X74710Y-52925D01*
X74739Y-52910D01*
X74810Y-52910D01*
X74839Y-52925D01*
X74853Y-52939D01*
X74867Y-52967D01*
X74867Y-52996D01*
X74853Y-53039D01*
X74682Y-53210D01*
X74867Y-53210D01*
X75053Y-52910D02*
X75082Y-52910D01*
X75110Y-52925D01*
X75125Y-52939D01*
X75139Y-52967D01*
X75153Y-53025D01*
X75153Y-53096D01*
X75139Y-53153D01*
X75125Y-53182D01*
X75110Y-53196D01*
X75082Y-53210D01*
X75053Y-53210D01*
X75025Y-53196D01*
X75010Y-53182D01*
X74996Y-53153D01*
X74982Y-53096D01*
X74982Y-53025D01*
X74996Y-52967D01*
X75010Y-52939D01*
X75025Y-52925D01*
X75053Y-52910D01*
G54D22*
X69734Y-43653D02*
X69734Y-43259D01*
X69828Y-43259D01*
X69884Y-43278D01*
X69921Y-43315D01*
X69940Y-43353D01*
X69959Y-43428D01*
X69959Y-43484D01*
X69940Y-43559D01*
X69921Y-43596D01*
X69884Y-43634D01*
X69828Y-43653D01*
X69734Y-43653D01*
X70297Y-43390D02*
X70297Y-43653D01*
X70203Y-43240D02*
X70109Y-43521D01*
X70353Y-43521D01*
G54D10*
X76168Y-72384D02*
X76168Y-72665D01*
X76150Y-72721D01*
X76112Y-72759D01*
X76056Y-72778D01*
X76018Y-72778D01*
X76524Y-72515D02*
X76524Y-72778D01*
X76431Y-72365D02*
X76337Y-72646D01*
X76581Y-72646D01*
G54D21*
X91084Y-60721D02*
X91075Y-60730D01*
X91050Y-60740D01*
X91032Y-60740D01*
X91007Y-60730D01*
X90990Y-60711D01*
X90981Y-60692D01*
X90972Y-60654D01*
X90972Y-60626D01*
X90981Y-60588D01*
X90990Y-60569D01*
X91007Y-60550D01*
X91032Y-60540D01*
X91050Y-60540D01*
X91075Y-60550D01*
X91084Y-60559D01*
X91238Y-60540D02*
X91204Y-60540D01*
X91187Y-60550D01*
X91178Y-60559D01*
X91161Y-60588D01*
X91152Y-60626D01*
X91152Y-60702D01*
X91161Y-60721D01*
X91170Y-60730D01*
X91187Y-60740D01*
X91221Y-60740D01*
X91238Y-60730D01*
X91247Y-60721D01*
X91255Y-60702D01*
X91255Y-60654D01*
X91247Y-60635D01*
X91238Y-60626D01*
X91221Y-60616D01*
X91187Y-60616D01*
X91170Y-60626D01*
X91161Y-60635D01*
X91152Y-60654D01*
X91324Y-60559D02*
X91332Y-60550D01*
X91350Y-60540D01*
X91392Y-60540D01*
X91410Y-60550D01*
X91418Y-60559D01*
X91427Y-60578D01*
X91427Y-60597D01*
X91418Y-60626D01*
X91315Y-60740D01*
X91427Y-60740D01*
X90934Y-55421D02*
X90925Y-55430D01*
X90900Y-55440D01*
X90882Y-55440D01*
X90857Y-55430D01*
X90840Y-55411D01*
X90831Y-55392D01*
X90822Y-55354D01*
X90822Y-55326D01*
X90831Y-55288D01*
X90840Y-55269D01*
X90857Y-55250D01*
X90882Y-55240D01*
X90900Y-55240D01*
X90925Y-55250D01*
X90934Y-55259D01*
X91088Y-55240D02*
X91054Y-55240D01*
X91037Y-55250D01*
X91028Y-55259D01*
X91011Y-55288D01*
X91002Y-55326D01*
X91002Y-55402D01*
X91011Y-55421D01*
X91020Y-55430D01*
X91037Y-55440D01*
X91071Y-55440D01*
X91088Y-55430D01*
X91097Y-55421D01*
X91105Y-55402D01*
X91105Y-55354D01*
X91097Y-55335D01*
X91088Y-55326D01*
X91071Y-55316D01*
X91037Y-55316D01*
X91020Y-55326D01*
X91011Y-55335D01*
X91002Y-55354D01*
X91165Y-55240D02*
X91277Y-55240D01*
X91217Y-55316D01*
X91242Y-55316D01*
X91260Y-55326D01*
X91268Y-55335D01*
X91277Y-55354D01*
X91277Y-55402D01*
X91268Y-55421D01*
X91260Y-55430D01*
X91242Y-55440D01*
X91191Y-55440D01*
X91174Y-55430D01*
X91165Y-55421D01*
X90934Y-48421D02*
X90925Y-48430D01*
X90900Y-48440D01*
X90882Y-48440D01*
X90857Y-48430D01*
X90840Y-48411D01*
X90831Y-48392D01*
X90822Y-48354D01*
X90822Y-48326D01*
X90831Y-48288D01*
X90840Y-48269D01*
X90857Y-48250D01*
X90882Y-48240D01*
X90900Y-48240D01*
X90925Y-48250D01*
X90934Y-48259D01*
X91088Y-48240D02*
X91054Y-48240D01*
X91037Y-48250D01*
X91028Y-48259D01*
X91011Y-48288D01*
X91002Y-48326D01*
X91002Y-48402D01*
X91011Y-48421D01*
X91020Y-48430D01*
X91037Y-48440D01*
X91071Y-48440D01*
X91088Y-48430D01*
X91097Y-48421D01*
X91105Y-48402D01*
X91105Y-48354D01*
X91097Y-48335D01*
X91088Y-48326D01*
X91071Y-48316D01*
X91037Y-48316D01*
X91020Y-48326D01*
X91011Y-48335D01*
X91002Y-48354D01*
X91260Y-48307D02*
X91260Y-48440D01*
X91217Y-48230D02*
X91174Y-48373D01*
X91285Y-48373D01*
X68434Y-50821D02*
X68425Y-50830D01*
X68400Y-50840D01*
X68382Y-50840D01*
X68357Y-50830D01*
X68340Y-50811D01*
X68331Y-50792D01*
X68322Y-50754D01*
X68322Y-50726D01*
X68331Y-50688D01*
X68340Y-50669D01*
X68357Y-50650D01*
X68382Y-50640D01*
X68400Y-50640D01*
X68425Y-50650D01*
X68434Y-50659D01*
X68588Y-50640D02*
X68554Y-50640D01*
X68537Y-50650D01*
X68528Y-50659D01*
X68511Y-50688D01*
X68502Y-50726D01*
X68502Y-50802D01*
X68511Y-50821D01*
X68520Y-50830D01*
X68537Y-50840D01*
X68571Y-50840D01*
X68588Y-50830D01*
X68597Y-50821D01*
X68605Y-50802D01*
X68605Y-50754D01*
X68597Y-50735D01*
X68588Y-50726D01*
X68571Y-50716D01*
X68537Y-50716D01*
X68520Y-50726D01*
X68511Y-50735D01*
X68502Y-50754D01*
X68768Y-50640D02*
X68682Y-50640D01*
X68674Y-50735D01*
X68682Y-50726D01*
X68700Y-50716D01*
X68742Y-50716D01*
X68760Y-50726D01*
X68768Y-50735D01*
X68777Y-50754D01*
X68777Y-50802D01*
X68768Y-50821D01*
X68760Y-50830D01*
X68742Y-50840D01*
X68700Y-50840D01*
X68682Y-50830D01*
X68674Y-50821D01*
X68434Y-68271D02*
X68425Y-68280D01*
X68400Y-68290D01*
X68382Y-68290D01*
X68357Y-68280D01*
X68340Y-68261D01*
X68331Y-68242D01*
X68322Y-68204D01*
X68322Y-68176D01*
X68331Y-68138D01*
X68340Y-68119D01*
X68357Y-68100D01*
X68382Y-68090D01*
X68400Y-68090D01*
X68425Y-68100D01*
X68434Y-68109D01*
X68588Y-68090D02*
X68554Y-68090D01*
X68537Y-68100D01*
X68528Y-68109D01*
X68511Y-68138D01*
X68502Y-68176D01*
X68502Y-68252D01*
X68511Y-68271D01*
X68520Y-68280D01*
X68537Y-68290D01*
X68571Y-68290D01*
X68588Y-68280D01*
X68597Y-68271D01*
X68605Y-68252D01*
X68605Y-68204D01*
X68597Y-68185D01*
X68588Y-68176D01*
X68571Y-68166D01*
X68537Y-68166D01*
X68520Y-68176D01*
X68511Y-68185D01*
X68502Y-68204D01*
X68760Y-68090D02*
X68725Y-68090D01*
X68708Y-68100D01*
X68700Y-68109D01*
X68682Y-68138D01*
X68674Y-68176D01*
X68674Y-68252D01*
X68682Y-68271D01*
X68691Y-68280D01*
X68708Y-68290D01*
X68742Y-68290D01*
X68760Y-68280D01*
X68768Y-68271D01*
X68777Y-68252D01*
X68777Y-68204D01*
X68768Y-68185D01*
X68760Y-68176D01*
X68742Y-68166D01*
X68708Y-68166D01*
X68691Y-68176D01*
X68682Y-68185D01*
X68674Y-68204D01*
X68434Y-57871D02*
X68425Y-57880D01*
X68400Y-57890D01*
X68382Y-57890D01*
X68357Y-57880D01*
X68340Y-57861D01*
X68331Y-57842D01*
X68322Y-57804D01*
X68322Y-57776D01*
X68331Y-57738D01*
X68340Y-57719D01*
X68357Y-57700D01*
X68382Y-57690D01*
X68400Y-57690D01*
X68425Y-57700D01*
X68434Y-57709D01*
X68588Y-57690D02*
X68554Y-57690D01*
X68537Y-57700D01*
X68528Y-57709D01*
X68511Y-57738D01*
X68502Y-57776D01*
X68502Y-57852D01*
X68511Y-57871D01*
X68520Y-57880D01*
X68537Y-57890D01*
X68571Y-57890D01*
X68588Y-57880D01*
X68597Y-57871D01*
X68605Y-57852D01*
X68605Y-57804D01*
X68597Y-57785D01*
X68588Y-57776D01*
X68571Y-57766D01*
X68537Y-57766D01*
X68520Y-57776D01*
X68511Y-57785D01*
X68502Y-57804D01*
X68665Y-57690D02*
X68785Y-57690D01*
X68708Y-57890D01*
G54D10*
X79056Y-72434D02*
X79056Y-72715D01*
X79037Y-72771D01*
X79000Y-72809D01*
X78943Y-72828D01*
X78906Y-72828D01*
X79449Y-72828D02*
X79225Y-72828D01*
X79337Y-72828D02*
X79337Y-72434D01*
X79300Y-72490D01*
X79262Y-72528D01*
X79225Y-72546D01*
X79787Y-72565D02*
X79787Y-72828D01*
X79693Y-72415D02*
X79599Y-72696D01*
X79843Y-72696D01*
X86562Y-64840D02*
X86525Y-64821D01*
X86487Y-64784D01*
X86431Y-64728D01*
X86393Y-64709D01*
X86356Y-64709D01*
X86375Y-64803D02*
X86337Y-64784D01*
X86300Y-64746D01*
X86281Y-64671D01*
X86281Y-64540D01*
X86300Y-64465D01*
X86337Y-64428D01*
X86375Y-64409D01*
X86450Y-64409D01*
X86487Y-64428D01*
X86525Y-64465D01*
X86543Y-64540D01*
X86543Y-64671D01*
X86525Y-64746D01*
X86487Y-64784D01*
X86450Y-64803D01*
X86375Y-64803D01*
X86918Y-64803D02*
X86693Y-64803D01*
X86806Y-64803D02*
X86806Y-64409D01*
X86768Y-64465D01*
X86731Y-64503D01*
X86693Y-64521D01*
G54D23*
X87573Y-70864D02*
X87507Y-70770D01*
X87460Y-70864D02*
X87460Y-70667D01*
X87535Y-70667D01*
X87554Y-70676D01*
X87563Y-70685D01*
X87573Y-70704D01*
X87573Y-70732D01*
X87563Y-70751D01*
X87554Y-70760D01*
X87535Y-70770D01*
X87460Y-70770D01*
X87751Y-70667D02*
X87657Y-70667D01*
X87648Y-70760D01*
X87657Y-70751D01*
X87676Y-70742D01*
X87723Y-70742D01*
X87742Y-70751D01*
X87751Y-70760D01*
X87760Y-70779D01*
X87760Y-70826D01*
X87751Y-70845D01*
X87742Y-70854D01*
X87723Y-70864D01*
X87676Y-70864D01*
X87657Y-70854D01*
X87648Y-70845D01*
X87836Y-70685D02*
X87845Y-70676D01*
X87864Y-70667D01*
X87911Y-70667D01*
X87929Y-70676D01*
X87939Y-70685D01*
X87948Y-70704D01*
X87948Y-70723D01*
X87939Y-70751D01*
X87826Y-70864D01*
X87948Y-70864D01*
X84123Y-68764D02*
X84057Y-68670D01*
X84010Y-68764D02*
X84010Y-68567D01*
X84085Y-68567D01*
X84104Y-68576D01*
X84113Y-68585D01*
X84123Y-68604D01*
X84123Y-68632D01*
X84113Y-68651D01*
X84104Y-68660D01*
X84085Y-68670D01*
X84010Y-68670D01*
X84301Y-68567D02*
X84207Y-68567D01*
X84198Y-68660D01*
X84207Y-68651D01*
X84226Y-68642D01*
X84273Y-68642D01*
X84292Y-68651D01*
X84301Y-68660D01*
X84310Y-68679D01*
X84310Y-68726D01*
X84301Y-68745D01*
X84292Y-68754D01*
X84273Y-68764D01*
X84226Y-68764D01*
X84207Y-68754D01*
X84198Y-68745D01*
X84376Y-68567D02*
X84498Y-68567D01*
X84432Y-68642D01*
X84461Y-68642D01*
X84479Y-68651D01*
X84489Y-68660D01*
X84498Y-68679D01*
X84498Y-68726D01*
X84489Y-68745D01*
X84479Y-68754D01*
X84461Y-68764D01*
X84404Y-68764D01*
X84386Y-68754D01*
X84376Y-68745D01*
X85223Y-67739D02*
X85157Y-67645D01*
X85110Y-67739D02*
X85110Y-67542D01*
X85185Y-67542D01*
X85204Y-67551D01*
X85213Y-67560D01*
X85223Y-67579D01*
X85223Y-67607D01*
X85213Y-67626D01*
X85204Y-67635D01*
X85185Y-67645D01*
X85110Y-67645D01*
X85401Y-67542D02*
X85307Y-67542D01*
X85298Y-67635D01*
X85307Y-67626D01*
X85326Y-67617D01*
X85373Y-67617D01*
X85392Y-67626D01*
X85401Y-67635D01*
X85410Y-67654D01*
X85410Y-67701D01*
X85401Y-67720D01*
X85392Y-67729D01*
X85373Y-67739D01*
X85326Y-67739D01*
X85307Y-67729D01*
X85298Y-67720D01*
X85579Y-67607D02*
X85579Y-67739D01*
X85532Y-67532D02*
X85486Y-67673D01*
X85607Y-67673D01*
X85598Y-64164D02*
X85532Y-64070D01*
X85485Y-64164D02*
X85485Y-63967D01*
X85560Y-63967D01*
X85579Y-63976D01*
X85588Y-63985D01*
X85598Y-64004D01*
X85598Y-64032D01*
X85588Y-64051D01*
X85579Y-64060D01*
X85560Y-64070D01*
X85485Y-64070D01*
X85776Y-63967D02*
X85682Y-63967D01*
X85673Y-64060D01*
X85682Y-64051D01*
X85701Y-64042D01*
X85748Y-64042D01*
X85767Y-64051D01*
X85776Y-64060D01*
X85785Y-64079D01*
X85785Y-64126D01*
X85776Y-64145D01*
X85767Y-64154D01*
X85748Y-64164D01*
X85701Y-64164D01*
X85682Y-64154D01*
X85673Y-64145D01*
X85964Y-63967D02*
X85870Y-63967D01*
X85861Y-64060D01*
X85870Y-64051D01*
X85889Y-64042D01*
X85936Y-64042D01*
X85954Y-64051D01*
X85964Y-64060D01*
X85973Y-64079D01*
X85973Y-64126D01*
X85964Y-64145D01*
X85954Y-64154D01*
X85936Y-64164D01*
X85889Y-64164D01*
X85870Y-64154D01*
X85861Y-64145D01*
X84173Y-70839D02*
X84107Y-70745D01*
X84060Y-70839D02*
X84060Y-70642D01*
X84135Y-70642D01*
X84154Y-70651D01*
X84163Y-70660D01*
X84173Y-70679D01*
X84173Y-70707D01*
X84163Y-70726D01*
X84154Y-70735D01*
X84135Y-70745D01*
X84060Y-70745D01*
X84351Y-70642D02*
X84257Y-70642D01*
X84248Y-70735D01*
X84257Y-70726D01*
X84276Y-70717D01*
X84323Y-70717D01*
X84342Y-70726D01*
X84351Y-70735D01*
X84360Y-70754D01*
X84360Y-70801D01*
X84351Y-70820D01*
X84342Y-70829D01*
X84323Y-70839D01*
X84276Y-70839D01*
X84257Y-70829D01*
X84248Y-70820D01*
X84529Y-70642D02*
X84492Y-70642D01*
X84473Y-70651D01*
X84464Y-70660D01*
X84445Y-70689D01*
X84436Y-70726D01*
X84436Y-70801D01*
X84445Y-70820D01*
X84454Y-70829D01*
X84473Y-70839D01*
X84511Y-70839D01*
X84529Y-70829D01*
X84539Y-70820D01*
X84548Y-70801D01*
X84548Y-70754D01*
X84539Y-70735D01*
X84529Y-70726D01*
X84511Y-70717D01*
X84473Y-70717D01*
X84454Y-70726D01*
X84445Y-70735D01*
X84436Y-70754D01*
X82023Y-70514D02*
X81957Y-70420D01*
X81910Y-70514D02*
X81910Y-70317D01*
X81985Y-70317D01*
X82004Y-70326D01*
X82013Y-70335D01*
X82023Y-70354D01*
X82023Y-70382D01*
X82013Y-70401D01*
X82004Y-70410D01*
X81985Y-70420D01*
X81910Y-70420D01*
X82201Y-70317D02*
X82107Y-70317D01*
X82098Y-70410D01*
X82107Y-70401D01*
X82126Y-70392D01*
X82173Y-70392D01*
X82192Y-70401D01*
X82201Y-70410D01*
X82210Y-70429D01*
X82210Y-70476D01*
X82201Y-70495D01*
X82192Y-70504D01*
X82173Y-70514D01*
X82126Y-70514D01*
X82107Y-70504D01*
X82098Y-70495D01*
X82276Y-70317D02*
X82407Y-70317D01*
X82323Y-70514D01*
X79848Y-70289D02*
X79782Y-70195D01*
X79735Y-70289D02*
X79735Y-70092D01*
X79810Y-70092D01*
X79829Y-70101D01*
X79838Y-70110D01*
X79848Y-70129D01*
X79848Y-70157D01*
X79838Y-70176D01*
X79829Y-70185D01*
X79810Y-70195D01*
X79735Y-70195D01*
X80026Y-70092D02*
X79932Y-70092D01*
X79923Y-70185D01*
X79932Y-70176D01*
X79951Y-70167D01*
X79998Y-70167D01*
X80017Y-70176D01*
X80026Y-70185D01*
X80035Y-70204D01*
X80035Y-70251D01*
X80026Y-70270D01*
X80017Y-70279D01*
X79998Y-70289D01*
X79951Y-70289D01*
X79932Y-70279D01*
X79923Y-70270D01*
X80148Y-70176D02*
X80129Y-70167D01*
X80120Y-70157D01*
X80111Y-70139D01*
X80111Y-70129D01*
X80120Y-70110D01*
X80129Y-70101D01*
X80148Y-70092D01*
X80186Y-70092D01*
X80204Y-70101D01*
X80214Y-70110D01*
X80223Y-70129D01*
X80223Y-70139D01*
X80214Y-70157D01*
X80204Y-70167D01*
X80186Y-70176D01*
X80148Y-70176D01*
X80129Y-70185D01*
X80120Y-70195D01*
X80111Y-70214D01*
X80111Y-70251D01*
X80120Y-70270D01*
X80129Y-70279D01*
X80148Y-70289D01*
X80186Y-70289D01*
X80204Y-70279D01*
X80214Y-70270D01*
X80223Y-70251D01*
X80223Y-70214D01*
X80214Y-70195D01*
X80204Y-70185D01*
X80186Y-70176D01*
G54D21*
X85518Y-69990D02*
X85621Y-69990D01*
X85570Y-70190D02*
X85570Y-69990D01*
X85681Y-70190D02*
X85681Y-69990D01*
X85681Y-70085D02*
X85784Y-70085D01*
X85784Y-70190D02*
X85784Y-69990D01*
X85964Y-70190D02*
X85861Y-70190D01*
X85912Y-70190D02*
X85912Y-69990D01*
X85895Y-70019D01*
X85878Y-70038D01*
X85861Y-70047D01*
G54D10*
X88568Y-72659D02*
X88568Y-72940D01*
X88550Y-72996D01*
X88512Y-73034D01*
X88456Y-73053D01*
X88418Y-73053D01*
X88737Y-72696D02*
X88756Y-72678D01*
X88793Y-72659D01*
X88887Y-72659D01*
X88924Y-72678D01*
X88943Y-72696D01*
X88962Y-72734D01*
X88962Y-72771D01*
X88943Y-72828D01*
X88718Y-73053D01*
X88962Y-73053D01*
M02*
