G04 (created by PCBNEW (2013-08-23 BZR 4296)-product) date 12/22/2013 7:01:24 PM*
%MOIN*%
G04 Gerber Fmt 3.4, Leading zero omitted, Abs format*
%FSLAX34Y34*%
G01*
G70*
G90*
G04 APERTURE LIST*
%ADD10C,0.005906*%
%ADD11C,0.100000*%
%ADD12R,0.020000X0.050000*%
%ADD13R,0.386000X0.244000*%
%ADD14R,0.630000X0.114000*%
%ADD15R,0.045000X0.025000*%
%ADD16R,0.025000X0.045000*%
%ADD17C,0.078740*%
%ADD18R,0.035000X0.055000*%
%ADD19R,0.055000X0.035000*%
%ADD20R,0.027200X0.039400*%
%ADD21R,0.060000X0.060000*%
%ADD22C,0.060000*%
%ADD23C,0.252000*%
%ADD24C,0.250000*%
G04 APERTURE END LIST*
G54D10*
G54D11*
X74450Y-76400D02*
X76200Y-76400D01*
X73800Y-75750D02*
X74450Y-76400D01*
X61900Y-67300D02*
X61900Y-50550D01*
X63200Y-68600D02*
X61900Y-67300D01*
X63200Y-69200D02*
X63200Y-68600D01*
X66900Y-72900D02*
X63200Y-69200D01*
X67750Y-72900D02*
X66900Y-72900D01*
X69200Y-74350D02*
X67750Y-72900D01*
X71600Y-74350D02*
X69200Y-74350D01*
X71600Y-73550D02*
X71600Y-74350D01*
X73800Y-75750D02*
X71600Y-73550D01*
X81350Y-76400D02*
X76150Y-76400D01*
X82000Y-75750D02*
X81350Y-76400D01*
X82000Y-75550D02*
X82000Y-75750D01*
X82750Y-74800D02*
X82000Y-75550D01*
X86400Y-74800D02*
X82750Y-74800D01*
X86450Y-74750D02*
X86400Y-74800D01*
X86900Y-74750D02*
X86450Y-74750D01*
X87150Y-74500D02*
X86900Y-74750D01*
X87750Y-74500D02*
X87150Y-74500D01*
X89250Y-73000D02*
X87750Y-74500D01*
X89850Y-73000D02*
X89250Y-73000D01*
X92200Y-70650D02*
X89850Y-73000D01*
X92200Y-70050D02*
X92200Y-70650D01*
X94650Y-67600D02*
X92200Y-70050D01*
X94650Y-62600D02*
X94650Y-67600D01*
X94600Y-62600D02*
X94650Y-62600D01*
X94550Y-62650D02*
X94600Y-62600D01*
X95500Y-62650D02*
X94550Y-62650D01*
X96100Y-62050D02*
X95500Y-62650D01*
X96100Y-51150D02*
X96100Y-62050D01*
X94500Y-49550D02*
X96100Y-51150D01*
X94500Y-46750D02*
X94500Y-49550D01*
X92050Y-44300D02*
X94500Y-46750D01*
X90550Y-44300D02*
X92050Y-44300D01*
G54D12*
X66300Y-46875D03*
X66800Y-46875D03*
X67300Y-46875D03*
X67800Y-46875D03*
X68300Y-46875D03*
X68800Y-46875D03*
X69300Y-46875D03*
X69800Y-46875D03*
X70300Y-46875D03*
X70800Y-46875D03*
X70800Y-52175D03*
X70300Y-52175D03*
X69800Y-52175D03*
X69300Y-52175D03*
X68800Y-52175D03*
X68300Y-52175D03*
X67800Y-52175D03*
X67300Y-52175D03*
X66800Y-52175D03*
X66300Y-52175D03*
G54D13*
X68550Y-49525D03*
G54D14*
X68550Y-49525D03*
G54D15*
X80800Y-57950D03*
X80800Y-58550D03*
X80825Y-56400D03*
X80825Y-57000D03*
X76125Y-57800D03*
X76125Y-57200D03*
G54D16*
X77625Y-59875D03*
X77025Y-59875D03*
X76975Y-55175D03*
X77575Y-55175D03*
X79575Y-59850D03*
X78975Y-59850D03*
G54D15*
X92225Y-62250D03*
X92225Y-62850D03*
X92150Y-55000D03*
X92150Y-55600D03*
X92100Y-47975D03*
X92100Y-48575D03*
G54D16*
X63775Y-54250D03*
X63175Y-54250D03*
G54D15*
X64775Y-60050D03*
X64775Y-59450D03*
X64550Y-67350D03*
X64550Y-66750D03*
G54D17*
X65515Y-45000D03*
X67484Y-45000D03*
X93600Y-64940D03*
X93600Y-66909D03*
X93600Y-57615D03*
X93600Y-59584D03*
X93600Y-50615D03*
X93600Y-52584D03*
X63050Y-50509D03*
X63050Y-48540D03*
X90550Y-44315D03*
X90550Y-46284D03*
X63200Y-57609D03*
X63200Y-55640D03*
X63150Y-64834D03*
X63150Y-62865D03*
X71584Y-72900D03*
X69615Y-72900D03*
G54D18*
X92575Y-61250D03*
X93325Y-61250D03*
X92175Y-54050D03*
X92925Y-54050D03*
X91775Y-46900D03*
X92525Y-46900D03*
G54D19*
X64725Y-53000D03*
X64725Y-52250D03*
G54D18*
X65250Y-61050D03*
X64500Y-61050D03*
X65075Y-68425D03*
X64325Y-68425D03*
G54D20*
X93824Y-63212D03*
X93076Y-63212D03*
X93450Y-63212D03*
X93076Y-62188D03*
X93824Y-62188D03*
X93749Y-55862D03*
X93001Y-55862D03*
X93375Y-55862D03*
X93001Y-54838D03*
X93749Y-54838D03*
G54D12*
X90375Y-68575D03*
X89875Y-68575D03*
X89375Y-68575D03*
X88875Y-68575D03*
X88375Y-68575D03*
X87875Y-68575D03*
X87375Y-68575D03*
X86875Y-68575D03*
X86375Y-68575D03*
X85875Y-68575D03*
X85875Y-63275D03*
X86375Y-63275D03*
X86875Y-63275D03*
X87375Y-63275D03*
X87875Y-63275D03*
X88375Y-63275D03*
X88875Y-63275D03*
X89375Y-63275D03*
X89875Y-63275D03*
X90375Y-63275D03*
G54D13*
X88125Y-65925D03*
G54D14*
X88125Y-65925D03*
G54D12*
X90350Y-61250D03*
X89850Y-61250D03*
X89350Y-61250D03*
X88850Y-61250D03*
X88350Y-61250D03*
X87850Y-61250D03*
X87350Y-61250D03*
X86850Y-61250D03*
X86350Y-61250D03*
X85850Y-61250D03*
X85850Y-55950D03*
X86350Y-55950D03*
X86850Y-55950D03*
X87350Y-55950D03*
X87850Y-55950D03*
X88350Y-55950D03*
X88850Y-55950D03*
X89350Y-55950D03*
X89850Y-55950D03*
X90350Y-55950D03*
G54D13*
X88100Y-58600D03*
G54D14*
X88100Y-58600D03*
G54D20*
X93674Y-48787D03*
X92926Y-48787D03*
X93300Y-48787D03*
X92926Y-47763D03*
X93674Y-47763D03*
X63151Y-52588D03*
X63899Y-52588D03*
X63525Y-52588D03*
X63899Y-53612D03*
X63151Y-53612D03*
G54D12*
X90350Y-54250D03*
X89850Y-54250D03*
X89350Y-54250D03*
X88850Y-54250D03*
X88350Y-54250D03*
X87850Y-54250D03*
X87350Y-54250D03*
X86850Y-54250D03*
X86350Y-54250D03*
X85850Y-54250D03*
X85850Y-48950D03*
X86350Y-48950D03*
X86850Y-48950D03*
X87350Y-48950D03*
X87850Y-48950D03*
X88350Y-48950D03*
X88850Y-48950D03*
X89350Y-48950D03*
X89850Y-48950D03*
X90350Y-48950D03*
G54D13*
X88100Y-51600D03*
G54D14*
X88100Y-51600D03*
G54D20*
X63176Y-59688D03*
X63924Y-59688D03*
X63550Y-59688D03*
X63924Y-60712D03*
X63176Y-60712D03*
X63001Y-66913D03*
X63749Y-66913D03*
X63375Y-66913D03*
X63749Y-67937D03*
X63001Y-67937D03*
G54D12*
X66300Y-53925D03*
X66800Y-53925D03*
X67300Y-53925D03*
X67800Y-53925D03*
X68300Y-53925D03*
X68800Y-53925D03*
X69300Y-53925D03*
X69800Y-53925D03*
X70300Y-53925D03*
X70800Y-53925D03*
X70800Y-59225D03*
X70300Y-59225D03*
X69800Y-59225D03*
X69300Y-59225D03*
X68800Y-59225D03*
X68300Y-59225D03*
X67800Y-59225D03*
X67300Y-59225D03*
X66800Y-59225D03*
X66300Y-59225D03*
G54D13*
X68550Y-56575D03*
G54D14*
X68550Y-56575D03*
G54D12*
X66300Y-61200D03*
X66800Y-61200D03*
X67300Y-61200D03*
X67800Y-61200D03*
X68300Y-61200D03*
X68800Y-61200D03*
X69300Y-61200D03*
X69800Y-61200D03*
X70300Y-61200D03*
X70800Y-61200D03*
X70800Y-66500D03*
X70300Y-66500D03*
X69800Y-66500D03*
X69300Y-66500D03*
X68800Y-66500D03*
X68300Y-66500D03*
X67800Y-66500D03*
X67300Y-66500D03*
X66800Y-66500D03*
X66300Y-66500D03*
G54D13*
X68550Y-63850D03*
G54D14*
X68550Y-63850D03*
G54D21*
X74025Y-51625D03*
G54D22*
X74025Y-50625D03*
X75025Y-51625D03*
X75025Y-50625D03*
X76025Y-51625D03*
X76025Y-50625D03*
X77025Y-51625D03*
X77025Y-50625D03*
X78025Y-51625D03*
X78025Y-50625D03*
X79025Y-51625D03*
X79025Y-50625D03*
X80025Y-51625D03*
X80025Y-50625D03*
X81025Y-51625D03*
X81025Y-50625D03*
X82025Y-51625D03*
X82025Y-50625D03*
X83025Y-51625D03*
X83025Y-50625D03*
G54D21*
X71275Y-44825D03*
X79450Y-66475D03*
X74825Y-67500D03*
X79450Y-63125D03*
X84675Y-45500D03*
X85750Y-42600D03*
X77900Y-62225D03*
X73500Y-63150D03*
X71750Y-67425D03*
X73075Y-66825D03*
X73250Y-72300D03*
X73250Y-71200D03*
X75050Y-64325D03*
X87150Y-69900D03*
X72100Y-53175D03*
X74975Y-55050D03*
X76900Y-69375D03*
X80050Y-69200D03*
X74700Y-49125D03*
X73775Y-53400D03*
G54D23*
X88200Y-42400D03*
G54D24*
X68800Y-42400D03*
G54D23*
X89400Y-70700D03*
X67600Y-70700D03*
G54D17*
X76450Y-75000D03*
X74481Y-75000D03*
X78418Y-75000D03*
G54D16*
X91600Y-68450D03*
X92200Y-68450D03*
X91700Y-59650D03*
X92300Y-59650D03*
X91700Y-64900D03*
X92300Y-64900D03*
X92300Y-57600D03*
X91700Y-57600D03*
X92300Y-52600D03*
X91700Y-52600D03*
X64850Y-48550D03*
X64250Y-48550D03*
X91700Y-50600D03*
X92300Y-50600D03*
X64250Y-50500D03*
X64850Y-50500D03*
X64300Y-55650D03*
X64900Y-55650D03*
X64300Y-62850D03*
X64900Y-62850D03*
X64350Y-64800D03*
X64950Y-64800D03*
X64850Y-57600D03*
X64250Y-57600D03*
G54D18*
X93975Y-61250D03*
X94725Y-61250D03*
X93575Y-54050D03*
X94325Y-54050D03*
X92325Y-46050D03*
X91575Y-46050D03*
X63925Y-51900D03*
X63175Y-51900D03*
X63925Y-59050D03*
X63175Y-59050D03*
X63775Y-66250D03*
X63025Y-66250D03*
G54D17*
X82884Y-73500D03*
X80915Y-73500D03*
X87084Y-73150D03*
X85115Y-73150D03*
M02*
