M48
;DRILL file {Pcbnew (2013-08-23 BZR 4296)-product} date 12/22/2013 7:01:18 PM
;FORMAT={2:4/ absolute / inch / suppress leading zeros}
FMAT,2
INCH,TZ
T1C0.020
T2C0.040
T3C0.051
T4C0.150
%
G90
G05
M72
T1
X61875Y-53175
X61875Y-56425
X61875Y-59125
X61875Y-62300
X61875Y-66050
X61975Y-50575
X63000Y-67425
X63125Y-53100
X63175Y-60225
X63200Y-68600
X63750Y-67425
X63900Y-53100
X63925Y-60225
X64100Y-63850
X64175Y-70175
X64250Y-49500
X64325Y-56575
X64950Y-49550
X65250Y-46900
X65300Y-67075
X65500Y-71500
X65525Y-52575
X65550Y-49550
X65650Y-46875
X65700Y-53925
X65750Y-52175
X65775Y-66500
X65800Y-59075
X65850Y-59675
X65900Y-61200
X66100Y-49550
X66800Y-46375
X66800Y-53425
X66800Y-60625
X66900Y-72900
X67000Y-48750
X67000Y-49550
X67000Y-50300
X67000Y-55850
X67000Y-56600
X67000Y-57250
X67100Y-63350
X67100Y-63900
X67100Y-64550
X67250Y-58325
X67300Y-47725
X67300Y-51275
X67300Y-54875
X67300Y-65575
X67325Y-62075
X67800Y-72900
X67900Y-55850
X67900Y-56550
X67900Y-57250
X67900Y-63350
X67900Y-63900
X67900Y-64550
X68050Y-49550
X68100Y-48750
X68100Y-50300
X68225Y-54675
X68250Y-52775
X68250Y-59825
X68275Y-67075
X68300Y-46375
X68300Y-61850
X68500Y-63350
X68500Y-63900
X68500Y-64550
X68550Y-56575
X68800Y-52775
X68800Y-59825
X68800Y-67075
X68800Y-73900
X68975Y-54600
X69700Y-74350
X69775Y-60625
X69800Y-46425
X69800Y-52725
X69800Y-53375
X69800Y-59775
X69875Y-67075
X70300Y-45000
X70500Y-67075
X70550Y-59775
X70650Y-52725
X70750Y-43200
X70800Y-47475
X70800Y-54450
X71000Y-42650
X71150Y-50500
X71150Y-74350
X71325Y-70300
X71350Y-61200
X71375Y-69300
X71400Y-65925
X71500Y-48175
X71950Y-55250
X72000Y-44250
X72075Y-50150
X72075Y-51925
X72125Y-59175
X72375Y-55375
X72425Y-60025
X72441Y-74350
X72550Y-43950
X72550Y-46450
X72625Y-42525
X72700Y-48500
X72700Y-51350
X72725Y-58550
X72925Y-69800
X73025Y-47775
X73025Y-54775
X73050Y-61800
X73050Y-64325
X73075Y-75025
X73275Y-68750
X73300Y-58550
X73425Y-54325
X73450Y-61900
X73750Y-65925
X73800Y-60500
X73800Y-75750
X74250Y-41175
X74375Y-65375
X74400Y-54875
X74400Y-63050
X74500Y-56800
X74700Y-65000
X74750Y-39475
X74800Y-59450
X75000Y-76400
X75150Y-44825
X75150Y-47025
X75200Y-57800
X75275Y-43325
X75350Y-53050
X75350Y-54275
X75400Y-62300
X75525Y-66150
X75550Y-71900
X75825Y-60950
X75850Y-40800
X75850Y-63000
X75900Y-62375
X75900Y-67700
X75925Y-47000
X76000Y-60200
X76125Y-53075
X76125Y-54350
X76150Y-76400
X76275Y-48825
X76275Y-63575
X76300Y-61350
X76425Y-66100
X76550Y-40250
X76550Y-44850
X76550Y-59900
X76725Y-57200
X76725Y-57800
X76850Y-60775
X76850Y-68000
X76875Y-58600
X76975Y-55850
X77000Y-62200
X77025Y-59250
X77100Y-38600
X77100Y-42125
X77100Y-67150
X77150Y-42775
X77175Y-72550
X77200Y-58350
X77250Y-58900
X77300Y-61350
X77300Y-74150
X77575Y-54575
X77625Y-57475
X77625Y-59250
X77700Y-38475
X77700Y-41875
X77700Y-56250
X77700Y-60925
X77850Y-55700
X77875Y-52475
X78000Y-41425
X78000Y-61325
X78050Y-63050
X78050Y-76400
X78150Y-41875
X78250Y-38725
X78300Y-54218
X78600Y-52975
X78675Y-63600
X78775Y-62500
X78900Y-53300
X78900Y-57450
X78900Y-57950
X78900Y-58400
X78975Y-59225
X79000Y-56150
X79000Y-61150
X79025Y-62050
X79175Y-49425
X79175Y-56525
X79275Y-71800
X79400Y-60875
X79450Y-68075
X79475Y-53775
X79525Y-42750
X79575Y-59225
X79675Y-57675
X79700Y-39125
X79750Y-61300
X79750Y-67375
X79800Y-76400
X79825Y-56275
X79850Y-57300
X79925Y-52325
X79925Y-60575
X80075Y-70700
X80150Y-58375
X80225Y-57950
X80250Y-49425
X80250Y-56400
X80400Y-43275
X80400Y-52475
X80569Y-40131
X80575Y-55425
X80800Y-52175
X81075Y-55425
X81150Y-60200
X81425Y-56725
X81566Y-45250
X81650Y-67150
X81750Y-46450
X81825Y-47200
X81850Y-56425
X82300Y-67250
X82500Y-49050
X82500Y-52550
X82800Y-64025
X82875Y-57300
X82925Y-56675
X83000Y-53450
X83050Y-68025
X83050Y-68850
X83450Y-64900
X83500Y-49600
X83650Y-63950
X83700Y-54175
X83712Y-45238
X83725Y-57475
X83725Y-58125
X83800Y-42550
X84025Y-48500
X84025Y-49600
X84100Y-42950
X84100Y-56525
X84150Y-70550
X84200Y-64125
X84250Y-65100
X84350Y-47800
X84350Y-53550
X84400Y-59200
X84600Y-68300
X84850Y-60600
X85200Y-39757
X85200Y-40200
X85200Y-41350
X85200Y-41800
X85400Y-63800
X85525Y-57475
X85525Y-60250
X85550Y-49150
X85625Y-48275
X85750Y-47850
X85850Y-61950
X85850Y-70750
X86250Y-63800
X86300Y-69650
X86325Y-47725
X86700Y-54950
X86700Y-62750
X86725Y-62175
X86850Y-48100
X86875Y-69125
X87425Y-55350
X87725Y-74500
X87850Y-48450
X87850Y-55375
X87875Y-62700
X88075Y-49750
X88100Y-51600
X88350Y-48300
X88350Y-53550
X88350Y-55375
X88350Y-61825
X88375Y-62550
X88375Y-69150
X88700Y-65000
X88700Y-66650
X88750Y-50900
X88850Y-67400
X89250Y-65000
X89250Y-65900
X89250Y-66650
X89275Y-72975
X89350Y-49875
X89350Y-51550
X89350Y-53400
X89350Y-56875
X89350Y-60350
X89375Y-64200
X89375Y-67650
X89600Y-57850
X89600Y-58650
X89600Y-59400
X89650Y-50750
X89650Y-52500
X89750Y-65000
X89750Y-65900
X89750Y-66650
X89775Y-54750
X89775Y-61750
X89850Y-69150
X90100Y-58600
X90325Y-54750
X90350Y-61750
X90400Y-69150
X90700Y-58600
X91150Y-47475
X91250Y-58600
X91325Y-48300
X91400Y-62550
X91425Y-55375
X91575Y-54050
X91700Y-58600
X92175Y-70075
X92300Y-58600
X92350Y-51600
X92350Y-65925
X92800Y-45025
X92925Y-48300
X93000Y-55350
X93075Y-62675
X93675Y-48300
X93738Y-68488
X93750Y-55350
X93825Y-62675
X93875Y-46100
X94475Y-47775
X94481Y-49531
X94600Y-63950
X94600Y-65250
X94600Y-67100
X95500Y-62625
X95750Y-50800
X96125Y-52900
X96125Y-54925
X96125Y-57400
X96125Y-59575
X96125Y-61425
T2
X71275Y-44825
X71750Y-67425
X72100Y-53175
X73075Y-66825
X73250Y-71200
X73250Y-72300
X73500Y-63150
X73775Y-53400
X74025Y-50625
X74025Y-51625
X74700Y-49125
X74825Y-67500
X74975Y-55050
X75025Y-50625
X75025Y-51625
X75050Y-64325
X76025Y-50625
X76025Y-51625
X76900Y-69375
X77025Y-50625
X77025Y-51625
X77900Y-62225
X78025Y-50625
X78025Y-51625
X79025Y-50625
X79025Y-51625
X79450Y-63125
X79450Y-66475
X80025Y-50625
X80025Y-51625
X80050Y-69200
X81025Y-50625
X81025Y-51625
X82025Y-50625
X82025Y-51625
X83025Y-50625
X83025Y-51625
X84675Y-45500
X85750Y-42600
X87150Y-69900
T3
X63050Y-48541
X63050Y-50509
X63150Y-62866
X63150Y-64834
X63200Y-55641
X63200Y-57609
X65516Y-45000
X67484Y-45000
X69616Y-72900
X71584Y-72900
X74481Y-75000
X76450Y-75000
X78419Y-75000
X80916Y-73500
X82884Y-73500
X85116Y-73150
X87084Y-73150
X90550Y-44316
X90550Y-46284
X93600Y-50616
X93600Y-52584
X93600Y-57616
X93600Y-59584
X93600Y-64941
X93600Y-66909
T4
X67600Y-70700
X68800Y-42400
X88200Y-42400
X89400Y-70700
T0
M30
