G04 (created by PCBNEW (2013-08-23 BZR 4296)-product) date 12/22/2013 7:01:24 PM*
%MOIN*%
G04 Gerber Fmt 3.4, Leading zero omitted, Abs format*
%FSLAX34Y34*%
G01*
G70*
G90*
G04 APERTURE LIST*
%ADD10C,0.005906*%
%ADD11C,0.100000*%
%ADD12C,0.007874*%
%ADD13R,0.025000X0.045000*%
%ADD14R,0.063000X0.141700*%
%ADD15R,0.045000X0.025000*%
%ADD16R,0.063000X0.086600*%
%ADD17R,0.047200X0.047200*%
%ADD18R,0.009800X0.060000*%
%ADD19O,0.009800X0.060000*%
%ADD20O,0.060000X0.009800*%
%ADD21C,0.078740*%
%ADD22R,0.039370X0.122047*%
%ADD23R,0.055000X0.035000*%
%ADD24R,0.035000X0.055000*%
%ADD25R,0.078700X0.118100*%
%ADD26R,0.014961X0.011024*%
%ADD27R,0.011024X0.014961*%
%ADD28R,0.023622X0.062992*%
%ADD29R,0.059055X0.027559*%
%ADD30R,0.059055X0.039370*%
%ADD31R,0.027559X0.059055*%
%ADD32R,0.062992X0.023622*%
%ADD33R,0.078700X0.216500*%
%ADD34R,0.060000X0.060000*%
%ADD35C,0.060000*%
%ADD36R,0.120000X0.065000*%
%ADD37R,0.240000X0.240000*%
%ADD38C,0.252000*%
%ADD39C,0.250000*%
%ADD40R,0.086600X0.063000*%
G04 APERTURE END LIST*
G54D10*
G54D11*
X74450Y-76400D02*
X76450Y-76400D01*
X73700Y-75650D02*
X74450Y-76400D01*
X71600Y-72900D02*
X71600Y-74350D01*
X61900Y-50600D02*
X61900Y-50550D01*
X61900Y-67300D02*
X61900Y-50600D01*
X63200Y-68600D02*
X61900Y-67300D01*
X63200Y-69200D02*
X63200Y-68600D01*
X66900Y-72900D02*
X63200Y-69200D01*
X67800Y-72900D02*
X66900Y-72900D01*
X69250Y-74350D02*
X67800Y-72900D01*
X72400Y-74350D02*
X69250Y-74350D01*
X73800Y-75750D02*
X72400Y-74350D01*
X81350Y-76400D02*
X76150Y-76400D01*
X82000Y-75750D02*
X81350Y-76400D01*
X82000Y-75550D02*
X82000Y-75750D01*
X82750Y-74800D02*
X82000Y-75550D01*
X86450Y-74800D02*
X82750Y-74800D01*
X86500Y-74750D02*
X86450Y-74800D01*
X86950Y-74750D02*
X86500Y-74750D01*
X87200Y-74500D02*
X86950Y-74750D01*
X87750Y-74500D02*
X87200Y-74500D01*
X89250Y-73000D02*
X87750Y-74500D01*
X89800Y-73000D02*
X89250Y-73000D01*
X92200Y-70600D02*
X89800Y-73000D01*
X92200Y-70050D02*
X92200Y-70600D01*
X94600Y-67650D02*
X92200Y-70050D01*
X94600Y-62650D02*
X94600Y-67650D01*
X95500Y-62650D02*
X94600Y-62650D01*
X96100Y-62050D02*
X95500Y-62650D01*
X96100Y-51150D02*
X96100Y-62050D01*
X94500Y-49550D02*
X96100Y-51150D01*
X94500Y-46750D02*
X94500Y-49550D01*
X92050Y-44300D02*
X94500Y-46750D01*
X90550Y-44300D02*
X92050Y-44300D01*
G54D12*
X76050Y-76350D02*
X76050Y-76300D01*
X81500Y-76350D02*
X76050Y-76350D01*
X82050Y-75800D02*
X81500Y-76350D01*
X82050Y-75550D02*
X82050Y-75800D01*
X89300Y-72950D02*
X87750Y-74500D01*
X89850Y-72950D02*
X89300Y-72950D01*
X92200Y-70600D02*
X89850Y-72950D01*
X92200Y-70000D02*
X92200Y-70600D01*
X94600Y-67600D02*
X92200Y-70000D01*
X94600Y-62650D02*
X94600Y-67600D01*
X95450Y-62650D02*
X94600Y-62650D01*
X96100Y-62000D02*
X95450Y-62650D01*
X96100Y-51150D02*
X96100Y-62000D01*
X94450Y-49500D02*
X96100Y-51150D01*
X94450Y-46700D02*
X94450Y-49500D01*
X92100Y-44350D02*
X94450Y-46700D01*
X90550Y-44350D02*
X92100Y-44350D01*
G54D13*
X79400Y-38475D03*
X78800Y-38475D03*
G54D14*
X77250Y-44842D03*
X77250Y-47008D03*
X74500Y-44842D03*
X74500Y-47008D03*
G54D13*
X75175Y-44125D03*
X75775Y-44125D03*
G54D15*
X77100Y-40800D03*
X77100Y-40200D03*
G54D13*
X79000Y-40900D03*
X78400Y-40900D03*
X75625Y-40250D03*
X76225Y-40250D03*
G54D15*
X80350Y-66475D03*
X80350Y-67075D03*
X79700Y-40325D03*
X79700Y-39725D03*
G54D13*
X82725Y-45500D03*
X83325Y-45500D03*
G54D15*
X77100Y-39700D03*
X77100Y-39100D03*
G54D13*
X72100Y-42650D03*
X71500Y-42650D03*
X80225Y-45250D03*
X80825Y-45250D03*
G54D15*
X79000Y-64800D03*
X79000Y-64200D03*
X80375Y-40850D03*
X80375Y-41450D03*
G54D13*
X80700Y-71200D03*
X80100Y-71200D03*
X84400Y-58750D03*
X83800Y-58750D03*
X84400Y-55050D03*
X83800Y-55050D03*
X74075Y-68050D03*
X73475Y-68050D03*
X86700Y-63275D03*
X86100Y-63275D03*
X89775Y-61250D03*
X90375Y-61250D03*
X88425Y-63275D03*
X87825Y-63275D03*
X88425Y-55950D03*
X87825Y-55950D03*
X86900Y-68575D03*
X86300Y-68575D03*
X86025Y-61250D03*
X85425Y-61250D03*
X89775Y-54250D03*
X90375Y-54250D03*
X70000Y-52175D03*
X70600Y-52175D03*
X88375Y-48925D03*
X87775Y-48925D03*
X68250Y-52175D03*
X68850Y-52175D03*
X86700Y-54275D03*
X86100Y-54275D03*
X70250Y-46875D03*
X70850Y-46875D03*
X69950Y-59225D03*
X70550Y-59225D03*
X69900Y-66500D03*
X70500Y-66500D03*
X68250Y-59225D03*
X68850Y-59225D03*
X68250Y-66500D03*
X68850Y-66500D03*
X70400Y-53925D03*
X71000Y-53925D03*
X70250Y-61200D03*
X70850Y-61200D03*
G54D16*
X73077Y-43200D03*
X74573Y-43200D03*
G54D17*
X74187Y-71200D03*
X75013Y-71200D03*
X74187Y-71900D03*
X75013Y-71900D03*
G54D18*
X79976Y-55189D03*
G54D19*
X79779Y-55189D03*
X79582Y-55189D03*
X79385Y-55189D03*
X79188Y-55189D03*
X78992Y-55189D03*
X78795Y-55189D03*
X78598Y-55189D03*
X78401Y-55189D03*
X78204Y-55189D03*
X78007Y-55189D03*
X77811Y-55189D03*
X77614Y-55189D03*
X77417Y-55189D03*
X77220Y-55189D03*
X77023Y-55189D03*
G54D20*
X76125Y-56024D03*
X76125Y-56221D03*
X76125Y-56418D03*
X76125Y-56615D03*
X76125Y-56812D03*
X76125Y-57008D03*
X76125Y-57205D03*
X76125Y-57402D03*
X76125Y-57599D03*
X76125Y-57796D03*
X76125Y-57993D03*
X76125Y-58189D03*
X76125Y-58386D03*
X76125Y-58583D03*
X76125Y-58780D03*
X76125Y-58977D03*
G54D19*
X77023Y-59875D03*
X77220Y-59875D03*
X77417Y-59875D03*
X77614Y-59875D03*
X77811Y-59875D03*
X78007Y-59875D03*
X78204Y-59875D03*
X78401Y-59875D03*
X78598Y-59875D03*
X78795Y-59875D03*
X78992Y-59875D03*
X79188Y-59875D03*
X79385Y-59875D03*
X79582Y-59875D03*
X79779Y-59875D03*
X79976Y-59875D03*
G54D20*
X80811Y-58977D03*
X80811Y-58780D03*
X80811Y-58386D03*
X80818Y-58583D03*
X80811Y-58189D03*
X80811Y-57993D03*
X80811Y-57796D03*
X80811Y-57599D03*
X80811Y-57402D03*
X80811Y-57205D03*
X80811Y-57011D03*
X80811Y-56814D03*
X80811Y-56617D03*
X80811Y-56420D03*
X80811Y-56224D03*
X80811Y-56027D03*
G54D21*
X65515Y-45000D03*
X67484Y-45000D03*
G54D22*
X80665Y-60926D03*
X81650Y-60926D03*
X82634Y-60926D03*
X80665Y-62973D03*
X81650Y-62973D03*
X82634Y-62973D03*
G54D21*
X93600Y-64940D03*
X93600Y-66909D03*
X93600Y-57615D03*
X93600Y-59584D03*
X93600Y-50615D03*
X93600Y-52584D03*
X63050Y-50509D03*
X63050Y-48540D03*
X90550Y-44315D03*
X90550Y-46284D03*
X63200Y-57609D03*
X63200Y-55640D03*
X63150Y-64834D03*
X63150Y-62865D03*
X71584Y-72900D03*
X69615Y-72900D03*
G54D23*
X83650Y-63475D03*
X83650Y-62725D03*
X83350Y-70125D03*
X83350Y-69375D03*
X84950Y-63475D03*
X84950Y-62725D03*
G54D24*
X82425Y-68850D03*
X81675Y-68850D03*
X75775Y-42400D03*
X76525Y-42400D03*
X81675Y-69575D03*
X80925Y-69575D03*
X76525Y-43325D03*
X75775Y-43325D03*
X76350Y-41500D03*
X77100Y-41500D03*
G54D23*
X83275Y-67225D03*
X83275Y-66475D03*
G54D24*
X74000Y-38950D03*
X74750Y-38950D03*
X82800Y-64850D03*
X82050Y-64850D03*
X82050Y-64125D03*
X81300Y-64125D03*
G54D23*
X85000Y-48250D03*
X85000Y-49000D03*
G54D24*
X85750Y-47300D03*
X85000Y-47300D03*
G54D23*
X80500Y-64125D03*
X80500Y-64875D03*
X79675Y-64125D03*
X79675Y-64875D03*
G54D24*
X77025Y-49425D03*
X76275Y-49425D03*
X78025Y-49425D03*
X78775Y-49425D03*
X86250Y-43850D03*
X85500Y-43850D03*
X86225Y-44625D03*
X85475Y-44625D03*
G54D23*
X83700Y-61925D03*
X83700Y-61175D03*
X70800Y-69125D03*
X70800Y-69875D03*
X77875Y-69475D03*
X77875Y-68725D03*
G54D24*
X78750Y-67550D03*
X78000Y-67550D03*
X76325Y-38475D03*
X75575Y-38475D03*
X76325Y-39350D03*
X75575Y-39350D03*
G54D25*
X94606Y-62675D03*
X92244Y-62675D03*
X94581Y-55350D03*
X92219Y-55350D03*
G54D24*
X88250Y-68575D03*
X87500Y-68575D03*
X87550Y-61250D03*
X88300Y-61250D03*
G54D25*
X94481Y-48300D03*
X92119Y-48300D03*
X62369Y-52575D03*
X64731Y-52575D03*
G54D24*
X88350Y-54250D03*
X87600Y-54250D03*
X68375Y-47500D03*
X69125Y-47500D03*
G54D25*
X62369Y-59675D03*
X64731Y-59675D03*
X62194Y-66925D03*
X64556Y-66925D03*
G54D24*
X68225Y-53925D03*
X68975Y-53925D03*
X68125Y-61200D03*
X68875Y-61200D03*
G54D23*
X69750Y-69125D03*
X69750Y-69875D03*
G54D26*
X79169Y-39626D03*
X79169Y-39823D03*
X79169Y-40020D03*
X79169Y-40217D03*
X79169Y-39429D03*
X79169Y-39232D03*
G54D27*
X78598Y-40394D03*
X78401Y-40394D03*
X78204Y-40394D03*
X78007Y-40394D03*
X78795Y-40394D03*
X78992Y-40394D03*
X78598Y-39055D03*
X78401Y-39055D03*
X78795Y-39055D03*
X78992Y-39055D03*
X78204Y-39055D03*
X78007Y-39055D03*
G54D26*
X77830Y-39626D03*
X77830Y-39823D03*
X77830Y-40020D03*
X77830Y-40217D03*
X77830Y-39429D03*
X77830Y-39232D03*
G54D28*
X81061Y-65812D03*
X81061Y-67937D03*
X81553Y-65812D03*
X82046Y-65812D03*
X82538Y-65812D03*
X81553Y-67937D03*
X82046Y-67937D03*
X82538Y-67937D03*
G54D29*
X81192Y-44462D03*
X81192Y-44068D03*
X81192Y-43674D03*
X81192Y-43281D03*
X81192Y-42887D03*
X81192Y-42493D03*
X81192Y-42100D03*
X81192Y-41706D03*
X81192Y-41312D03*
X81192Y-40918D03*
X81192Y-40525D03*
X81192Y-40131D03*
G54D30*
X81192Y-39678D03*
X84657Y-39757D03*
G54D29*
X84657Y-40210D03*
X84657Y-40603D03*
X84657Y-40997D03*
X84657Y-41391D03*
X84657Y-41785D03*
X84657Y-42178D03*
X84657Y-42572D03*
X84657Y-42966D03*
X84657Y-43359D03*
X84657Y-43753D03*
X84657Y-44147D03*
X84657Y-44540D03*
G54D31*
X82925Y-44678D03*
X83318Y-44678D03*
X83712Y-44678D03*
X82531Y-44678D03*
X82137Y-44678D03*
G54D28*
X79363Y-72562D03*
X79363Y-70437D03*
X78871Y-72562D03*
X78378Y-72562D03*
X77886Y-72562D03*
X78871Y-70437D03*
X78378Y-70437D03*
X77886Y-70437D03*
G54D32*
X74062Y-68811D03*
X71937Y-68811D03*
X74062Y-69303D03*
X74062Y-69796D03*
X74062Y-70288D03*
X71937Y-69303D03*
X71937Y-69796D03*
X71937Y-70288D03*
G54D33*
X82475Y-55050D03*
X82475Y-58750D03*
G54D34*
X74025Y-51625D03*
G54D35*
X74025Y-50625D03*
X75025Y-51625D03*
X75025Y-50625D03*
X76025Y-51625D03*
X76025Y-50625D03*
X77025Y-51625D03*
X77025Y-50625D03*
X78025Y-51625D03*
X78025Y-50625D03*
X79025Y-51625D03*
X79025Y-50625D03*
X80025Y-51625D03*
X80025Y-50625D03*
X81025Y-51625D03*
X81025Y-50625D03*
X82025Y-51625D03*
X82025Y-50625D03*
X83025Y-51625D03*
X83025Y-50625D03*
G54D36*
X74575Y-41850D03*
G54D37*
X72075Y-40950D03*
G54D36*
X74575Y-40050D03*
X82725Y-48250D03*
G54D37*
X80225Y-47350D03*
G54D36*
X82725Y-46450D03*
G54D34*
X71275Y-44825D03*
X79450Y-66475D03*
X74825Y-67500D03*
X79450Y-63125D03*
X84675Y-45500D03*
X85750Y-42600D03*
X77900Y-62225D03*
X73500Y-63150D03*
X71750Y-67425D03*
X73075Y-66825D03*
X73250Y-72300D03*
X73250Y-71200D03*
X75050Y-64325D03*
X87150Y-69900D03*
X72100Y-53175D03*
X74975Y-55050D03*
X76900Y-69375D03*
X80050Y-69200D03*
X74700Y-49125D03*
X73775Y-53400D03*
G54D38*
X88200Y-42400D03*
G54D39*
X68800Y-42400D03*
G54D38*
X89400Y-70700D03*
X67600Y-70700D03*
G54D40*
X69900Y-45648D03*
X69900Y-44152D03*
G54D21*
X76450Y-75000D03*
X74481Y-75000D03*
X78418Y-75000D03*
G54D13*
X91550Y-61250D03*
X90950Y-61250D03*
X91400Y-56000D03*
X90800Y-56000D03*
X91350Y-48950D03*
X90750Y-48950D03*
X68250Y-51350D03*
X68850Y-51350D03*
X68300Y-67750D03*
X68900Y-67750D03*
X68250Y-58400D03*
X68850Y-58400D03*
G54D21*
X82884Y-73500D03*
X80915Y-73500D03*
G54D32*
X86812Y-65411D03*
X84687Y-65411D03*
X86812Y-65903D03*
X86812Y-66396D03*
X86812Y-66888D03*
X84687Y-65903D03*
X84687Y-66396D03*
X84687Y-66888D03*
G54D24*
X87075Y-70750D03*
X86325Y-70750D03*
G54D23*
X84150Y-69125D03*
X84150Y-69875D03*
X85250Y-68175D03*
X85250Y-68925D03*
G54D24*
X84925Y-64650D03*
X85675Y-64650D03*
X82925Y-70900D03*
X83675Y-70900D03*
X81475Y-71050D03*
X82225Y-71050D03*
X80575Y-70300D03*
X81325Y-70300D03*
G54D15*
X85100Y-69950D03*
X85100Y-70550D03*
G54D21*
X87084Y-73150D03*
X85115Y-73150D03*
M02*
