G04 (created by PCBNEW (2013-08-23 BZR 4296)-product) date 12/22/2013 7:01:24 PM*
%MOIN*%
G04 Gerber Fmt 3.4, Leading zero omitted, Abs format*
%FSLAX34Y34*%
G01*
G70*
G90*
G04 APERTURE LIST*
%ADD10C,0.005906*%
%ADD11C,0.003937*%
%ADD12C,0.004000*%
G04 APERTURE END LIST*
G54D10*
G54D11*
X98350Y-54900D02*
G75*
G03X96950Y-56500I100J-1500D01*
G74*
G01*
X59950Y-65050D02*
G75*
G03X60750Y-63450I-400J1200D01*
G74*
G01*
X60750Y-63450D02*
G75*
G03X59150Y-62650I-1200J-400D01*
G74*
G01*
X59700Y-50850D02*
G75*
G03X61250Y-50000I350J1200D01*
G74*
G01*
X61150Y-50250D02*
G75*
G03X60600Y-48600I-1100J550D01*
G74*
G01*
X95900Y-47600D02*
G75*
G03X95300Y-49300I550J-1150D01*
G74*
G01*
X95300Y-49300D02*
G75*
G03X97000Y-49900I1150J550D01*
G74*
G01*
X95600Y-65000D02*
G75*
G03X96200Y-66700I1150J-550D01*
G74*
G01*
X97250Y-64400D02*
G75*
G03X95600Y-65050I-500J-1150D01*
G74*
G01*
X84950Y-76500D02*
G75*
G03X83400Y-75550I-1250J-300D01*
G74*
G01*
X83400Y-75550D02*
G75*
G03X82450Y-77100I300J-1250D01*
G74*
G01*
X72000Y-75100D02*
G75*
G03X70450Y-75850I-400J-1150D01*
G74*
G01*
X72800Y-76650D02*
G75*
G03X71950Y-75100I-1200J350D01*
G74*
G01*
X59800Y-57550D02*
G75*
G03X58550Y-56200I-1300J50D01*
G74*
G01*
X58550Y-58750D02*
G75*
G03X59800Y-57500I0J1250D01*
G74*
G01*
X62600Y-45250D02*
G75*
G03X64350Y-45200I850J900D01*
G74*
G01*
X64350Y-45200D02*
G75*
G03X64300Y-43450I-900J850D01*
G74*
G01*
X68300Y-40150D02*
G75*
G03X69950Y-40800I1150J500D01*
G74*
G01*
X69950Y-40800D02*
G75*
G03X70600Y-39150I-500J1150D01*
G74*
G01*
X96950Y-56400D02*
G75*
G03X98500Y-57850I1500J50D01*
G74*
G01*
G54D12*
X98500Y-57500D02*
G75*
G03X98500Y-57500I-20000J0D01*
G74*
G01*
M02*
